<svg xmlns="http://www.w3.org/2000/svg" xmlns:xlink="http://www.w3.org/1999/xlink" contentStyleType="text/css" data-diagram-type="DESCRIPTION" height="431px" preserveAspectRatio="none" style="width:1986px;height:431px;background:#FFFFFF;" version="1.1" viewBox="0 0 1986 431" width="1986px" zoomAndPan="magnify"><title>C4 Level 1 - System Context (NAPCORE Helpdesk)</title><defs/><g><g class="title" data-source-line="1"><text fill="#000000" font-family="sans-serif" font-size="14" font-weight="bold" lengthAdjust="spacing" textLength="361.3613" x="805.4332" y="23.5352">C4 Level 1 - System Context (NAPCORE Helpdesk)</text></g><!--entity PTO--><g class="entity" data-entity="PTO" data-source-line="16" data-uid="ent0002" id="entity_PTO"><ellipse cx="137.7366" cy="51.4883" fill="#EAF2FF" rx="8" ry="8" style="stroke:#2B5FAB;stroke-width:0.5;"/><path d="M137.7366,59.4883 L137.7366,86.4883 M124.7366,67.4883 L150.7366,67.4883 M137.7366,86.4883 L124.7366,101.4883 M137.7366,86.4883 L150.7366,101.4883" fill="none" style="stroke:#2B5FAB;stroke-width:0.5;"/><text fill="#1F2F4A" font-family="sans-serif" font-size="14" lengthAdjust="spacing" textLength="27.4668" x="44.99" y="116.5234">PTO</text><text fill="#1F2F4A" font-family="sans-serif" font-size="14" lengthAdjust="spacing" textLength="185.4932" x="44.99" y="133.0117">(Public Transport Operator)</text></g><!--entity PTA--><g class="entity" data-entity="PTA" data-source-line="17" data-uid="ent0003" id="entity_PTA"><ellipse cx="359.7398" cy="51.4883" fill="#EAF2FF" rx="8" ry="8" style="stroke:#2B5FAB;stroke-width:0.5;"/><path d="M359.7398,59.4883 L359.7398,86.4883 M346.7398,67.4883 L372.7398,67.4883 M359.7398,86.4883 L346.7398,101.4883 M359.7398,86.4883 L372.7398,101.4883" fill="none" style="stroke:#2B5FAB;stroke-width:0.5;"/><text fill="#1F2F4A" font-family="sans-serif" font-size="14" lengthAdjust="spacing" textLength="26.25" x="265.65" y="116.5234">PTA</text><text fill="#1F2F4A" font-family="sans-serif" font-size="14" lengthAdjust="spacing" textLength="188.1797" x="265.65" y="133.0117">(Public Transport Authority)</text></g><!--entity DEV--><g class="entity" data-entity="DEV" data-source-line="18" data-uid="ent0004" id="entity_DEV"><ellipse cx="573.7392" cy="59.7283" fill="#EAF2FF" rx="8" ry="8" style="stroke:#2B5FAB;stroke-width:0.5;"/><path d="M573.7392,67.7283 L573.7392,94.7283 M560.7392,75.7283 L586.7392,75.7283 M573.7392,94.7283 L560.7392,109.7283 M573.7392,94.7283 L586.7392,109.7283" fill="none" style="stroke:#2B5FAB;stroke-width:0.5;"/><text fill="#1F2F4A" font-family="sans-serif" font-size="14" lengthAdjust="spacing" textLength="68.3184" x="539.58" y="124.7634">Developer</text></g><!--entity INTEGRATOR--><g class="entity" data-entity="INTEGRATOR" data-source-line="19" data-uid="ent0005" id="entity_INTEGRATOR"><ellipse cx="749.7373" cy="59.7283" fill="#EAF2FF" rx="8" ry="8" style="stroke:#2B5FAB;stroke-width:0.5;"/><path d="M749.7373,67.7283 L749.7373,94.7283 M736.7373,75.7283 L762.7373,75.7283 M749.7373,94.7283 L736.7373,109.7283 M749.7373,94.7283 L762.7373,109.7283" fill="none" style="stroke:#2B5FAB;stroke-width:0.5;"/><text fill="#1F2F4A" font-family="sans-serif" font-size="14" lengthAdjust="spacing" textLength="144.8945" x="677.29" y="124.7634">ITS System Integrator</text></g><!--entity TICKET--><g class="entity" data-entity="TICKET" data-source-line="20" data-uid="ent0006" id="entity_TICKET"><ellipse cx="934.7384" cy="59.7283" fill="#EAF2FF" rx="8" ry="8" style="stroke:#2B5FAB;stroke-width:0.5;"/><path d="M934.7384,67.7283 L934.7384,94.7283 M921.7384,75.7283 L947.7384,75.7283 M934.7384,94.7283 L921.7384,109.7283 M934.7384,94.7283 L947.7384,109.7283" fill="none" style="stroke:#2B5FAB;stroke-width:0.5;"/><text fill="#1F2F4A" font-family="sans-serif" font-size="14" lengthAdjust="spacing" textLength="107.2969" x="881.09" y="124.7634">Ticketing Agent</text></g><!--entity HELPDESK--><g class="entity" data-entity="HELPDESK" data-source-line="22" data-uid="ent0007" id="entity_HELPDESK"><rect fill="#DCE9FF" height="52.9766" rx="6" ry="6" style="stroke:#2B5FAB;stroke-width:0.5;" width="204.5771" x="471.45" y="227.9683"/><text fill="#1F2F4A" font-family="sans-serif" font-size="14" lengthAdjust="spacing" textLength="184.5771" x="481.45" y="251.5034">NAPCORE Helpdesk System</text><text fill="#1F2F4A" font-family="sans-serif" font-size="14" lengthAdjust="spacing" textLength="178.459" x="481.45" y="267.9917">(FAQ-first + RAG fallback)</text></g><!--entity GITHUB--><g class="entity" data-entity="GITHUB" data-source-line="23" data-uid="ent0008" id="entity_GITHUB"><rect fill="#F8FBFF" height="52.9766" rx="6" ry="6" style="stroke:#2B5FAB;stroke-width:0.5;" width="307.4717" x="7" y="372.9383"/><text fill="#1F2F4A" font-family="sans-serif" font-size="14" lengthAdjust="spacing" textLength="205.3105" x="17" y="396.4734">Approved GitHub Repositories</text><text fill="#1F2F4A" font-family="sans-serif" font-size="14" lengthAdjust="spacing" textLength="287.4717" x="17" y="412.9617">(NeTEx-CEN/NeTEx + allowlisted sources)</text></g><!--entity GRAPHDB--><g class="entity" data-entity="GRAPHDB" data-source-line="24" data-uid="ent0009" id="entity_GRAPHDB"><rect fill="#F8FBFF" height="52.9766" rx="6" ry="6" style="stroke:#2B5FAB;stroke-width:0.5;" width="186.3594" x="349.56" y="372.9383"/><text fill="#1F2F4A" font-family="sans-serif" font-size="14" lengthAdjust="spacing" textLength="164.6641" x="359.56" y="396.4734">GraphDB Semantic Store</text><text fill="#1F2F4A" font-family="sans-serif" font-size="14" lengthAdjust="spacing" textLength="166.3594" x="359.56" y="412.9617">(Ontology + alignments)</text></g><!--entity CONTROLLER_LLM--><g class="entity" data-entity="CONTROLLER_LLM" data-source-line="25" data-uid="ent0010" id="entity_CONTROLLER_LLM"><rect fill="#F8FBFF" height="52.9766" rx="6" ry="6" style="stroke:#2B5FAB;stroke-width:0.5;" width="252.2168" x="570.63" y="372.9383"/><text fill="#1F2F4A" font-family="sans-serif" font-size="14" lengthAdjust="spacing" textLength="174.7197" x="580.63" y="396.4734">Controller Model Runtime</text><text fill="#1F2F4A" font-family="sans-serif" font-size="14" lengthAdjust="spacing" textLength="232.2168" x="580.63" y="412.9617">(Intent, routing, SPARQL planning)</text></g><!--entity NARRATION_LLM--><g class="entity" data-entity="NARRATION_LLM" data-source-line="26" data-uid="ent0011" id="entity_NARRATION_LLM"><rect fill="#F8FBFF" height="52.9766" rx="6" ry="6" style="stroke:#2B5FAB;stroke-width:0.5;" width="237.0889" x="858.19" y="372.9383"/><text fill="#1F2F4A" font-family="sans-serif" font-size="14" lengthAdjust="spacing" textLength="170.3926" x="868.19" y="396.4734">Narration Model Runtime</text><text fill="#1F2F4A" font-family="sans-serif" font-size="14" lengthAdjust="spacing" textLength="217.0889" x="868.19" y="412.9617">(Grounded answer composition)</text></g><g class="entity" data-entity="GMN29" data-source-line="52" data-uid="ent0030" id="entity_GMN29"><path d="M1596.24,385.1183 L1596.24,413.7394 A6,6 0 0 0 1602.24,419.7394 L1973.2278,419.7394 A6,6 0 0 0 1979.2278,413.7394 L1979.2278,389.1183 L1969.2278,379.1183 L1602.24,379.1183 A6,6 0 0 0 1596.24,385.1183" fill="#FEFFDD" style="stroke:#181818;stroke-width:0.5;"/><path d="M1969.2278,379.1183 L1969.2278,386.1183 A3,3 0 0 0 1972.2278,389.1183 L1979.2278,389.1183 L1969.2278,379.1183" fill="#FEFFDD" style="stroke:#181818;stroke-width:1;"/><text fill="#000000" font-family="sans-serif" font-size="13" lengthAdjust="spacing" textLength="361.9878" x="1602.24" y="396.6866">Knowledge boundary: approved GitHub repositories only.</text><text fill="#000000" font-family="sans-serif" font-size="13" lengthAdjust="spacing" textLength="270.0229" x="1602.24" y="411.9972">If evidence is insufficient, system abstains.</text></g><g class="entity" data-entity="GMN32" data-source-line="57" data-uid="ent0033" id="entity_GMN32"><path d="M1130.72,385.1183 L1130.72,395.4283 L1095.65,399.4283 L1130.72,403.4283 L1130.72,413.7394 A6,6 0 0 0 1136.72,419.7394 L1554.7566,419.7394 A6,6 0 0 0 1560.7566,413.7394 L1560.7566,389.1183 L1550.7566,379.1183 L1136.72,379.1183 A6,6 0 0 0 1130.72,385.1183" fill="#FEFFDD" style="stroke:#181818;stroke-width:0.5;"/><path d="M1550.7566,379.1183 L1550.7566,386.1183 A3,3 0 0 0 1553.7566,389.1183 L1560.7566,389.1183 L1550.7566,379.1183" fill="#FEFFDD" style="stroke:#181818;stroke-width:0.5;"/><text fill="#000000" font-family="sans-serif" font-size="13" lengthAdjust="spacing" textLength="105.9551" x="1136.72" y="396.6866">Top layer: Users.</text><text fill="#000000" font-family="sans-serif" font-size="13" lengthAdjust="spacing" textLength="409.0366" x="1136.72" y="411.9972">Bottom layer: Approved source repositories and model runtimes.</text></g><!--link PTO to HELPDESK--><g class="link" data-entity-1="PTO" data-entity-2="HELPDESK" data-source-line="28" data-uid="lnk12" id="link_PTO_HELPDESK"><path d="M146.44,136.4383 C152.99,158.3983 164.32,183.0883 183.74,197.9683 C227.5,231.5083 364.8782,244.4941 464.9982,249.7441" fill="none" id="PTO-to-HELPDESK" style="stroke:#181818;stroke-width:1;"/><polygon fill="#181818" points="470.99,250.0583,462.2118,245.5925,465.9969,249.7965,461.7929,253.5815,470.99,250.0583" style="stroke:#181818;stroke-width:1;"/><text fill="#000000" font-family="sans-serif" font-size="13" lengthAdjust="spacing" textLength="96.1606" x="219.0459" y="179.5366">Asks standards</text><text fill="#000000" font-family="sans-serif" font-size="13" lengthAdjust="spacing" textLength="164.7725" x="184.74" y="194.8472">implementation questions</text></g><!--link PTA to HELPDESK--><g class="link" data-entity-1="PTA" data-entity-2="HELPDESK" data-source-line="29" data-uid="lnk13" id="link_PTA_HELPDESK"><path d="M354.38,136.3883 C354.44,157.4183 358.39,181.2983 372.74,197.9683 C386.41,213.8383 422.9505,225.4174 465.3005,234.7474" fill="none" id="PTA-to-HELPDESK" style="stroke:#181818;stroke-width:1;"/><polygon fill="#181818" points="471.16,236.0383,463.2314,230.1956,466.2771,234.9625,461.5102,238.0083,471.16,236.0383" style="stroke:#181818;stroke-width:1;"/><text fill="#000000" font-family="sans-serif" font-size="13" lengthAdjust="spacing" textLength="98.6108" x="418.6687" y="179.5366">Asks policy and</text><text fill="#000000" font-family="sans-serif" font-size="13" lengthAdjust="spacing" textLength="188.4683" x="373.74" y="194.8472">compliance-related questions</text></g><!--link DEV to HELPDESK--><g class="link" data-entity-1="DEV" data-entity-2="HELPDESK" data-source-line="30" data-uid="lnk14" id="link_DEV_HELPDESK"><path d="M571.69,127.7883 C570.81,148.4683 570.11,174.6383 570.74,197.9683 C571,207.6083 571.169,212.198 571.699,221.508" fill="none" id="DEV-to-HELPDESK" style="stroke:#181818;stroke-width:1;"/><polygon fill="#181818" points="572.04,227.4983,575.522,218.2855,571.7558,222.5064,567.5349,218.7402,572.04,227.4983" style="stroke:#181818;stroke-width:1;"/><text fill="#000000" font-family="sans-serif" font-size="13" lengthAdjust="spacing" textLength="90.1875" x="594.0171" y="179.5366">Asks technical</text><text fill="#000000" font-family="sans-serif" font-size="13" lengthAdjust="spacing" textLength="134.7417" x="571.74" y="194.8472">integration questions</text></g><!--link INTEGRATOR to HELPDESK--><g class="link" data-entity-1="INTEGRATOR" data-entity-2="HELPDESK" data-source-line="31" data-uid="lnk15" id="link_INTEGRATOR_HELPDESK"><path d="M744.01,128.1683 C738.8,150.8983 728.99,179.0283 710.74,197.9683 C698.8,210.3483 689.1378,217.4491 673.3878,225.0191" fill="none" id="INTEGRATOR-to-HELPDESK" style="stroke:#181818;stroke-width:1;"/><polygon fill="#181818" points="667.98,227.6183,677.8245,227.3247,672.4865,225.4523,674.3589,220.1143,667.98,227.6183" style="stroke:#181818;stroke-width:1;"/><text fill="#000000" font-family="sans-serif" font-size="13" lengthAdjust="spacing" textLength="130.2031" x="750.7221" y="179.5366">Asks interoperability</text><text fill="#000000" font-family="sans-serif" font-size="13" lengthAdjust="spacing" textLength="167.5273" x="732.06" y="194.8472">and deployment questions</text></g><!--link TICKET to HELPDESK--><g class="link" data-entity-1="TICKET" data-entity-2="HELPDESK" data-source-line="32" data-uid="lnk16" id="link_TICKET_HELPDESK"><path d="M935.14,128.0183 C933.3,151.4283 926.84,180.3583 907.74,197.9683 C874.67,228.4383 767.8141,241.872 682.3541,248.102" fill="none" id="TICKET-to-HELPDESK" style="stroke:#181818;stroke-width:1;"/><polygon fill="#181818" points="676.37,248.5383,685.637,251.8733,681.3568,248.1747,685.0554,243.8945,676.37,248.5383" style="stroke:#181818;stroke-width:1;"/><text fill="#000000" font-family="sans-serif" font-size="13" lengthAdjust="spacing" textLength="88.8481" x="950.6668" y="179.5366">Asks ticketing</text><text fill="#000000" font-family="sans-serif" font-size="13" lengthAdjust="spacing" textLength="134.7417" x="927.72" y="194.8472">integration questions</text></g><!--link PTO to PTA--><!--link PTA to DEV--><!--link DEV to INTEGRATOR--><!--link INTEGRATOR to TICKET--><!--link HELPDESK to GITHUB--><!--link HELPDESK to GITHUB--><g class="link" data-entity-1="HELPDESK" data-entity-2="GITHUB" data-source-line="46" data-uid="lnk25" id="link_HELPDESK_GITHUB"><path d="M471.03,258.2383 C405.83,263.5583 321.33,277.1783 253.74,310.9383 C224.39,325.5983 201.7785,347.9788 184.6485,368.1088" fill="none" id="HELPDESK-to-GITHUB-1" style="stroke:#181818;stroke-width:1;"/><polygon fill="#181818" points="180.76,372.6783,189.639,368.4164,184.0004,368.8704,183.5464,363.2318,180.76,372.6783" style="stroke:#181818;stroke-width:1;"/><text fill="#000000" font-family="sans-serif" font-size="13" lengthAdjust="spacing" textLength="120.3579" x="290.855" y="324.5066">Retrieves approved</text><text fill="#000000" font-family="sans-serif" font-size="13" lengthAdjust="spacing" textLength="192.5879" x="254.74" y="339.8172">source documents and chunks</text></g><!--link GITHUB to GRAPHDB--><!--link GRAPHDB to CONTROLLER_LLM--><!--link CONTROLLER_LLM to NARRATION_LLM--><!--link HELPDESK to GRAPHDB--><g class="link" data-entity-1="HELPDESK" data-entity-2="GRAPHDB" data-source-line="47" data-uid="lnk26" id="link_HELPDESK_GRAPHDB"><path d="M510.7,281.3283 C497.1,289.2283 483.8,299.0483 473.74,310.9383 C458.85,328.5283 452.1952,347.9054 448.0952,366.7554" fill="none" id="HELPDESK-to-GRAPHDB" style="stroke:#181818;stroke-width:1;"/><polygon fill="#181818" points="446.82,372.6183,452.6414,364.6741,447.8827,367.7325,444.8242,362.9738,446.82,372.6183" style="stroke:#181818;stroke-width:1;"/><text fill="#000000" font-family="sans-serif" font-size="13" lengthAdjust="spacing" textLength="143.0952" x="477.1553" y="324.5066">Queries concept graph</text><text fill="#000000" font-family="sans-serif" font-size="13" lengthAdjust="spacing" textLength="147.9258" x="474.74" y="339.8172">for semantic expansion</text></g><!--link HELPDESK to CONTROLLER_LLM--><g class="link" data-entity-1="HELPDESK" data-entity-2="CONTROLLER_LLM" data-source-line="48" data-uid="lnk27" id="link_HELPDESK_CONTROLLER_LLM"><path d="M601.84,281.1683 C611.33,290.2783 621.79,300.7883 630.74,310.9383 C648.23,330.7783 662.6933,349.9853 675.4533,367.8553" fill="none" id="HELPDESK-to-CONTROLLER_LLM" style="stroke:#181818;stroke-width:1;"/><polygon fill="#181818" points="678.94,372.7383,676.9653,363.0894,676.0345,368.6692,670.4547,367.7383,678.94,372.7383" style="stroke:#181818;stroke-width:1;"/><text fill="#000000" font-family="sans-serif" font-size="13" lengthAdjust="spacing" textLength="153.4609" x="671.5754" y="324.5066">Runs controller prompts</text><text fill="#000000" font-family="sans-serif" font-size="13" lengthAdjust="spacing" textLength="183.4917" x="656.56" y="339.8172">for intent and route planning</text></g><!--link HELPDESK to NARRATION_LLM--><g class="link" data-entity-1="HELPDESK" data-entity-2="NARRATION_LLM" data-source-line="49" data-uid="lnk28" id="link_HELPDESK_NARRATION_LLM"><path d="M676.22,266.2083 C729.24,274.2083 794.1,287.8883 848.74,310.9383 C885.07,326.2783 917.0472,348.9571 941.7772,368.7671" fill="none" id="HELPDESK-to-NARRATION_LLM" style="stroke:#181818;stroke-width:1;"/><polygon fill="#181818" points="946.46,372.5183,941.9366,363.7697,942.5577,369.3923,936.935,370.0134,946.46,372.5183" style="stroke:#181818;stroke-width:1;"/><text fill="#000000" font-family="sans-serif" font-size="13" lengthAdjust="spacing" textLength="148.6812" x="905.38" y="324.5066">Composes answer from</text><text fill="#000000" font-family="sans-serif" font-size="13" lengthAdjust="spacing" textLength="119.5708" x="919.9352" y="339.8172">evidence pack only</text></g><!--link HELPDESK to GMN29--><g class="link" data-entity-1="HELPDESK" data-entity-2="GMN29" data-source-line="52" data-uid="lnk31" id="link_HELPDESK_GMN29"><path d="M676.32,266.8983 C775.28,277.9783 929.29,295.3483 1062.74,310.9383 C1292.16,337.7383 1349.43,345.1783 1578.74,372.9383 C1593.98,374.7883 1609.84,376.7083 1625.72,378.6383" fill="none" id="HELPDESK-GMN29" style="stroke:#181818;stroke-width:1;stroke-dasharray:7,7;"/></g><!--SRC=[fLHDZ-964BtxLvHc3xkhB1lDQ5TAE4GondneM62CDvSGHOrTc1PsjzFTdXaIvR-dkcs3pP1JJdnKzQkgL- -LuIP72Bx00fynXtiOmEQa3HOGI67mrS27fRyELb48CypB5FNne-Vf8nSbKwm0VM2fVE4YWptBDNOYIbOYJQGIgE3-eHl0n32HKTc_FO2HL2cgGEPImRk7qTU9Fw9_9rIy-Uz-yZ3vujjCbXmpXzf49ZzDHfE9zqy7coM68lyJD_GfP76z6kvk7Q-suiEwskKyWLWneKkf3AnAL8mIFju1qq19btp_LhvVcODKt9pQ1txxO6p9bmJd0kFmrpOmZpVjFkQqZipLSqdpPHnE8pzUHMrkp9CZ6hiAFqDXN5Oy3nx3sFCkdDzThxF1fuOd_jDWpvKsy0D4_jHkDDyHENMxit2n7eURHtWt3iAVYPyEfb-MIZvZ2bDkPjKE8YobvjGLHqt0Iup3rq4GBdzqtmYUaELBpgbm2bfMAa5TLvdEuzdtKHTxgbXv68zWWmKJXWZT42uIwaeOsbTsSd0y4mKDtQ94_desxi5OEIkPvwJ6Rp8bgKSLeHKMo38hp2UhM4lV9zYi_UXf0MNEXA0_QinWjOoZrM8HHdyi5jzwZ395U-5Il46UEbdHZ2I15wgSoC8HGxarwDAFQ8VprT9XUgGX60n-kN0z15yVDMWgbJAL4fcyA7EqezOL_wnGso-QtlettvQIL7YY3jAjiFLppaI20uKvi-nV04XsDm4C9WV14vPJyKQ3_SeNATvyRnyfAswsupcfVoke5qYnpEN93j91gkLwkujMtV_LXVSUObb2paweXlKXq60t8p8QqnhlBv802UzKq_pRWQSfYjyLpmw62bexEWwl0zQEZflhGCU2NGgkqreFlgURP8misXRfkA8IB0Vj3AXXHpVW1GwDBxqp0sT4khI201kFr1zlwxNYRpxV9bmfkV_pRVgLHYzjdLkX7KLeoEpFI9Gtjs0hQcD3AfFAUTDg49939Oxw2gNfT0XF5TgRGKOXZPO6Ccl-hTZJVTEj__6r93lHpliWLsCChGqTK6jxQgieZQxHkFEywyZQ7izcxuFsPYVCm1dOJbaRUa-OMu7Fd0YZKKkwbY05ISmJaa1tzSBb_Yndxr7GuSCqiy7AcleqF5FMda_LEPyExhCttyEv2hUUqjL-pnFk3bSj860xkXCK-UmXZMKRQDfmcxHTz5VPiSjtZOhUzGLwlkhD8djjMUOAT-vKVUwwPVy5]--></g></svg>
