<svg xmlns="http://www.w3.org/2000/svg" xmlns:xlink="http://www.w3.org/1999/xlink" contentStyleType="text/css" data-diagram-type="DESCRIPTION" height="796px" preserveAspectRatio="none" style="width:2391px;height:796px;background:#FFFFFF;" version="1.1" viewBox="0 0 2391 796" width="2391px" zoomAndPan="magnify"><title>C4 Level 2 - Container Diagram (NAPCORE Helpdesk)</title><defs/><g><g class="title" data-source-line="1"><text fill="#000000" font-family="sans-serif" font-size="14" font-weight="bold" lengthAdjust="spacing" textLength="385.5195" x="996.0702" y="23.5352">C4 Level 2 - Container Diagram (NAPCORE Helpdesk)</text></g><!--cluster SYSTEM--><g class="cluster" data-entity="SYSTEM" data-source-line="22" data-uid="ent0007" id="cluster_SYSTEM"><rect fill="#F8FBFF" height="600.15" rx="6" ry="6" style="stroke:#2B5FAB;stroke-width:1;" width="1571" x="814.66" y="190.4783"/><text fill="#1F2F4A" font-family="sans-serif" font-size="14" font-weight="bold" lengthAdjust="spacing" textLength="141.0459" x="1529.6371" y="206.0134">NAPCORE Helpdesk</text></g><!--entity GUI--><g class="entity" data-entity="GUI" data-source-line="23" data-uid="ent0008" id="entity_GUI"><rect fill="#EAF2FF" height="52.9766" rx="6" ry="6" style="stroke:#2B5FAB;stroke-width:0.5;" width="95.3115" x="1400" y="233.4783"/><text fill="#1F2F4A" font-family="sans-serif" font-size="14" lengthAdjust="spacing" textLength="56.8682" x="1410" y="257.0134">Web GUI</text><text fill="#1F2F4A" font-family="sans-serif" font-size="14" lengthAdjust="spacing" textLength="75.3115" x="1410" y="273.5017">(Container)</text></g><!--entity API--><g class="entity" data-entity="API" data-source-line="24" data-uid="ent0009" id="entity_API"><rect fill="#DCE9FF" height="69.4648" rx="6" ry="6" style="stroke:#2B5FAB;stroke-width:0.5;" width="213.0674" x="1341.12" y="363.4583"/><text fill="#1F2F4A" font-family="sans-serif" font-size="14" lengthAdjust="spacing" textLength="188.7949" x="1351.12" y="386.9934">Question API / Orchestrator</text><text fill="#1F2F4A" font-family="sans-serif" font-size="14" lengthAdjust="spacing" textLength="75.3115" x="1351.12" y="403.4817">(Container)</text><text fill="#1F2F4A" font-family="sans-serif" font-size="14" lengthAdjust="spacing" textLength="193.0674" x="1351.12" y="419.97">FAQ-first, then RAG fallback</text></g><!--entity FAQ--><g class="entity" data-entity="FAQ" data-source-line="25" data-uid="ent0010" id="entity_FAQ"><rect fill="#F0F6FF" height="69.4648" rx="6" ry="6" style="stroke:#2B5FAB;stroke-width:0.5;" width="245.668" x="1198.82" y="525.8083"/><text fill="#1F2F4A" font-family="sans-serif" font-size="14" lengthAdjust="spacing" textLength="79.8027" x="1208.82" y="549.3434">FAQ Service</text><text fill="#1F2F4A" font-family="sans-serif" font-size="14" lengthAdjust="spacing" textLength="75.3115" x="1208.82" y="565.8317">(Container)</text><text fill="#1F2F4A" font-family="sans-serif" font-size="14" lengthAdjust="spacing" textLength="225.668" x="1208.82" y="582.32">Approved FAQ lookup + versions</text></g><!--entity RETRIEVAL--><g class="entity" data-entity="RETRIEVAL" data-source-line="26" data-uid="ent0011" id="entity_RETRIEVAL"><rect fill="#F0F6FF" height="69.4648" rx="6" ry="6" style="stroke:#2B5FAB;stroke-width:0.5;" width="206.8125" x="2155.25" y="525.8083"/><text fill="#1F2F4A" font-family="sans-serif" font-size="14" lengthAdjust="spacing" textLength="110.25" x="2165.25" y="549.3434">Retrieval Service</text><text fill="#1F2F4A" font-family="sans-serif" font-size="14" lengthAdjust="spacing" textLength="75.3115" x="2165.25" y="565.8317">(Container)</text><text fill="#1F2F4A" font-family="sans-serif" font-size="14" lengthAdjust="spacing" textLength="186.8125" x="2165.25" y="582.32">Embedding + vector search</text></g><!--entity GUARDRAILS--><g class="entity" data-entity="GUARDRAILS" data-source-line="27" data-uid="ent0012" id="entity_GUARDRAILS"><rect fill="#F0F6FF" height="69.4648" rx="6" ry="6" style="stroke:#2B5FAB;stroke-width:0.5;" width="317.1377" x="847.09" y="525.8083"/><text fill="#1F2F4A" font-family="sans-serif" font-size="14" lengthAdjust="spacing" textLength="162.8252" x="857.09" y="549.3434">Generation &amp; Guardrails</text><text fill="#1F2F4A" font-family="sans-serif" font-size="14" lengthAdjust="spacing" textLength="75.3115" x="857.09" y="565.8317">(Container)</text><text fill="#1F2F4A" font-family="sans-serif" font-size="14" lengthAdjust="spacing" textLength="297.1377" x="857.09" y="582.32">Citation checks, support checks, abstention</text></g><!--entity EDITORIAL--><g class="entity" data-entity="EDITORIAL" data-source-line="28" data-uid="ent0013" id="entity_EDITORIAL"><rect fill="#F0F6FF" height="69.4648" rx="6" ry="6" style="stroke:#2B5FAB;stroke-width:0.5;" width="228.7012" x="1479.3" y="525.8083"/><text fill="#1F2F4A" font-family="sans-serif" font-size="14" lengthAdjust="spacing" textLength="175.0957" x="1489.3" y="549.3434">Editorial Workflow Service</text><text fill="#1F2F4A" font-family="sans-serif" font-size="14" lengthAdjust="spacing" textLength="75.3115" x="1489.3" y="565.8317">(Container)</text><text fill="#1F2F4A" font-family="sans-serif" font-size="14" lengthAdjust="spacing" textLength="208.7012" x="1489.3" y="582.32">Draft/Review/Approve/Publish</text></g><!--entity PG--><g class="entity" data-entity="PG" data-source-line="29" data-uid="ent0014" id="entity_PG"><path d="M1502.87,698.1683 C1502.87,688.1683 1605.6508,688.1683 1605.6508,688.1683 C1605.6508,688.1683 1708.4315,688.1683 1708.4315,698.1683 L1708.4315,756.6331 C1708.4315,766.6331 1605.6508,766.6331 1605.6508,766.6331 C1605.6508,766.6331 1502.87,766.6331 1502.87,756.6331 L1502.87,698.1683" fill="#EEF5FF" style="stroke:#181818;stroke-width:0.5;"/><path d="M1502.87,698.1683 C1502.87,708.1683 1605.6508,708.1683 1605.6508,708.1683 C1605.6508,708.1683 1708.4315,708.1683 1708.4315,698.1683" fill="none" style="stroke:#181818;stroke-width:0.5;"/><text fill="#000000" font-family="sans-serif" font-size="14" lengthAdjust="spacing" textLength="76.8496" x="1512.87" y="725.7034">PostgreSQL</text><text fill="#000000" font-family="sans-serif" font-size="14" lengthAdjust="spacing" textLength="79.625" x="1512.87" y="742.1917">(Data Store)</text><text fill="#000000" font-family="sans-serif" font-size="14" lengthAdjust="spacing" textLength="185.5615" x="1512.87" y="758.68">FAQ, events, evidence links</text></g><!--entity VDB--><g class="entity" data-entity="VDB" data-source-line="30" data-uid="ent0015" id="entity_VDB"><path d="M1968.9,698.1683 C1968.9,688.1683 2068.6559,688.1683 2068.6559,688.1683 C2068.6559,688.1683 2168.4117,688.1683 2168.4117,698.1683 L2168.4117,756.6331 C2168.4117,766.6331 2068.6559,766.6331 2068.6559,766.6331 C2068.6559,766.6331 1968.9,766.6331 1968.9,756.6331 L1968.9,698.1683" fill="#EEF5FF" style="stroke:#181818;stroke-width:0.5;"/><path d="M1968.9,698.1683 C1968.9,708.1683 2068.6559,708.1683 2068.6559,708.1683 C2068.6559,708.1683 2168.4117,708.1683 2168.4117,698.1683" fill="none" style="stroke:#181818;stroke-width:0.5;"/><text fill="#000000" font-family="sans-serif" font-size="14" lengthAdjust="spacing" textLength="86.0371" x="1978.9" y="725.7034">Vector Index</text><text fill="#000000" font-family="sans-serif" font-size="14" lengthAdjust="spacing" textLength="79.625" x="1978.9" y="742.1917">(Data Store)</text><text fill="#000000" font-family="sans-serif" font-size="14" lengthAdjust="spacing" textLength="179.5117" x="1978.9" y="758.68">Source chunk embeddings</text></g><!--entity INGEST--><g class="entity" data-entity="INGEST" data-source-line="31" data-uid="ent0016" id="entity_INGEST"><rect fill="#F0F6FF" height="69.4648" rx="6" ry="6" style="stroke:#2B5FAB;stroke-width:0.5;" width="170.042" x="1950.63" y="525.8083"/><text fill="#1F2F4A" font-family="sans-serif" font-size="14" lengthAdjust="spacing" textLength="115.4043" x="1960.63" y="549.3434">Ingestion Worker</text><text fill="#1F2F4A" font-family="sans-serif" font-size="14" lengthAdjust="spacing" textLength="75.3115" x="1960.63" y="565.8317">(Container)</text><text fill="#1F2F4A" font-family="sans-serif" font-size="14" lengthAdjust="spacing" textLength="150.042" x="1960.63" y="582.32">Sync + chunk + index</text></g><!--entity PTO--><g class="entity" data-entity="PTO" data-source-line="16" data-uid="ent0002" id="entity_PTO"><ellipse cx="1221.6534" cy="51.4883" fill="#EAF2FF" rx="8" ry="8" style="stroke:#2B5FAB;stroke-width:0.5;"/><path d="M1221.6534,59.4883 L1221.6534,86.4883 M1208.6534,67.4883 L1234.6534,67.4883 M1221.6534,86.4883 L1208.6534,101.4883 M1221.6534,86.4883 L1234.6534,101.4883" fill="none" style="stroke:#2B5FAB;stroke-width:0.5;"/><text fill="#1F2F4A" font-family="sans-serif" font-size="14" lengthAdjust="spacing" textLength="27.4668" x="1207.92" y="116.5234">PTO</text></g><!--entity PTA--><g class="entity" data-entity="PTA" data-source-line="17" data-uid="ent0003" id="entity_PTA"><ellipse cx="1317.66" cy="51.4883" fill="#EAF2FF" rx="8" ry="8" style="stroke:#2B5FAB;stroke-width:0.5;"/><path d="M1317.66,59.4883 L1317.66,86.4883 M1304.66,67.4883 L1330.66,67.4883 M1317.66,86.4883 L1304.66,101.4883 M1317.66,86.4883 L1330.66,101.4883" fill="none" style="stroke:#2B5FAB;stroke-width:0.5;"/><text fill="#1F2F4A" font-family="sans-serif" font-size="14" lengthAdjust="spacing" textLength="26.25" x="1304.535" y="116.5234">PTA</text></g><!--entity DEV--><g class="entity" data-entity="DEV" data-source-line="18" data-uid="ent0004" id="entity_DEV"><ellipse cx="1427.6592" cy="51.4883" fill="#EAF2FF" rx="8" ry="8" style="stroke:#2B5FAB;stroke-width:0.5;"/><path d="M1427.6592,59.4883 L1427.6592,86.4883 M1414.6592,67.4883 L1440.6592,67.4883 M1427.6592,86.4883 L1414.6592,101.4883 M1427.6592,86.4883 L1440.6592,101.4883" fill="none" style="stroke:#2B5FAB;stroke-width:0.5;"/><text fill="#1F2F4A" font-family="sans-serif" font-size="14" lengthAdjust="spacing" textLength="68.3184" x="1393.5" y="116.5234">Developer</text></g><!--entity INTEGRATOR--><g class="entity" data-entity="INTEGRATOR" data-source-line="19" data-uid="ent0005" id="entity_INTEGRATOR"><ellipse cx="1569.6573" cy="51.4883" fill="#EAF2FF" rx="8" ry="8" style="stroke:#2B5FAB;stroke-width:0.5;"/><path d="M1569.6573,59.4883 L1569.6573,86.4883 M1556.6573,67.4883 L1582.6573,67.4883 M1569.6573,86.4883 L1556.6573,101.4883 M1569.6573,86.4883 L1582.6573,101.4883" fill="none" style="stroke:#2B5FAB;stroke-width:0.5;"/><text fill="#1F2F4A" font-family="sans-serif" font-size="14" lengthAdjust="spacing" textLength="144.8945" x="1497.21" y="116.5234">ITS System Integrator</text></g><!--entity TICKET--><g class="entity" data-entity="TICKET" data-source-line="20" data-uid="ent0006" id="entity_TICKET"><ellipse cx="1730.6584" cy="51.4883" fill="#EAF2FF" rx="8" ry="8" style="stroke:#2B5FAB;stroke-width:0.5;"/><path d="M1730.6584,59.4883 L1730.6584,86.4883 M1717.6584,67.4883 L1743.6584,67.4883 M1730.6584,86.4883 L1717.6584,101.4883 M1730.6584,86.4883 L1743.6584,101.4883" fill="none" style="stroke:#2B5FAB;stroke-width:0.5;"/><text fill="#1F2F4A" font-family="sans-serif" font-size="14" lengthAdjust="spacing" textLength="107.2969" x="1677.01" y="116.5234">Ticketing Agent</text></g><!--entity GITHUB--><g class="entity" data-entity="GITHUB" data-source-line="34" data-uid="ent0017" id="entity_GITHUB"><rect fill="#F8FBFF" height="36.4883" rx="6" ry="6" style="stroke:#2B5FAB;stroke-width:0.5;" width="225.3105" x="7" y="709.1483"/><text fill="#1F2F4A" font-family="sans-serif" font-size="14" lengthAdjust="spacing" textLength="205.3105" x="17" y="732.6834">Approved GitHub Repositories</text></g><!--entity LLM--><g class="entity" data-entity="LLM" data-source-line="35" data-uid="ent0018" id="entity_LLM"><rect fill="#F8FBFF" height="36.4883" rx="6" ry="6" style="stroke:#2B5FAB;stroke-width:0.5;" width="132.9775" x="267.17" y="709.1483"/><text fill="#1F2F4A" font-family="sans-serif" font-size="14" lengthAdjust="spacing" textLength="112.9775" x="277.17" y="732.6834">LLM Provider API</text></g><g class="entity" data-entity="GMN45" data-source-line="71" data-uid="ent0046" id="entity_GMN45"><path d="M394.74,530.9183 L394.74,590.1605 A6,6 0 0 0 400.74,596.1605 L784.5754,596.1605 A6,6 0 0 0 790.5754,590.1605 L790.5754,534.9183 L780.5754,524.9183 L783.84,524.9183 L1340.67,419.2583 L775.84,524.9183 L400.74,524.9183 A6,6 0 0 0 394.74,530.9183" fill="#FEFFDD" style="stroke:#181818;stroke-width:0.5;"/><path d="M780.5754,524.9183 L780.5754,531.9183 A3,3 0 0 0 783.5754,534.9183 L790.5754,534.9183 L780.5754,524.9183" fill="#FEFFDD" style="stroke:#181818;stroke-width:0.5;"/><text fill="#000000" font-family="sans-serif" font-size="13" lengthAdjust="spacing" textLength="99.1948" x="400.74" y="542.4866">Decision policy:</text><text fill="#000000" font-family="sans-serif" font-size="13" lengthAdjust="spacing" textLength="331.9443" x="400.74" y="557.7972">1) FAQ high-confidence -&gt; return canonical answer.</text><text fill="#000000" font-family="sans-serif" font-size="13" lengthAdjust="spacing" textLength="212.8306" x="400.74" y="573.1077">2) Else run retrieval + generation.</text><text fill="#000000" font-family="sans-serif" font-size="13" lengthAdjust="spacing" textLength="374.8354" x="400.74" y="588.4183">3) If evidence insufficient or unsupported claim -&gt; abstain.</text></g><g class="entity" data-entity="GMN48" data-source-line="78" data-uid="ent0049" id="entity_GMN48"><path d="M434.86,713.0883 L434.86,723.3983 L400.41,727.3983 L434.86,731.3983 L434.86,741.7094 A6,6 0 0 0 440.86,747.7094 L784.4577,747.7094 A6,6 0 0 0 790.4577,741.7094 L790.4577,717.0883 L780.4577,707.0883 L440.86,707.0883 A6,6 0 0 0 434.86,713.0883" fill="#FEFFDD" style="stroke:#181818;stroke-width:0.5;"/><path d="M780.4577,707.0883 L780.4577,714.0883 A3,3 0 0 0 783.4577,717.0883 L790.4577,717.0883 L780.4577,707.0883" fill="#FEFFDD" style="stroke:#181818;stroke-width:0.5;"/><text fill="#000000" font-family="sans-serif" font-size="13" lengthAdjust="spacing" textLength="105.9551" x="440.86" y="724.6566">Top layer: Users.</text><text fill="#000000" font-family="sans-serif" font-size="13" lengthAdjust="spacing" textLength="334.5977" x="440.86" y="739.9672">Bottom layer: Approved source repositories and LLM.</text></g><!--link PTO to GUI--><g class="link" data-entity-1="PTO" data-entity-2="GUI" data-source-line="37" data-uid="lnk19" id="link_PTO_GUI"><path d="M1214.16,119.5983 C1213.11,136.1883 1215.49,154.5983 1227.66,166.4783 C1241.02,179.5383 1379.56,164.9783 1395.66,174.4783 C1417.46,187.3483 1429.1451,207.7261 1437.0351,227.4861" fill="none" id="PTO-to-GUI" style="stroke:#181818;stroke-width:1;"/><polygon fill="#181818" points="1439.26,233.0583,1439.6374,223.2167,1437.4059,228.4148,1432.2078,226.1832,1439.26,233.0583" style="stroke:#181818;stroke-width:1;"/><text fill="#000000" font-family="sans-serif" font-size="13" lengthAdjust="spacing" textLength="88.7275" x="1228.66" y="163.0466">Ask questions</text></g><!--link PTA to GUI--><g class="link" data-entity-1="PTA" data-entity-2="GUI" data-source-line="38" data-uid="lnk20" id="link_PTA_GUI"><path d="M1317.48,119.7483 C1319.43,136.3583 1324.75,154.7583 1337.66,166.4783 C1356.92,183.9783 1373.86,160.2583 1395.66,174.4783 C1416.72,188.2183 1428.3603,208.2307 1436.4603,227.6507" fill="none" id="PTA-to-GUI" style="stroke:#181818;stroke-width:1;"/><polygon fill="#181818" points="1438.77,233.1883,1438.9972,223.342,1436.8452,228.5736,1431.6137,226.4217,1438.77,233.1883" style="stroke:#181818;stroke-width:1;"/><text fill="#000000" font-family="sans-serif" font-size="13" lengthAdjust="spacing" textLength="88.7275" x="1338.66" y="163.0466">Ask questions</text></g><!--link DEV to GUI--><g class="link" data-entity-1="DEV" data-entity-2="GUI" data-source-line="39" data-uid="lnk21" id="link_DEV_GUI"><path d="M1431.9,119.7183 C1435.75,153.7583 1440.656,197.1263 1444.036,227.0263" fill="none" id="DEV-to-GUI" style="stroke:#181818;stroke-width:1;"/><polygon fill="#181818" points="1444.71,232.9883,1447.6737,223.5959,1444.1484,228.0199,1439.7244,224.4946,1444.71,232.9883" style="stroke:#181818;stroke-width:1;"/><text fill="#000000" font-family="sans-serif" font-size="13" lengthAdjust="spacing" textLength="88.7275" x="1438.06" y="163.0466">Ask questions</text></g><!--link INTEGRATOR to GUI--><g class="link" data-entity-1="INTEGRATOR" data-entity-2="GUI" data-source-line="40" data-uid="lnk22" id="link_INTEGRATOR_GUI"><path d="M1557.4,119.7483 C1551.63,134.8783 1543.95,152.1183 1534.66,166.4783 C1518.49,191.4683 1499.537,211.6931 1481.117,229.1331" fill="none" id="INTEGRATOR-to-GUI" style="stroke:#181818;stroke-width:1;"/><polygon fill="#181818" points="1476.76,233.2583,1486.0455,229.9752,1480.3908,229.8207,1480.5453,224.1659,1476.76,233.2583" style="stroke:#181818;stroke-width:1;"/><text fill="#000000" font-family="sans-serif" font-size="13" lengthAdjust="spacing" textLength="88.7275" x="1544.36" y="163.0466">Ask questions</text></g><!--link TICKET to GUI--><g class="link" data-entity-1="TICKET" data-entity-2="GUI" data-source-line="41" data-uid="lnk23" id="link_TICKET_GUI"><path d="M1696.08,119.8383 C1680.45,135.5083 1661.13,153.1183 1641.66,166.4783 C1595.35,198.2483 1542.0074,222.3912 1501.3174,238.7412" fill="none" id="TICKET-to-GUI" style="stroke:#181818;stroke-width:1;"/><polygon fill="#181818" points="1495.75,240.9783,1505.5924,241.3343,1500.3895,239.1141,1502.6097,233.9111,1495.75,240.9783" style="stroke:#181818;stroke-width:1;"/><text fill="#000000" font-family="sans-serif" font-size="13" lengthAdjust="spacing" textLength="88.7275" x="1663.97" y="163.0466">Ask questions</text></g><!--link PTO to PTA--><!--link PTA to DEV--><!--link DEV to INTEGRATOR--><!--link INTEGRATOR to TICKET--><!--link SYSTEM to GITHUB--><!--link GITHUB to LLM--><!--link GUI to API--><g class="link" data-entity-1="GUI" data-entity-2="API" data-source-line="53" data-uid="lnk30" id="link_GUI_API"><path d="M1447.66,286.9083 C1447.66,308.5283 1447.66,333.4783 1447.66,357.0983" fill="none" id="GUI-to-API" style="stroke:#181818;stroke-width:1;"/><polygon fill="#181818" points="1447.66,363.0983,1451.66,354.0983,1447.66,358.0983,1443.66,354.0983,1447.66,363.0983" style="stroke:#181818;stroke-width:1;"/><text fill="#000000" font-family="sans-serif" font-size="13" lengthAdjust="spacing" textLength="102.9146" x="1448.66" y="330.0266">Submit question</text></g><!--link API to FAQ--><g class="link" data-entity-1="API" data-entity-2="FAQ" data-source-line="54" data-uid="lnk31" id="link_API_FAQ"><path d="M1386.54,433.3983 C1375.13,441.8883 1364.14,451.7983 1355.66,462.9183 C1341.63,481.2983 1334.5653,500.1125 1329.5453,519.9025" fill="none" id="API-to-FAQ" style="stroke:#181818;stroke-width:1;"/><polygon fill="#181818" points="1328.07,525.7183,1334.1601,517.9781,1329.2994,520.8718,1326.4057,516.0111,1328.07,525.7183" style="stroke:#181818;stroke-width:1;"/><text fill="#000000" font-family="sans-serif" font-size="13" lengthAdjust="spacing" textLength="156.9268" x="1356.66" y="483.9866">Try canonical FAQ match</text></g><!--link API to RETRIEVAL--><g class="link" data-entity-1="API" data-entity-2="RETRIEVAL" data-source-line="55" data-uid="lnk32" id="link_API_RETRIEVAL"><path d="M1554.59,415.2083 C1690.97,436.4383 1933.73,476.8483 2138.66,524.9183 C2143.93,526.1583 2143.5042,526.013 2148.9442,527.393" fill="none" id="API-to-RETRIEVAL" style="stroke:#181818;stroke-width:1;"/><polygon fill="#181818" points="2154.76,528.8683,2147.0199,522.7781,2149.9135,527.6388,2145.0528,530.5325,2154.76,528.8683" style="stroke:#181818;stroke-width:1;"/><text fill="#000000" font-family="sans-serif" font-size="13" lengthAdjust="spacing" textLength="158.4629" x="1989.32" y="483.9866">Fallback retrieval request</text></g><!--link API to GUARDRAILS--><g class="link" data-entity-1="API" data-entity-2="GUARDRAILS" data-source-line="56" data-uid="lnk33" id="link_API_GUARDRAILS"><path d="M1340.78,420.4783 C1295.05,431.0183 1241.5,445.3083 1194.66,462.9183 C1149.3,479.9783 1105.9153,502.0952 1069.3453,522.4052" fill="none" id="API-to-GUARDRAILS" style="stroke:#181818;stroke-width:1;"/><polygon fill="#181818" points="1064.1,525.3183,1073.9101,524.4455,1068.4711,522.8907,1070.0259,517.4517,1064.1,525.3183" style="stroke:#181818;stroke-width:1;"/><text fill="#000000" font-family="sans-serif" font-size="13" lengthAdjust="spacing" textLength="134.3862" x="1195.66" y="476.4866">Grounded generation</text><text fill="#000000" font-family="sans-serif" font-size="13" lengthAdjust="spacing" textLength="89.0005" x="1218.3529" y="491.7972">and validation</text></g><!--link API to EDITORIAL--><g class="link" data-entity-1="API" data-entity-2="EDITORIAL" data-source-line="57" data-uid="lnk34" id="link_API_EDITORIAL"><path d="M1487.26,433.1483 C1497.48,442.4783 1508.25,452.8183 1517.66,462.9183 C1535.97,482.6083 1551.068,501.5198 1565.338,520.5298" fill="none" id="API-to-EDITORIAL" style="stroke:#181818;stroke-width:1;"/><polygon fill="#181818" points="1568.94,525.3283,1566.736,515.7292,1565.9383,521.3295,1560.338,520.5319,1568.94,525.3283" style="stroke:#181818;stroke-width:1;"/><text fill="#000000" font-family="sans-serif" font-size="13" lengthAdjust="spacing" textLength="138.417" x="1545.16" y="476.4866">Route low-confidence</text><text fill="#000000" font-family="sans-serif" font-size="13" lengthAdjust="spacing" textLength="119.9644" x="1554.3863" y="491.7972">or flagged answers</text></g><!--link API to PG--><g class="link" data-entity-1="API" data-entity-2="PG" data-source-line="58" data-uid="lnk35" id="link_API_PG"><path d="M1554.48,407.7183 C1600.9,415.9883 1653.5,432.0183 1692.66,462.9183 C1717.16,482.2583 1718.1,494.6383 1725.66,524.9183 C1733.32,555.6383 1739.98,567.9283 1725.66,596.1683 C1715.44,616.2983 1697.79,607.7983 1684.66,626.1683 C1675.99,638.2783 1682.4,645.4383 1674.66,658.1683 C1668.26,668.6683 1664.0604,674.4049 1655.3804,683.4249" fill="none" id="API-to-PG" style="stroke:#181818;stroke-width:1;"/><polygon fill="#181818" points="1651.22,687.7483,1660.3428,684.0369,1654.687,684.1455,1654.5783,678.4897,1651.22,687.7483" style="stroke:#181818;stroke-width:1;"/><text fill="#000000" font-family="sans-serif" font-size="13" lengthAdjust="spacing" textLength="136.2017" x="1735.08" y="558.1066">Store question events</text><text fill="#000000" font-family="sans-serif" font-size="13" lengthAdjust="spacing" textLength="89.1084" x="1758.6266" y="573.4172">and outcomes</text></g><!--link FAQ to PG--><g class="link" data-entity-1="FAQ" data-entity-2="PG" data-source-line="60" data-uid="lnk36" id="link_FAQ_PG"><path d="M1331.21,595.4983 C1338.73,616.3583 1351.25,642.0783 1370.66,658.1683 C1407.7,688.8683 1452.0865,704.5329 1496.6165,713.8229" fill="none" id="FAQ-to-PG" style="stroke:#181818;stroke-width:1;"/><polygon fill="#181818" points="1502.49,715.0483,1494.4966,709.2945,1497.5954,714.0271,1492.8628,717.1259,1502.49,715.0483" style="stroke:#181818;stroke-width:1;"/><text fill="#000000" font-family="sans-serif" font-size="13" lengthAdjust="spacing" textLength="146.2246" x="1371.66" y="639.7366">Read/write FAQ entries</text><text fill="#000000" font-family="sans-serif" font-size="13" lengthAdjust="spacing" textLength="79.8979" x="1404.8233" y="655.0472">and versions</text></g><!--link RETRIEVAL to VDB--><g class="link" data-entity-1="RETRIEVAL" data-entity-2="VDB" data-source-line="61" data-uid="lnk37" id="link_RETRIEVAL_VDB"><path d="M2241.69,595.4283 C2230.4,615.4883 2214.1,640.3683 2194.66,658.1683 C2182.54,669.2483 2173.4578,676.0828 2158.9878,684.6828" fill="none" id="RETRIEVAL-to-VDB" style="stroke:#181818;stroke-width:1;"/><polygon fill="#181818" points="2153.83,687.7483,2163.6103,686.5886,2158.1282,685.1937,2159.5231,679.7116,2153.83,687.7483" style="stroke:#181818;stroke-width:1;"/><text fill="#000000" font-family="sans-serif" font-size="13" lengthAdjust="spacing" textLength="126.9849" x="2222.62" y="647.2366">Query top-k chunks</text></g><!--link RETRIEVAL to PG--><g class="link" data-entity-1="RETRIEVAL" data-entity-2="PG" data-source-line="62" data-uid="lnk38" id="link_RETRIEVAL_PG"><path d="M2154.87,593.3083 C2112.19,606.7983 2070.59,620.6783 2061.66,626.1683 C2044.52,636.6983 2047.56,649.0083 2029.66,658.1683 C1975.05,686.0683 1821.5192,705.6815 1714.4792,716.5615" fill="none" id="RETRIEVAL-to-PG" style="stroke:#181818;stroke-width:1;"/><polygon fill="#181818" points="1708.51,717.1683,1717.8684,720.2377,1713.4844,716.6627,1717.0594,712.2787,1708.51,717.1683" style="stroke:#181818;stroke-width:1;"/><text fill="#000000" font-family="sans-serif" font-size="13" lengthAdjust="spacing" textLength="123.4302" x="2062.66" y="647.2366">Log retrieval events</text></g><!--link GUARDRAILS to LLM--><g class="link" data-entity-1="GUARDRAILS" data-entity-2="LLM" data-source-line="63" data-uid="lnk39" id="link_GUARDRAILS_LLM"><path d="M846.65,590.1383 C833.47,592.2683 820.34,594.3083 807.66,596.1683 C695.18,612.6283 663.13,595.5683 553.66,626.1683 C482.71,645.9883 410.8946,682.8238 369.4346,705.8638" fill="none" id="GUARDRAILS-to-LLM" style="stroke:#181818;stroke-width:1;"/><polygon fill="#181818" points="364.19,708.7783,373.9999,707.9029,368.5605,706.3495,370.1139,700.9101,364.19,708.7783" style="stroke:#181818;stroke-width:1;"/><text fill="#000000" font-family="sans-serif" font-size="13" lengthAdjust="spacing" textLength="139.4517" x="554.66" y="639.7366">Generate answer from</text><text fill="#000000" font-family="sans-serif" font-size="13" lengthAdjust="spacing" textLength="138.3789" x="555.1964" y="655.0472">retrieved context only</text></g><!--link GUARDRAILS to PG--><g class="link" data-entity-1="GUARDRAILS" data-entity-2="PG" data-source-line="64" data-uid="lnk40" id="link_GUARDRAILS_PG"><path d="M1064.77,595.7483 C1103.42,616.7183 1155.65,642.4483 1204.66,658.1683 C1303.17,689.7483 1414.2992,706.8439 1496.4292,716.2739" fill="none" id="GUARDRAILS-to-PG" style="stroke:#181818;stroke-width:1;"/><polygon fill="#181818" points="1502.39,716.9583,1493.905,711.9578,1497.4226,716.3879,1492.9925,719.9056,1502.39,716.9583" style="stroke:#181818;stroke-width:1;"/><text fill="#000000" font-family="sans-serif" font-size="13" lengthAdjust="spacing" textLength="125.4614" x="1208.107" y="639.7366">Write evidence links</text><text fill="#000000" font-family="sans-serif" font-size="13" lengthAdjust="spacing" textLength="130.3555" x="1205.66" y="655.0472">and policy outcomes</text></g><!--link EDITORIAL to PG--><g class="link" data-entity-1="EDITORIAL" data-entity-2="PG" data-source-line="65" data-uid="lnk41" id="link_EDITORIAL_PG"><path d="M1550.33,595.7083 C1533.27,613.5083 1519.82,636.1083 1529.66,658.1683 C1534.57,669.1783 1538.0144,674.8788 1546.6244,683.5988" fill="none" id="EDITORIAL-to-PG" style="stroke:#181818;stroke-width:1;"/><polygon fill="#181818" points="1550.84,687.8683,1547.3629,678.6536,1547.327,684.3104,1541.6702,684.2745,1550.84,687.8683" style="stroke:#181818;stroke-width:1;"/><text fill="#000000" font-family="sans-serif" font-size="13" lengthAdjust="spacing" textLength="139.8516" x="1530.66" y="647.2366">Store review decisions</text></g><!--link INGEST to GITHUB--><g class="link" data-entity-1="INGEST" data-entity-2="GITHUB" data-source-line="66" data-uid="lnk42" id="link_INGEST_GITHUB"><path d="M1950.31,590.4883 C1941.39,592.7383 1932.39,594.7083 1923.66,596.1683 C1714.45,631.1283 1181.17,610.3783 969.66,626.1683 C848.71,635.1883 819.42,647.0083 698.66,658.1683 C499.5,676.5583 446.55,653.0683 249.66,688.1683 C223.02,692.9083 199.7964,699.2853 175.9964,706.8753" fill="none" id="INGEST-to-GITHUB" style="stroke:#181818;stroke-width:1;"/><polygon fill="#181818" points="170.28,708.6983,180.0699,709.7747,175.0436,707.1791,177.6392,702.1529,170.28,708.6983" style="stroke:#181818;stroke-width:1;"/><text fill="#000000" font-family="sans-serif" font-size="13" lengthAdjust="spacing" textLength="146.6499" x="970.66" y="647.2366">Pull allowlisted sources</text></g><!--link INGEST to VDB--><g class="link" data-entity-1="INGEST" data-entity-2="VDB" data-source-line="67" data-uid="lnk43" id="link_INGEST_VDB"><path d="M1950.43,587.8783 C1912.51,604.3483 1880.46,628.1583 1900.66,658.1683 C1916.57,681.7983 1936.6126,695.1135 1963.1426,705.2135" fill="none" id="INGEST-to-VDB" style="stroke:#181818;stroke-width:1;"/><polygon fill="#181818" points="1968.75,707.3483,1961.7621,700.4079,1964.0772,705.5693,1958.9157,707.8844,1968.75,707.3483" style="stroke:#181818;stroke-width:1;"/><text fill="#000000" font-family="sans-serif" font-size="13" lengthAdjust="spacing" textLength="123.0811" x="1901.66" y="647.2366">Upsert embeddings</text></g><!--link INGEST to PG--><g class="link" data-entity-1="INGEST" data-entity-2="PG" data-source-line="68" data-uid="lnk44" id="link_INGEST_PG"><path d="M1950.37,589.1983 C1941.4,591.7283 1932.37,594.0983 1923.66,596.1683 C1844.73,614.8483 1818.46,594.8283 1743.66,626.1683 C1708.42,640.9183 1678.2715,662.4198 1652.4415,683.9198" fill="none" id="INGEST-to-PG" style="stroke:#181818;stroke-width:1;"/><polygon fill="#181818" points="1647.83,687.7583,1657.3063,685.0749,1651.6729,684.5596,1652.1883,678.9262,1647.83,687.7583" style="stroke:#181818;stroke-width:1;"/><text fill="#000000" font-family="sans-serif" font-size="13" lengthAdjust="spacing" textLength="141.3623" x="1744.66" y="647.2366">Store source metadata</text></g><!--SRC=[fLPHRzj637xNho1QO6sGE5cpTjZyC42n9KUOsxYoac1Ozd2MQFjW-KwzEzdDXlxtyUvaMTQQfpqP8NaVoO_afnXkIeJHUvZY3akuXW6Cf32C2rGmvcobs1RUVWfdexiqWbiigmBrvYm8z8QBYbclNhD2xhbOmPAL6ZiU9MjHv59Ph7VNNGVcXeaLPVud0BYHga0ragLKyFhwvaCStf0rfZ8QsxluEduVsaYMRrOEjV74lyGtSHnyws2pt93dV-968RaiRk3XNisokrV0DD3lqHGsfl1W6biIPONAESRHmy6HP7EOFsk3MqY4GMALp2ue-PH5apJCxj93RCRp3HhBPxX2OLnKben-Zx8WE1BtgZyJ5pV_Ovv57rttdT17NC3aFdaIRzlPdhbmChQzdhpuNACsN0e8PmbSmPtArsHmLP-WF8au_3nOSgND1PWr2aZ3YTs3Sa6KkXmMuVLu5FtQpq4lOOvgntFiOOPLfUGE2x0XfPIRke9psA7IL99sgDRpElun_hcFcg9H77UiV04xsYwmA2ox5j4nhf5HVmusZR8qYHx2wVV19qWWp17p0qngfWh5UAbxAKRS-1WYBT_e2z1rLKbbsh_PWZP1s91c2c4wJiDaElz-rgZWL2QdbXwbsYnBkN-Xjx5YItELuexZ_geXyMfMBqgkVNlHEA55IqxQAvXX2wOfpqngir8u_pmbt36POKvvqG_v0cYtXT7sbnSeSeIIYusVncn2QnJ57tg03vxVH1JujGyvbxKYZ7nTYmtWOIWUxc5yqy7hC968LRENbWdix-ByMUGqLezv3jpcROvi4ispjkbl9uVKRjk4czjw0IbMKZl6qPSpIRBR-vlka-dq8ype4H6Xx8AxC3860Ua330Q_kSiQGgWtyAKv9Ks-y4KVQSMBlgD4l1ZYzU55T_06Cbb1oPvH3Rr2Qc1AKJlKzvfQ_TlIM9RFle4_rxoW6V-b-6fj2DDAdAk-xx0IvqhlEpgorYs_7tRGjJSariR8xQ54_6fG2TfuxKHJmmBTsZjv2ngLQz7eyoDivtvE_kU_kTnyB3kM9QjAGvZNYoqtBL61jLglLPSXPEePSYQau3bLOcrRPl9r6tKKYo74ZUJHjXxqHw73RSCxPpw4YVlQ4FchLbAU11C5q4jUi9DgZbSxX5JMXYvFxWUv54j_Y4-2ZcnPifKT9XDwJqBPFgRJ7FgZQzjiBjdd8xnSRf5sn3ROlaYH5LTxnIcPjLEyFOUcn4Q8WoC1zfszsY7GbuDeCx8QRFmXziCS_5IkEapvUe8EGGC_BqkKvmURnc2fvFP9D6-fNwB1qBQ05BIyFGINwj4rSIfQlezAbZn_FZ9mvBb7d7AA2WNcN3SNwVHaq2uTXSxgiWJQ0hadkJLKcNOATnBiARglDDBNu2XwtP1EMWy0MpJCQceG24cTBFoXoANTuM3SrDGqCmpUdRc1hMdfEoi2X4oSrKfqDjepUXbSdq54_xY1gaLdAEUTrRmCVZg3P7baaGjTBvSyvpGueEshHVEDinCf6T_QXFOpHz9y6I2HRMjlEd07QHkm5zdHfNkYHLy6fqhGgdF3XkgeCzWf4aWdmxy0]--></g></svg>