<svg xmlns="http://www.w3.org/2000/svg" xmlns:xlink="http://www.w3.org/1999/xlink" contentStyleType="text/css" data-diagram-type="DESCRIPTION" height="796px" preserveAspectRatio="none" style="width:2507px;height:796px;background:#FFFFFF;" version="1.1" viewBox="0 0 2507 796" width="2507px" zoomAndPan="magnify"><title>C4 Level 2 - Container Diagram (NAPCORE Helpdesk)</title><defs/><g><g class="title" data-source-line="1"><text fill="#000000" font-family="sans-serif" font-size="14" font-weight="bold" lengthAdjust="spacing" textLength="385.5195" x="1054.0702" y="23.5352">C4 Level 2 - Container Diagram (NAPCORE Helpdesk)</text></g><!--cluster SYSTEM--><g class="cluster" data-entity="SYSTEM" data-source-line="22" data-uid="ent0007" id="cluster_SYSTEM"><rect fill="#F8FBFF" height="600.15" rx="6" ry="6" style="stroke:#2B5FAB;stroke-width:1;" width="1687" x="814.66" y="190.4783"/><text fill="#1F2F4A" font-family="sans-serif" font-size="14" font-weight="bold" lengthAdjust="spacing" textLength="141.0459" x="1587.6371" y="206.0134">NAPCORE Helpdesk</text></g><!--entity GUI--><g class="entity" data-entity="GUI" data-source-line="23" data-uid="ent0008" id="entity_GUI"><rect fill="#EAF2FF" height="52.9766" rx="6" ry="6" style="stroke:#2B5FAB;stroke-width:0.5;" width="95.3115" x="1400" y="233.4783"/><text fill="#1F2F4A" font-family="sans-serif" font-size="14" lengthAdjust="spacing" textLength="56.8682" x="1410" y="257.0134">Web GUI</text><text fill="#1F2F4A" font-family="sans-serif" font-size="14" lengthAdjust="spacing" textLength="75.3115" x="1410" y="273.5017">(Container)</text></g><!--entity API--><g class="entity" data-entity="API" data-source-line="24" data-uid="ent0009" id="entity_API"><rect fill="#DCE9FF" height="69.4648" rx="6" ry="6" style="stroke:#2B5FAB;stroke-width:0.5;" width="213.0674" x="1341.12" y="363.4583"/><text fill="#1F2F4A" font-family="sans-serif" font-size="14" lengthAdjust="spacing" textLength="188.7949" x="1351.12" y="386.9934">Question API / Orchestrator</text><text fill="#1F2F4A" font-family="sans-serif" font-size="14" lengthAdjust="spacing" textLength="75.3115" x="1351.12" y="403.4817">(Container)</text><text fill="#1F2F4A" font-family="sans-serif" font-size="14" lengthAdjust="spacing" textLength="193.0674" x="1351.12" y="419.97">FAQ-first, then RAG fallback</text></g><!--entity FAQ--><g class="entity" data-entity="FAQ" data-source-line="25" data-uid="ent0010" id="entity_FAQ"><rect fill="#F0F6FF" height="69.4648" rx="6" ry="6" style="stroke:#2B5FAB;stroke-width:0.5;" width="245.668" x="1198.82" y="525.8083"/><text fill="#1F2F4A" font-family="sans-serif" font-size="14" lengthAdjust="spacing" textLength="79.8027" x="1208.82" y="549.3434">FAQ Service</text><text fill="#1F2F4A" font-family="sans-serif" font-size="14" lengthAdjust="spacing" textLength="75.3115" x="1208.82" y="565.8317">(Container)</text><text fill="#1F2F4A" font-family="sans-serif" font-size="14" lengthAdjust="spacing" textLength="225.668" x="1208.82" y="582.32">Approved FAQ lookup + versions</text></g><!--entity RETRIEVAL--><g class="entity" data-entity="RETRIEVAL" data-source-line="26" data-uid="ent0011" id="entity_RETRIEVAL"><rect fill="#F0F6FF" height="69.4648" rx="6" ry="6" style="stroke:#2B5FAB;stroke-width:0.5;" width="206.8125" x="2155.25" y="525.8083"/><text fill="#1F2F4A" font-family="sans-serif" font-size="14" lengthAdjust="spacing" textLength="110.25" x="2165.25" y="549.3434">Retrieval Service</text><text fill="#1F2F4A" font-family="sans-serif" font-size="14" lengthAdjust="spacing" textLength="75.3115" x="2165.25" y="565.8317">(Container)</text><text fill="#1F2F4A" font-family="sans-serif" font-size="14" lengthAdjust="spacing" textLength="186.8125" x="2165.25" y="582.32">Embedding + vector search</text></g><!--entity GUARDRAILS--><g class="entity" data-entity="GUARDRAILS" data-source-line="27" data-uid="ent0012" id="entity_GUARDRAILS"><rect fill="#F0F6FF" height="69.4648" rx="6" ry="6" style="stroke:#2B5FAB;stroke-width:0.5;" width="317.1377" x="847.09" y="525.8083"/><text fill="#1F2F4A" font-family="sans-serif" font-size="14" lengthAdjust="spacing" textLength="162.8252" x="857.09" y="549.3434">Generation &amp; Guardrails</text><text fill="#1F2F4A" font-family="sans-serif" font-size="14" lengthAdjust="spacing" textLength="75.3115" x="857.09" y="565.8317">(Container)</text><text fill="#1F2F4A" font-family="sans-serif" font-size="14" lengthAdjust="spacing" textLength="297.1377" x="857.09" y="582.32">Citation checks, support checks, abstention</text></g><!--entity EDITORIAL--><g class="entity" data-entity="EDITORIAL" data-source-line="28" data-uid="ent0013" id="entity_EDITORIAL"><rect fill="#F0F6FF" height="69.4648" rx="6" ry="6" style="stroke:#2B5FAB;stroke-width:0.5;" width="228.7012" x="1479.3" y="525.8083"/><text fill="#1F2F4A" font-family="sans-serif" font-size="14" lengthAdjust="spacing" textLength="175.0957" x="1489.3" y="549.3434">Editorial Workflow Service</text><text fill="#1F2F4A" font-family="sans-serif" font-size="14" lengthAdjust="spacing" textLength="75.3115" x="1489.3" y="565.8317">(Container)</text><text fill="#1F2F4A" font-family="sans-serif" font-size="14" lengthAdjust="spacing" textLength="208.7012" x="1489.3" y="582.32">Draft/Review/Approve/Publish</text></g><!--entity PG--><g class="entity" data-entity="PG" data-source-line="29" data-uid="ent0014" id="entity_PG"><path d="M1211.87,698.1683 C1211.87,688.1683 1314.6508,688.1683 1314.6508,688.1683 C1314.6508,688.1683 1417.4315,688.1683 1417.4315,698.1683 L1417.4315,756.6331 C1417.4315,766.6331 1314.6508,766.6331 1314.6508,766.6331 C1314.6508,766.6331 1211.87,766.6331 1211.87,756.6331 L1211.87,698.1683" fill="#EEF5FF" style="stroke:#181818;stroke-width:0.5;"/><path d="M1211.87,698.1683 C1211.87,708.1683 1314.6508,708.1683 1314.6508,708.1683 C1314.6508,708.1683 1417.4315,708.1683 1417.4315,698.1683" fill="none" style="stroke:#181818;stroke-width:0.5;"/><text fill="#000000" font-family="sans-serif" font-size="14" lengthAdjust="spacing" textLength="76.8496" x="1221.87" y="725.7034">PostgreSQL</text><text fill="#000000" font-family="sans-serif" font-size="14" lengthAdjust="spacing" textLength="79.625" x="1221.87" y="742.1917">(Data Store)</text><text fill="#000000" font-family="sans-serif" font-size="14" lengthAdjust="spacing" textLength="185.5615" x="1221.87" y="758.68">FAQ, events, evidence links</text></g><!--entity VDB--><g class="entity" data-entity="VDB" data-source-line="30" data-uid="ent0015" id="entity_VDB"><path d="M2043.9,698.1683 C2043.9,688.1683 2143.6559,688.1683 2143.6559,688.1683 C2143.6559,688.1683 2243.4117,688.1683 2243.4117,698.1683 L2243.4117,756.6331 C2243.4117,766.6331 2143.6559,766.6331 2143.6559,766.6331 C2143.6559,766.6331 2043.9,766.6331 2043.9,756.6331 L2043.9,698.1683" fill="#EEF5FF" style="stroke:#181818;stroke-width:0.5;"/><path d="M2043.9,698.1683 C2043.9,708.1683 2143.6559,708.1683 2143.6559,708.1683 C2143.6559,708.1683 2243.4117,708.1683 2243.4117,698.1683" fill="none" style="stroke:#181818;stroke-width:0.5;"/><text fill="#000000" font-family="sans-serif" font-size="14" lengthAdjust="spacing" textLength="86.0371" x="2053.9" y="725.7034">Vector Index</text><text fill="#000000" font-family="sans-serif" font-size="14" lengthAdjust="spacing" textLength="79.625" x="2053.9" y="742.1917">(Data Store)</text><text fill="#000000" font-family="sans-serif" font-size="14" lengthAdjust="spacing" textLength="179.5117" x="2053.9" y="758.68">Source chunk embeddings</text></g><!--entity SDB--><g class="entity" data-entity="SDB" data-source-line="31" data-uid="ent0016" id="entity_SDB"><path d="M1528.14,698.1683 C1528.14,688.1683 1647.6517,688.1683 1647.6517,688.1683 C1647.6517,688.1683 1767.1634,688.1683 1767.1634,698.1683 L1767.1634,756.6331 C1767.1634,766.6331 1647.6517,766.6331 1647.6517,766.6331 C1647.6517,766.6331 1528.14,766.6331 1528.14,756.6331 L1528.14,698.1683" fill="#EEF5FF" style="stroke:#181818;stroke-width:0.5;"/><path d="M1528.14,698.1683 C1528.14,708.1683 1647.6517,708.1683 1647.6517,708.1683 C1647.6517,708.1683 1767.1634,708.1683 1767.1634,698.1683" fill="none" style="stroke:#181818;stroke-width:0.5;"/><text fill="#000000" font-family="sans-serif" font-size="14" lengthAdjust="spacing" textLength="146.125" x="1538.14" y="725.7034">Semantic Graph Store</text><text fill="#000000" font-family="sans-serif" font-size="14" lengthAdjust="spacing" textLength="79.625" x="1538.14" y="742.1917">(Data Store)</text><text fill="#000000" font-family="sans-serif" font-size="14" lengthAdjust="spacing" textLength="219.0234" x="1538.14" y="758.68">GraphDB ontology + alignments</text></g><!--entity INGEST--><g class="entity" data-entity="INGEST" data-source-line="32" data-uid="ent0017" id="entity_INGEST"><rect fill="#F0F6FF" height="69.4648" rx="6" ry="6" style="stroke:#2B5FAB;stroke-width:0.5;" width="170.042" x="1950.63" y="525.8083"/><text fill="#1F2F4A" font-family="sans-serif" font-size="14" lengthAdjust="spacing" textLength="115.4043" x="1960.63" y="549.3434">Ingestion Worker</text><text fill="#1F2F4A" font-family="sans-serif" font-size="14" lengthAdjust="spacing" textLength="75.3115" x="1960.63" y="565.8317">(Container)</text><text fill="#1F2F4A" font-family="sans-serif" font-size="14" lengthAdjust="spacing" textLength="150.042" x="1960.63" y="582.32">Sync + chunk + index</text></g><!--entity PTO--><g class="entity" data-entity="PTO" data-source-line="16" data-uid="ent0002" id="entity_PTO"><ellipse cx="1221.6534" cy="51.4883" fill="#EAF2FF" rx="8" ry="8" style="stroke:#2B5FAB;stroke-width:0.5;"/><path d="M1221.6534,59.4883 L1221.6534,86.4883 M1208.6534,67.4883 L1234.6534,67.4883 M1221.6534,86.4883 L1208.6534,101.4883 M1221.6534,86.4883 L1234.6534,101.4883" fill="none" style="stroke:#2B5FAB;stroke-width:0.5;"/><text fill="#1F2F4A" font-family="sans-serif" font-size="14" lengthAdjust="spacing" textLength="27.4668" x="1207.92" y="116.5234">PTO</text></g><!--entity PTA--><g class="entity" data-entity="PTA" data-source-line="17" data-uid="ent0003" id="entity_PTA"><ellipse cx="1317.66" cy="51.4883" fill="#EAF2FF" rx="8" ry="8" style="stroke:#2B5FAB;stroke-width:0.5;"/><path d="M1317.66,59.4883 L1317.66,86.4883 M1304.66,67.4883 L1330.66,67.4883 M1317.66,86.4883 L1304.66,101.4883 M1317.66,86.4883 L1330.66,101.4883" fill="none" style="stroke:#2B5FAB;stroke-width:0.5;"/><text fill="#1F2F4A" font-family="sans-serif" font-size="14" lengthAdjust="spacing" textLength="26.25" x="1304.535" y="116.5234">PTA</text></g><!--entity DEV--><g class="entity" data-entity="DEV" data-source-line="18" data-uid="ent0004" id="entity_DEV"><ellipse cx="1427.6592" cy="51.4883" fill="#EAF2FF" rx="8" ry="8" style="stroke:#2B5FAB;stroke-width:0.5;"/><path d="M1427.6592,59.4883 L1427.6592,86.4883 M1414.6592,67.4883 L1440.6592,67.4883 M1427.6592,86.4883 L1414.6592,101.4883 M1427.6592,86.4883 L1440.6592,101.4883" fill="none" style="stroke:#2B5FAB;stroke-width:0.5;"/><text fill="#1F2F4A" font-family="sans-serif" font-size="14" lengthAdjust="spacing" textLength="68.3184" x="1393.5" y="116.5234">Developer</text></g><!--entity INTEGRATOR--><g class="entity" data-entity="INTEGRATOR" data-source-line="19" data-uid="ent0005" id="entity_INTEGRATOR"><ellipse cx="1569.6573" cy="51.4883" fill="#EAF2FF" rx="8" ry="8" style="stroke:#2B5FAB;stroke-width:0.5;"/><path d="M1569.6573,59.4883 L1569.6573,86.4883 M1556.6573,67.4883 L1582.6573,67.4883 M1569.6573,86.4883 L1556.6573,101.4883 M1569.6573,86.4883 L1582.6573,101.4883" fill="none" style="stroke:#2B5FAB;stroke-width:0.5;"/><text fill="#1F2F4A" font-family="sans-serif" font-size="14" lengthAdjust="spacing" textLength="144.8945" x="1497.21" y="116.5234">ITS System Integrator</text></g><!--entity TICKET--><g class="entity" data-entity="TICKET" data-source-line="20" data-uid="ent0006" id="entity_TICKET"><ellipse cx="1730.6584" cy="51.4883" fill="#EAF2FF" rx="8" ry="8" style="stroke:#2B5FAB;stroke-width:0.5;"/><path d="M1730.6584,59.4883 L1730.6584,86.4883 M1717.6584,67.4883 L1743.6584,67.4883 M1730.6584,86.4883 L1717.6584,101.4883 M1730.6584,86.4883 L1743.6584,101.4883" fill="none" style="stroke:#2B5FAB;stroke-width:0.5;"/><text fill="#1F2F4A" font-family="sans-serif" font-size="14" lengthAdjust="spacing" textLength="107.2969" x="1677.01" y="116.5234">Ticketing Agent</text></g><!--entity GITHUB--><g class="entity" data-entity="GITHUB" data-source-line="35" data-uid="ent0018" id="entity_GITHUB"><rect fill="#F8FBFF" height="36.4883" rx="6" ry="6" style="stroke:#2B5FAB;stroke-width:0.5;" width="225.3105" x="7" y="709.1483"/><text fill="#1F2F4A" font-family="sans-serif" font-size="14" lengthAdjust="spacing" textLength="205.3105" x="17" y="732.6834">Approved GitHub Repositories</text></g><!--entity LLM--><g class="entity" data-entity="LLM" data-source-line="36" data-uid="ent0019" id="entity_LLM"><rect fill="#F8FBFF" height="36.4883" rx="6" ry="6" style="stroke:#2B5FAB;stroke-width:0.5;" width="132.9775" x="267.17" y="709.1483"/><text fill="#1F2F4A" font-family="sans-serif" font-size="14" lengthAdjust="spacing" textLength="112.9775" x="277.17" y="732.6834">LLM Provider API</text></g><g class="entity" data-entity="GMN48" data-source-line="74" data-uid="ent0049" id="entity_GMN48"><path d="M394.74,530.9183 L394.74,590.1605 A6,6 0 0 0 400.74,596.1605 L784.5754,596.1605 A6,6 0 0 0 790.5754,590.1605 L790.5754,534.9183 L780.5754,524.9183 L783.84,524.9183 L1340.67,419.2583 L775.84,524.9183 L400.74,524.9183 A6,6 0 0 0 394.74,530.9183" fill="#FEFFDD" style="stroke:#181818;stroke-width:0.5;"/><path d="M780.5754,524.9183 L780.5754,531.9183 A3,3 0 0 0 783.5754,534.9183 L790.5754,534.9183 L780.5754,524.9183" fill="#FEFFDD" style="stroke:#181818;stroke-width:0.5;"/><text fill="#000000" font-family="sans-serif" font-size="13" lengthAdjust="spacing" textLength="99.1948" x="400.74" y="542.4866">Decision policy:</text><text fill="#000000" font-family="sans-serif" font-size="13" lengthAdjust="spacing" textLength="331.9443" x="400.74" y="557.7972">1) FAQ high-confidence -&gt; return canonical answer.</text><text fill="#000000" font-family="sans-serif" font-size="13" lengthAdjust="spacing" textLength="212.8306" x="400.74" y="573.1077">2) Else run retrieval + generation.</text><text fill="#000000" font-family="sans-serif" font-size="13" lengthAdjust="spacing" textLength="374.8354" x="400.74" y="588.4183">3) If evidence insufficient or unsupported claim -&gt; abstain.</text></g><g class="entity" data-entity="GMN51" data-source-line="81" data-uid="ent0052" id="entity_GMN51"><path d="M434.86,713.0883 L434.86,723.3983 L400.41,727.3983 L434.86,731.3983 L434.86,741.7094 A6,6 0 0 0 440.86,747.7094 L784.4577,747.7094 A6,6 0 0 0 790.4577,741.7094 L790.4577,717.0883 L780.4577,707.0883 L440.86,707.0883 A6,6 0 0 0 434.86,713.0883" fill="#FEFFDD" style="stroke:#181818;stroke-width:0.5;"/><path d="M780.4577,707.0883 L780.4577,714.0883 A3,3 0 0 0 783.4577,717.0883 L790.4577,717.0883 L780.4577,707.0883" fill="#FEFFDD" style="stroke:#181818;stroke-width:0.5;"/><text fill="#000000" font-family="sans-serif" font-size="13" lengthAdjust="spacing" textLength="105.9551" x="440.86" y="724.6566">Top layer: Users.</text><text fill="#000000" font-family="sans-serif" font-size="13" lengthAdjust="spacing" textLength="334.5977" x="440.86" y="739.9672">Bottom layer: Approved source repositories and LLM.</text></g><!--link PTO to GUI--><g class="link" data-entity-1="PTO" data-entity-2="GUI" data-source-line="38" data-uid="lnk20" id="link_PTO_GUI"><path d="M1214.16,119.5983 C1213.11,136.1883 1215.49,154.5983 1227.66,166.4783 C1241.02,179.5383 1379.56,164.9783 1395.66,174.4783 C1417.46,187.3483 1429.1451,207.7261 1437.0351,227.4861" fill="none" id="PTO-to-GUI" style="stroke:#181818;stroke-width:1;"/><polygon fill="#181818" points="1439.26,233.0583,1439.6374,223.2167,1437.4059,228.4148,1432.2078,226.1832,1439.26,233.0583" style="stroke:#181818;stroke-width:1;"/><text fill="#000000" font-family="sans-serif" font-size="13" lengthAdjust="spacing" textLength="88.7275" x="1228.66" y="163.0466">Ask questions</text></g><!--link PTA to GUI--><g class="link" data-entity-1="PTA" data-entity-2="GUI" data-source-line="39" data-uid="lnk21" id="link_PTA_GUI"><path d="M1317.48,119.7483 C1319.43,136.3583 1324.75,154.7583 1337.66,166.4783 C1356.92,183.9783 1373.86,160.2583 1395.66,174.4783 C1416.72,188.2183 1428.3603,208.2307 1436.4603,227.6507" fill="none" id="PTA-to-GUI" style="stroke:#181818;stroke-width:1;"/><polygon fill="#181818" points="1438.77,233.1883,1438.9972,223.342,1436.8452,228.5736,1431.6137,226.4217,1438.77,233.1883" style="stroke:#181818;stroke-width:1;"/><text fill="#000000" font-family="sans-serif" font-size="13" lengthAdjust="spacing" textLength="88.7275" x="1338.66" y="163.0466">Ask questions</text></g><!--link DEV to GUI--><g class="link" data-entity-1="DEV" data-entity-2="GUI" data-source-line="40" data-uid="lnk22" id="link_DEV_GUI"><path d="M1431.9,119.7183 C1435.75,153.7583 1440.656,197.1263 1444.036,227.0263" fill="none" id="DEV-to-GUI" style="stroke:#181818;stroke-width:1;"/><polygon fill="#181818" points="1444.71,232.9883,1447.6737,223.5959,1444.1484,228.0199,1439.7244,224.4946,1444.71,232.9883" style="stroke:#181818;stroke-width:1;"/><text fill="#000000" font-family="sans-serif" font-size="13" lengthAdjust="spacing" textLength="88.7275" x="1438.06" y="163.0466">Ask questions</text></g><!--link INTEGRATOR to GUI--><g class="link" data-entity-1="INTEGRATOR" data-entity-2="GUI" data-source-line="41" data-uid="lnk23" id="link_INTEGRATOR_GUI"><path d="M1557.4,119.7483 C1551.63,134.8783 1543.95,152.1183 1534.66,166.4783 C1518.49,191.4683 1499.537,211.6931 1481.117,229.1331" fill="none" id="INTEGRATOR-to-GUI" style="stroke:#181818;stroke-width:1;"/><polygon fill="#181818" points="1476.76,233.2583,1486.0455,229.9752,1480.3908,229.8207,1480.5453,224.1659,1476.76,233.2583" style="stroke:#181818;stroke-width:1;"/><text fill="#000000" font-family="sans-serif" font-size="13" lengthAdjust="spacing" textLength="88.7275" x="1544.36" y="163.0466">Ask questions</text></g><!--link TICKET to GUI--><g class="link" data-entity-1="TICKET" data-entity-2="GUI" data-source-line="42" data-uid="lnk24" id="link_TICKET_GUI"><path d="M1696.08,119.8383 C1680.45,135.5083 1661.13,153.1183 1641.66,166.4783 C1595.35,198.2483 1542.0074,222.3912 1501.3174,238.7412" fill="none" id="TICKET-to-GUI" style="stroke:#181818;stroke-width:1;"/><polygon fill="#181818" points="1495.75,240.9783,1505.5924,241.3343,1500.3895,239.1141,1502.6097,233.9111,1495.75,240.9783" style="stroke:#181818;stroke-width:1;"/><text fill="#000000" font-family="sans-serif" font-size="13" lengthAdjust="spacing" textLength="88.7275" x="1663.97" y="163.0466">Ask questions</text></g><!--link PTO to PTA--><!--link PTA to DEV--><!--link DEV to INTEGRATOR--><!--link INTEGRATOR to TICKET--><!--link SYSTEM to GITHUB--><!--link GITHUB to LLM--><!--link GUI to API--><g class="link" data-entity-1="GUI" data-entity-2="API" data-source-line="54" data-uid="lnk31" id="link_GUI_API"><path d="M1447.66,286.9083 C1447.66,308.5283 1447.66,333.4783 1447.66,357.0983" fill="none" id="GUI-to-API" style="stroke:#181818;stroke-width:1;"/><polygon fill="#181818" points="1447.66,363.0983,1451.66,354.0983,1447.66,358.0983,1443.66,354.0983,1447.66,363.0983" style="stroke:#181818;stroke-width:1;"/><text fill="#000000" font-family="sans-serif" font-size="13" lengthAdjust="spacing" textLength="102.9146" x="1448.66" y="330.0266">Submit question</text></g><!--link API to FAQ--><g class="link" data-entity-1="API" data-entity-2="FAQ" data-source-line="55" data-uid="lnk32" id="link_API_FAQ"><path d="M1386.54,433.3983 C1375.13,441.8883 1364.14,451.7983 1355.66,462.9183 C1341.63,481.2983 1334.5653,500.1125 1329.5453,519.9025" fill="none" id="API-to-FAQ" style="stroke:#181818;stroke-width:1;"/><polygon fill="#181818" points="1328.07,525.7183,1334.1601,517.9781,1329.2994,520.8718,1326.4057,516.0111,1328.07,525.7183" style="stroke:#181818;stroke-width:1;"/><text fill="#000000" font-family="sans-serif" font-size="13" lengthAdjust="spacing" textLength="156.9268" x="1356.66" y="483.9866">Try canonical FAQ match</text></g><!--link API to RETRIEVAL--><g class="link" data-entity-1="API" data-entity-2="RETRIEVAL" data-source-line="56" data-uid="lnk33" id="link_API_RETRIEVAL"><path d="M1554.59,415.2083 C1690.97,436.4383 1933.73,476.8483 2138.66,524.9183 C2143.93,526.1583 2143.5042,526.013 2148.9442,527.393" fill="none" id="API-to-RETRIEVAL" style="stroke:#181818;stroke-width:1;"/><polygon fill="#181818" points="2154.76,528.8683,2147.0199,522.7781,2149.9135,527.6388,2145.0528,530.5325,2154.76,528.8683" style="stroke:#181818;stroke-width:1;"/><text fill="#000000" font-family="sans-serif" font-size="13" lengthAdjust="spacing" textLength="158.4629" x="1989.32" y="483.9866">Fallback retrieval request</text></g><!--link API to GUARDRAILS--><g class="link" data-entity-1="API" data-entity-2="GUARDRAILS" data-source-line="57" data-uid="lnk34" id="link_API_GUARDRAILS"><path d="M1340.78,420.4783 C1295.05,431.0183 1241.5,445.3083 1194.66,462.9183 C1149.3,479.9783 1105.9153,502.0952 1069.3453,522.4052" fill="none" id="API-to-GUARDRAILS" style="stroke:#181818;stroke-width:1;"/><polygon fill="#181818" points="1064.1,525.3183,1073.9101,524.4455,1068.4711,522.8907,1070.0259,517.4517,1064.1,525.3183" style="stroke:#181818;stroke-width:1;"/><text fill="#000000" font-family="sans-serif" font-size="13" lengthAdjust="spacing" textLength="134.3862" x="1195.66" y="476.4866">Grounded generation</text><text fill="#000000" font-family="sans-serif" font-size="13" lengthAdjust="spacing" textLength="89.0005" x="1218.3529" y="491.7972">and validation</text></g><!--link API to EDITORIAL--><g class="link" data-entity-1="API" data-entity-2="EDITORIAL" data-source-line="58" data-uid="lnk35" id="link_API_EDITORIAL"><path d="M1487.26,433.1483 C1497.48,442.4783 1508.25,452.8183 1517.66,462.9183 C1535.97,482.6083 1551.068,501.5198 1565.338,520.5298" fill="none" id="API-to-EDITORIAL" style="stroke:#181818;stroke-width:1;"/><polygon fill="#181818" points="1568.94,525.3283,1566.736,515.7292,1565.9383,521.3295,1560.338,520.5319,1568.94,525.3283" style="stroke:#181818;stroke-width:1;"/><text fill="#000000" font-family="sans-serif" font-size="13" lengthAdjust="spacing" textLength="138.417" x="1545.16" y="476.4866">Route low-confidence</text><text fill="#000000" font-family="sans-serif" font-size="13" lengthAdjust="spacing" textLength="119.9644" x="1554.3863" y="491.7972">or flagged answers</text></g><!--link API to PG--><g class="link" data-entity-1="API" data-entity-2="PG" data-source-line="59" data-uid="lnk36" id="link_API_PG"><path d="M1554.48,407.7183 C1600.9,415.9883 1653.5,432.0183 1692.66,462.9183 C1740.55,500.7183 1766.81,551.1283 1725.66,596.1683 C1675.69,650.8483 1451.3,579.6383 1393.66,626.1683 C1382.06,635.5183 1391.4,645.4383 1383.66,658.1683 C1377.26,668.6683 1373.0604,674.4049 1364.3804,683.4249" fill="none" id="API-to-PG" style="stroke:#181818;stroke-width:1;"/><polygon fill="#181818" points="1360.22,687.7483,1369.3428,684.0369,1363.687,684.1455,1363.5783,678.4897,1360.22,687.7483" style="stroke:#181818;stroke-width:1;"/><text fill="#000000" font-family="sans-serif" font-size="13" lengthAdjust="spacing" textLength="136.2017" x="1747.06" y="558.1066">Store question events</text><text fill="#000000" font-family="sans-serif" font-size="13" lengthAdjust="spacing" textLength="89.1084" x="1770.6066" y="573.4172">and outcomes</text></g><!--link FAQ to PG--><g class="link" data-entity-1="FAQ" data-entity-2="PG" data-source-line="61" data-uid="lnk37" id="link_FAQ_PG"><path d="M1198.39,592.1483 C1192.73,593.5183 1187.14,594.8583 1181.66,596.1683 C1123.55,609.9983 1087.88,579.4483 1050.66,626.1683 C1001.62,687.6983 1111.8686,710.8929 1205.4086,720.0629" fill="none" id="FAQ-to-PG" style="stroke:#181818;stroke-width:1;"/><polygon fill="#181818" points="1211.38,720.6483,1202.8132,715.7893,1206.4039,720.1605,1202.0327,723.7511,1211.38,720.6483" style="stroke:#181818;stroke-width:1;"/><text fill="#000000" font-family="sans-serif" font-size="13" lengthAdjust="spacing" textLength="146.2246" x="1051.66" y="639.7366">Read/write FAQ entries</text><text fill="#000000" font-family="sans-serif" font-size="13" lengthAdjust="spacing" textLength="79.8979" x="1084.8233" y="655.0472">and versions</text></g><!--link RETRIEVAL to VDB--><g class="link" data-entity-1="RETRIEVAL" data-entity-2="VDB" data-source-line="62" data-uid="lnk38" id="link_RETRIEVAL_VDB"><path d="M2295.62,595.5683 C2311.65,614.5183 2324.04,638.2383 2310.66,658.1683 C2295.03,681.4283 2275.5035,694.5974 2249.4535,704.7074" fill="none" id="RETRIEVAL-to-VDB" style="stroke:#181818;stroke-width:1;"/><polygon fill="#181818" points="2243.86,706.8783,2253.6975,707.351,2248.5213,705.0692,2250.803,699.893,2243.86,706.8783" style="stroke:#181818;stroke-width:1;"/><text fill="#000000" font-family="sans-serif" font-size="13" lengthAdjust="spacing" textLength="126.9849" x="2317.33" y="647.2366">Query top-k chunks</text></g><!--link RETRIEVAL to SDB--><g class="link" data-entity-1="RETRIEVAL" data-entity-2="SDB" data-source-line="63" data-uid="lnk39" id="link_RETRIEVAL_SDB"><path d="M2155.04,595.2283 C2134.59,603.8883 2113.84,614.2083 2095.66,626.1683 C2078.85,637.2083 2081.55,648.9783 2063.66,658.1683 C2013.23,684.0283 1877.5243,702.9249 1773.4643,714.3249" fill="none" id="RETRIEVAL-to-SDB" style="stroke:#181818;stroke-width:1;"/><polygon fill="#181818" points="1767.5,714.9783,1776.8821,717.9744,1772.4703,714.4338,1776.0109,710.022,1767.5,714.9783" style="stroke:#181818;stroke-width:1;"/><text fill="#000000" font-family="sans-serif" font-size="13" lengthAdjust="spacing" textLength="205.5688" x="2096.66" y="639.7366">Graph-aware concept expansion</text><text fill="#000000" font-family="sans-serif" font-size="13" lengthAdjust="spacing" textLength="148.3384" x="2125.2752" y="655.0472">(SPARQL) when enabled</text></g><!--link RETRIEVAL to PG--><g class="link" data-entity-1="RETRIEVAL" data-entity-2="PG" data-source-line="64" data-uid="lnk40" id="link_RETRIEVAL_PG"><path d="M2154.88,592.8183 C2149.42,594.0383 2143.98,595.1683 2138.66,596.1683 C1988.21,624.1683 1942.64,583.5983 1795.66,626.1683 C1765.87,634.7883 1763.23,648.8483 1733.66,658.1683 C1638.27,688.1983 1609.33,671.9183 1510.66,688.1683 C1480.38,693.1483 1453.4981,698.1047 1423.5881,703.9647" fill="none" id="RETRIEVAL-to-PG" style="stroke:#181818;stroke-width:1;"/><polygon fill="#181818" points="1417.7,705.1183,1427.3011,707.3133,1422.6067,704.157,1425.763,699.4625,1417.7,705.1183" style="stroke:#181818;stroke-width:1;"/><text fill="#000000" font-family="sans-serif" font-size="13" lengthAdjust="spacing" textLength="123.4302" x="1796.66" y="647.2366">Log retrieval events</text></g><!--link GUARDRAILS to LLM--><g class="link" data-entity-1="GUARDRAILS" data-entity-2="LLM" data-source-line="65" data-uid="lnk41" id="link_GUARDRAILS_LLM"><path d="M846.71,590.5683 C833.52,592.5983 820.37,594.4983 807.66,596.1683 C655.92,616.0283 607.32,570.7983 464.66,626.1683 C417.4,644.4983 377.0668,681.1102 354.0768,704.6002" fill="none" id="GUARDRAILS-to-LLM" style="stroke:#181818;stroke-width:1;"/><polygon fill="#181818" points="349.88,708.8883,359.0338,705.2541,353.3773,705.3149,353.3164,699.6584,349.88,708.8883" style="stroke:#181818;stroke-width:1;"/><text fill="#000000" font-family="sans-serif" font-size="13" lengthAdjust="spacing" textLength="139.4517" x="465.66" y="639.7366">Generate answer from</text><text fill="#000000" font-family="sans-serif" font-size="13" lengthAdjust="spacing" textLength="138.3789" x="466.1964" y="655.0472">retrieved context only</text></g><!--link GUARDRAILS to PG--><g class="link" data-entity-1="GUARDRAILS" data-entity-2="PG" data-source-line="66" data-uid="lnk42" id="link_GUARDRAILS_PG"><path d="M929.59,595.6583 C900.96,613.1783 879.45,635.5583 898.66,658.1683 C938.04,704.5283 1095.7156,719.1882 1205.6456,723.9582" fill="none" id="GUARDRAILS-to-PG" style="stroke:#181818;stroke-width:1;"/><polygon fill="#181818" points="1211.64,724.2183,1202.8219,719.8319,1206.6447,724.0015,1202.4751,727.8244,1211.64,724.2183" style="stroke:#181818;stroke-width:1;"/><text fill="#000000" font-family="sans-serif" font-size="13" lengthAdjust="spacing" textLength="125.4614" x="902.107" y="639.7366">Write evidence links</text><text fill="#000000" font-family="sans-serif" font-size="13" lengthAdjust="spacing" textLength="130.3555" x="899.66" y="655.0472">and policy outcomes</text></g><!--link EDITORIAL to PG--><g class="link" data-entity-1="EDITORIAL" data-entity-2="PG" data-source-line="67" data-uid="lnk43" id="link_EDITORIAL_PG"><path d="M1479.02,592.5083 C1473.16,593.8083 1467.35,595.0383 1461.66,596.1683 C1412.6,605.8583 1271.57,588.5283 1238.66,626.1683 C1221.55,645.7283 1232.308,664.7469 1253.498,683.7969" fill="none" id="EDITORIAL-to-PG" style="stroke:#181818;stroke-width:1;"/><polygon fill="#181818" points="1257.96,687.8083,1253.9413,678.8166,1254.2417,684.4655,1248.5928,684.7659,1257.96,687.8083" style="stroke:#181818;stroke-width:1;"/><text fill="#000000" font-family="sans-serif" font-size="13" lengthAdjust="spacing" textLength="139.8516" x="1239.66" y="647.2366">Store review decisions</text></g><!--link INGEST to GITHUB--><g class="link" data-entity-1="INGEST" data-entity-2="GITHUB" data-source-line="68" data-uid="lnk44" id="link_INGEST_GITHUB"><path d="M1950.32,590.5383 C1941.39,592.7883 1932.39,594.7283 1923.66,596.1683 C1663.05,638.8983 997.27,590.0983 735.66,626.1683 C678.42,634.0483 666.64,648.6183 609.66,658.1683 C451.31,684.6783 407.48,658.6983 249.66,688.1683 C223.29,693.0883 200.3509,699.3995 176.6609,706.8895" fill="none" id="INGEST-to-GITHUB" style="stroke:#181818;stroke-width:1;"/><polygon fill="#181818" points="170.94,708.6983,180.7271,709.7991,175.7074,707.191,178.3155,702.1712,170.94,708.6983" style="stroke:#181818;stroke-width:1;"/><text fill="#000000" font-family="sans-serif" font-size="13" lengthAdjust="spacing" textLength="146.6499" x="736.66" y="647.2366">Pull allowlisted sources</text></g><!--link INGEST to VDB--><g class="link" data-entity-1="INGEST" data-entity-2="VDB" data-source-line="69" data-uid="lnk45" id="link_INGEST_VDB"><path d="M1963.92,595.7383 C1937.65,613.0283 1917.98,635.1783 1934.66,658.1683 C1959.76,692.7683 1997.0306,708.9033 2037.6206,717.5133" fill="none" id="INGEST-to-VDB" style="stroke:#181818;stroke-width:1;"/><polygon fill="#181818" points="2043.49,718.7583,2035.5159,712.9778,2038.5988,717.7208,2033.8559,720.8037,2043.49,718.7583" style="stroke:#181818;stroke-width:1;"/><text fill="#000000" font-family="sans-serif" font-size="13" lengthAdjust="spacing" textLength="123.0811" x="1935.66" y="647.2366">Upsert embeddings</text></g><!--link INGEST to SDB--><g class="link" data-entity-1="INGEST" data-entity-2="SDB" data-source-line="70" data-uid="lnk46" id="link_INGEST_SDB"><path d="M1950.2,589.9083 C1941.3,592.2783 1932.34,594.4283 1923.66,596.1683 C1854.92,609.9183 1656.8,574.2983 1609.66,626.1683 C1594.01,643.3783 1599.471,662.6212 1612.471,682.9812" fill="none" id="INGEST-to-SDB" style="stroke:#181818;stroke-width:1;"/><polygon fill="#181818" points="1615.7,688.0383,1614.2279,678.3001,1613.0092,683.8241,1607.4852,682.6053,1615.7,688.0383" style="stroke:#181818;stroke-width:1;"/><text fill="#000000" font-family="sans-serif" font-size="13" lengthAdjust="spacing" textLength="117.4761" x="1611.1805" y="639.7366">Load ontology and</text><text fill="#000000" font-family="sans-serif" font-size="13" lengthAdjust="spacing" textLength="118.5171" x="1610.66" y="655.0472">alignment artifacts</text></g><!--link INGEST to PG--><g class="link" data-entity-1="INGEST" data-entity-2="PG" data-source-line="71" data-uid="lnk47" id="link_INGEST_PG"><path d="M1950.26,590.1983 C1941.35,592.5083 1932.36,594.5683 1923.66,596.1683 C1820.06,615.1783 1549.62,590.1283 1450.66,626.1683 C1414.41,639.3583 1384.0309,661.4921 1358.6609,683.7421" fill="none" id="INGEST-to-PG" style="stroke:#181818;stroke-width:1;"/><polygon fill="#181818" points="1354.15,687.6983,1363.5539,684.7713,1357.9091,684.4015,1358.279,678.7567,1354.15,687.6983" style="stroke:#181818;stroke-width:1;"/><text fill="#000000" font-family="sans-serif" font-size="13" lengthAdjust="spacing" textLength="141.3623" x="1451.66" y="647.2366">Store source metadata</text></g><!--SRC=[fLPHRzis47xNhpYqmDQWTR9cxR3vOO1YIwumjt4a9yMmx86MpZ9XcTH8AgutzB_lICgoh3LFUnBCEtvtzztTHnjkAeJ9EvZZ4rPm3IEOI64O5wXWobcfs0vUVGeNaziqWWzOrGNgxKKGw2qNDRDMlM65t7DHmffL6diM9HjHv59PhBVNVGFcXecI8lyJ0Dn8LQ2Qo4egU7bzypuER-WqfZJQixVnTVmkj9uitvOEjRN4FyStSHnyxM6pt93bV-968PaiRk3XNYoMjo-0QQ3lwIXiZyBZqTIIA6jKpZ2D7ew6P9b1Tj06Tv08WyGg7JkdvDCocgNXyZOz-YvvlaLZ-GnB5CPvBPF9Rz4o24x4lHZsnFbblsVBwAEhlkVw6LSmkqyUnQkkjnVEdGwxMizkt3Me3PS2maK2Lt2hyWqTkApFK1v57DwDrbnfymRC1WMauSpEGRKYIbqCY_1oEeb-6SQWcv2XUk8v3Z33kbRo2GkmBfMKswQ6r_24IbDAsg5QoyluX_Yd8MgAHd5yOjKpsD5kXKLXsRM8Zd6DZEfpi6cqJ9Fe8Pn_6to61C8SCT_1h66gK8nNUX1Ymett8TBohNu3kgbhgKptcwre4eHrQRiGfjCqJERPjwD61QSqEPNqMQhjkfBxPsgRAhOsLoa-STnVjIHUBPfLnRKlBvecD6Z9MNa5Csp5DCLPI6rAXTdTd72dT0mPnKNVv3T0iosCjbzUeCWHAYwslXkB6OrH5ByV03vuVXDHu9SXP2ORHHZvfX5Rm6DJFDp3zEQRU1dk6D6MmqonUkEXXhZEHFU95bhbya1jPXKlnSucxtVa3Bt7SoBATkejppYSzEmWSaBp6Ry6RgjgLtWMPSkEqgzdQzhDyeoR3yqAKgobTlr4dyuiMNwul-bVcSy_me8k4StAhezpeyCW8FM1qUXNjxTZ2FKM_ceNLPCjVDP6IlIixIH0pxfuzNdM77mFIrb3nGwenbv_DJ2bg1ogUqEb_crfhAg3B-2F3IzeWlvKlDmOmhG2wh8V6go0kjI7XfvezjCVkXrLytjw2eoHksEA-CMW4hHFsacoXXMwfNBY6RGQsg7HuoPivRvF_lFVMAu_bXtBajMyCMJDQiTDHrHWJwtLQjSObke0EHDIy9moiMSxPl9DvtMIeZ74hQ3Ij1xLJQ73xTnx8ZAc_R1l6P5VTeBrA9WeW6xoWfrbSzA4CQIoCRJNSZ_AfLZxDNyKjCBhYfMscKpeFSbmTvaMV-nNhokprGaVZ_1okKEQ4LjWToD5Lbpj5QTWzfpyxJgqAROo7vm8iFUi9eo1tYMYpSXwjFMBE7JBd9iJWH7RCygBAicnDjJqch9tJBpA5c5wDx-0lNsnKB1LXSK0oEKvbsMFSbzOq6Dwv1jl8tgYiMK8rahk7aLxbuYZB0oD7SaIRS40mONwxDWurrPFI2qhdXzEL9uQDkY0Si8F1UPSjwljX6dKJI-vBfgg8aMa7jEhO2WpxOJupDbpVLzhf4VhfCrz5y_pNBBYfBIKB6Ly55jI0CFNf0Pdzthf-i2mGyEin0U1aCJ0oc-gNDib2gPjBIq9u-3jXPkO3MrTRqQ1a8dhHedUIlbEN0RN5n3H_r9GZUWrytLlDow37oyWMP_Ovq8twpNFkQs3nhyHxHDkEranlhC1xIjERyDbWDGactjRWLC4Mu2LX9umtXET-Z8ubwBkUMZPKBtdmH9gGNeH_WK0]--></g></svg>
