<svg xmlns="http://www.w3.org/2000/svg" xmlns:xlink="http://www.w3.org/1999/xlink" contentStyleType="text/css" data-diagram-type="DESCRIPTION" height="446px" preserveAspectRatio="none" style="width:1685px;height:446px;background:#FFFFFF;" version="1.1" viewBox="0 0 1685 446" width="1685px" zoomAndPan="magnify"><title>C4 Level 1 - System Context (NAPCORE Helpdesk)</title><defs/><g><g class="title" data-source-line="1"><text fill="#000000" font-family="sans-serif" font-size="14" font-weight="bold" lengthAdjust="spacing" textLength="361.3613" x="654.9382" y="23.5352">C4 Level 1 - System Context (NAPCORE Helpdesk)</text></g><!--entity PTO--><g class="entity" data-entity="PTO" data-source-line="16" data-uid="ent0002" id="entity_PTO"><ellipse cx="98.7466" cy="51.4883" fill="#EAF2FF" rx="8" ry="8" style="stroke:#2B5FAB;stroke-width:0.5;"/><path d="M98.7466,59.4883 L98.7466,86.4883 M85.7466,67.4883 L111.7466,67.4883 M98.7466,86.4883 L85.7466,101.4883 M98.7466,86.4883 L111.7466,101.4883" fill="none" style="stroke:#2B5FAB;stroke-width:0.5;"/><text fill="#1F2F4A" font-family="sans-serif" font-size="14" lengthAdjust="spacing" textLength="27.4668" x="6" y="116.5234">PTO</text><text fill="#1F2F4A" font-family="sans-serif" font-size="14" lengthAdjust="spacing" textLength="185.4932" x="6" y="133.0117">(Public Transport Operator)</text></g><!--entity PTA--><g class="entity" data-entity="PTA" data-source-line="17" data-uid="ent0003" id="entity_PTA"><ellipse cx="320.7498" cy="51.4883" fill="#EAF2FF" rx="8" ry="8" style="stroke:#2B5FAB;stroke-width:0.5;"/><path d="M320.7498,59.4883 L320.7498,86.4883 M307.7498,67.4883 L333.7498,67.4883 M320.7498,86.4883 L307.7498,101.4883 M320.7498,86.4883 L333.7498,101.4883" fill="none" style="stroke:#2B5FAB;stroke-width:0.5;"/><text fill="#1F2F4A" font-family="sans-serif" font-size="14" lengthAdjust="spacing" textLength="26.25" x="226.66" y="116.5234">PTA</text><text fill="#1F2F4A" font-family="sans-serif" font-size="14" lengthAdjust="spacing" textLength="188.1797" x="226.66" y="133.0117">(Public Transport Authority)</text></g><!--entity DEV--><g class="entity" data-entity="DEV" data-source-line="18" data-uid="ent0004" id="entity_DEV"><ellipse cx="534.7492" cy="59.7283" fill="#EAF2FF" rx="8" ry="8" style="stroke:#2B5FAB;stroke-width:0.5;"/><path d="M534.7492,67.7283 L534.7492,94.7283 M521.7492,75.7283 L547.7492,75.7283 M534.7492,94.7283 L521.7492,109.7283 M534.7492,94.7283 L547.7492,109.7283" fill="none" style="stroke:#2B5FAB;stroke-width:0.5;"/><text fill="#1F2F4A" font-family="sans-serif" font-size="14" lengthAdjust="spacing" textLength="68.3184" x="500.59" y="124.7634">Developer</text></g><!--entity INTEGRATOR--><g class="entity" data-entity="INTEGRATOR" data-source-line="19" data-uid="ent0005" id="entity_INTEGRATOR"><ellipse cx="710.7473" cy="59.7283" fill="#EAF2FF" rx="8" ry="8" style="stroke:#2B5FAB;stroke-width:0.5;"/><path d="M710.7473,67.7283 L710.7473,94.7283 M697.7473,75.7283 L723.7473,75.7283 M710.7473,94.7283 L697.7473,109.7283 M710.7473,94.7283 L723.7473,109.7283" fill="none" style="stroke:#2B5FAB;stroke-width:0.5;"/><text fill="#1F2F4A" font-family="sans-serif" font-size="14" lengthAdjust="spacing" textLength="144.8945" x="638.3" y="124.7634">ITS System Integrator</text></g><!--entity TICKET--><g class="entity" data-entity="TICKET" data-source-line="20" data-uid="ent0006" id="entity_TICKET"><ellipse cx="895.7484" cy="59.7283" fill="#EAF2FF" rx="8" ry="8" style="stroke:#2B5FAB;stroke-width:0.5;"/><path d="M895.7484,67.7283 L895.7484,94.7283 M882.7484,75.7283 L908.7484,75.7283 M895.7484,94.7283 L882.7484,109.7283 M895.7484,94.7283 L908.7484,109.7283" fill="none" style="stroke:#2B5FAB;stroke-width:0.5;"/><text fill="#1F2F4A" font-family="sans-serif" font-size="14" lengthAdjust="spacing" textLength="107.2969" x="842.1" y="124.7634">Ticketing Agent</text></g><!--entity HELPDESK--><g class="entity" data-entity="HELPDESK" data-source-line="22" data-uid="ent0007" id="entity_HELPDESK"><rect fill="#DCE9FF" height="52.9766" rx="6" ry="6" style="stroke:#2B5FAB;stroke-width:0.5;" width="204.5771" x="432.46" y="227.9683"/><text fill="#1F2F4A" font-family="sans-serif" font-size="14" lengthAdjust="spacing" textLength="184.5771" x="442.46" y="251.5034">NAPCORE Helpdesk System</text><text fill="#1F2F4A" font-family="sans-serif" font-size="14" lengthAdjust="spacing" textLength="178.459" x="442.46" y="267.9917">(FAQ-first + RAG fallback)</text></g><!--entity GITHUB--><g class="entity" data-entity="GITHUB" data-source-line="23" data-uid="ent0008" id="entity_GITHUB"><rect fill="#F8FBFF" height="52.9766" rx="6" ry="6" style="stroke:#2B5FAB;stroke-width:0.5;" width="307.4717" x="89.01" y="387.9383"/><text fill="#1F2F4A" font-family="sans-serif" font-size="14" lengthAdjust="spacing" textLength="205.3105" x="99.01" y="411.4734">Approved GitHub Repositories</text><text fill="#1F2F4A" font-family="sans-serif" font-size="14" lengthAdjust="spacing" textLength="287.4717" x="99.01" y="427.9617">(NeTEx-CEN/NeTEx + allowlisted sources)</text></g><!--entity GRAPHDB--><g class="entity" data-entity="GRAPHDB" data-source-line="24" data-uid="ent0009" id="entity_GRAPHDB"><rect fill="#F8FBFF" height="52.9766" rx="6" ry="6" style="stroke:#2B5FAB;stroke-width:0.5;" width="186.3594" x="431.57" y="387.9383"/><text fill="#1F2F4A" font-family="sans-serif" font-size="14" lengthAdjust="spacing" textLength="164.6641" x="441.57" y="411.4734">GraphDB Semantic Store</text><text fill="#1F2F4A" font-family="sans-serif" font-size="14" lengthAdjust="spacing" textLength="166.3594" x="441.57" y="427.9617">(Ontology + alignments)</text></g><!--entity LLM--><g class="entity" data-entity="LLM" data-source-line="25" data-uid="ent0010" id="entity_LLM"><rect fill="#F8FBFF" height="52.9766" rx="6" ry="6" style="stroke:#2B5FAB;stroke-width:0.5;" width="217.3467" x="653.07" y="387.9383"/><text fill="#1F2F4A" font-family="sans-serif" font-size="14" lengthAdjust="spacing" textLength="112.9775" x="663.07" y="411.4734">LLM Provider API</text><text fill="#1F2F4A" font-family="sans-serif" font-size="14" lengthAdjust="spacing" textLength="197.3467" x="663.07" y="427.9617">(Default generation backend)</text></g><g class="entity" data-entity="GMN26" data-source-line="49" data-uid="ent0027" id="entity_GMN26"><path d="M1295.25,400.1183 L1295.25,428.7394 A6,6 0 0 0 1301.25,434.7394 L1672.2378,434.7394 A6,6 0 0 0 1678.2378,428.7394 L1678.2378,404.1183 L1668.2378,394.1183 L1301.25,394.1183 A6,6 0 0 0 1295.25,400.1183" fill="#FEFFDD" style="stroke:#181818;stroke-width:0.5;"/><path d="M1668.2378,394.1183 L1668.2378,401.1183 A3,3 0 0 0 1671.2378,404.1183 L1678.2378,404.1183 L1668.2378,394.1183" fill="#FEFFDD" style="stroke:#181818;stroke-width:1;"/><text fill="#000000" font-family="sans-serif" font-size="13" lengthAdjust="spacing" textLength="361.9878" x="1301.25" y="411.6866">Knowledge boundary: approved GitHub repositories only.</text><text fill="#000000" font-family="sans-serif" font-size="13" lengthAdjust="spacing" textLength="270.0229" x="1301.25" y="426.9972">If evidence is insufficient, system abstains.</text></g><g class="entity" data-entity="GMN29" data-source-line="54" data-uid="ent0030" id="entity_GMN29"><path d="M904.95,400.1183 L904.95,410.4283 L870.84,414.4283 L904.95,418.4283 L904.95,428.7394 A6,6 0 0 0 910.95,434.7394 L1254.5477,434.7394 A6,6 0 0 0 1260.5477,428.7394 L1260.5477,404.1183 L1250.5477,394.1183 L910.95,394.1183 A6,6 0 0 0 904.95,400.1183" fill="#FEFFDD" style="stroke:#181818;stroke-width:0.5;"/><path d="M1250.5477,394.1183 L1250.5477,401.1183 A3,3 0 0 0 1253.5477,404.1183 L1260.5477,404.1183 L1250.5477,394.1183" fill="#FEFFDD" style="stroke:#181818;stroke-width:0.5;"/><text fill="#000000" font-family="sans-serif" font-size="13" lengthAdjust="spacing" textLength="105.9551" x="910.95" y="411.6866">Top layer: Users.</text><text fill="#000000" font-family="sans-serif" font-size="13" lengthAdjust="spacing" textLength="334.5977" x="910.95" y="426.9972">Bottom layer: Approved source repositories and LLM.</text></g><!--link PTO to HELPDESK--><g class="link" data-entity-1="PTO" data-entity-2="HELPDESK" data-source-line="27" data-uid="lnk11" id="link_PTO_HELPDESK"><path d="M107.45,136.4383 C114,158.3983 125.33,183.0883 144.75,197.9683 C188.51,231.5083 325.8882,244.4941 426.0182,249.7441" fill="none" id="PTO-to-HELPDESK" style="stroke:#181818;stroke-width:1;"/><polygon fill="#181818" points="432.01,250.0583,423.2318,245.5925,427.0169,249.7965,422.8129,253.5816,432.01,250.0583" style="stroke:#181818;stroke-width:1;"/><text fill="#000000" font-family="sans-serif" font-size="13" lengthAdjust="spacing" textLength="96.1606" x="180.0559" y="179.5366">Asks standards</text><text fill="#000000" font-family="sans-serif" font-size="13" lengthAdjust="spacing" textLength="164.7725" x="145.75" y="194.8472">implementation questions</text></g><!--link PTA to HELPDESK--><g class="link" data-entity-1="PTA" data-entity-2="HELPDESK" data-source-line="28" data-uid="lnk12" id="link_PTA_HELPDESK"><path d="M315.39,136.3883 C315.45,157.4183 319.4,181.2983 333.75,197.9683 C347.42,213.8383 383.9605,225.4174 426.3105,234.7474" fill="none" id="PTA-to-HELPDESK" style="stroke:#181818;stroke-width:1;"/><polygon fill="#181818" points="432.17,236.0383,424.2414,230.1956,427.2871,234.9625,422.5202,238.0083,432.17,236.0383" style="stroke:#181818;stroke-width:1;"/><text fill="#000000" font-family="sans-serif" font-size="13" lengthAdjust="spacing" textLength="98.6108" x="379.6787" y="179.5366">Asks policy and</text><text fill="#000000" font-family="sans-serif" font-size="13" lengthAdjust="spacing" textLength="188.4683" x="334.75" y="194.8472">compliance-related questions</text></g><!--link DEV to HELPDESK--><g class="link" data-entity-1="DEV" data-entity-2="HELPDESK" data-source-line="29" data-uid="lnk13" id="link_DEV_HELPDESK"><path d="M532.7,127.7883 C531.82,148.4683 531.12,174.6383 531.75,197.9683 C532.01,207.6083 532.179,212.198 532.709,221.508" fill="none" id="DEV-to-HELPDESK" style="stroke:#181818;stroke-width:1;"/><polygon fill="#181818" points="533.05,227.4983,536.532,218.2855,532.7658,222.5064,528.5449,218.7402,533.05,227.4983" style="stroke:#181818;stroke-width:1;"/><text fill="#000000" font-family="sans-serif" font-size="13" lengthAdjust="spacing" textLength="90.1875" x="555.0271" y="179.5366">Asks technical</text><text fill="#000000" font-family="sans-serif" font-size="13" lengthAdjust="spacing" textLength="134.7417" x="532.75" y="194.8472">integration questions</text></g><!--link INTEGRATOR to HELPDESK--><g class="link" data-entity-1="INTEGRATOR" data-entity-2="HELPDESK" data-source-line="30" data-uid="lnk14" id="link_INTEGRATOR_HELPDESK"><path d="M705.02,128.1683 C699.81,150.8983 690,179.0283 671.75,197.9683 C659.81,210.3483 650.1472,217.4478 634.4072,225.0178" fill="none" id="INTEGRATOR-to-HELPDESK" style="stroke:#181818;stroke-width:1;"/><polygon fill="#181818" points="629,227.6183,638.8444,227.3223,633.506,225.4512,635.3771,220.1127,629,227.6183" style="stroke:#181818;stroke-width:1;"/><text fill="#000000" font-family="sans-serif" font-size="13" lengthAdjust="spacing" textLength="130.2031" x="711.7321" y="179.5366">Asks interoperability</text><text fill="#000000" font-family="sans-serif" font-size="13" lengthAdjust="spacing" textLength="167.5273" x="693.07" y="194.8472">and deployment questions</text></g><!--link TICKET to HELPDESK--><g class="link" data-entity-1="TICKET" data-entity-2="HELPDESK" data-source-line="31" data-uid="lnk15" id="link_TICKET_HELPDESK"><path d="M896.15,128.0183 C894.31,151.4283 887.85,180.3583 868.75,197.9683 C835.68,228.4383 728.8241,241.872 643.3741,248.102" fill="none" id="TICKET-to-HELPDESK" style="stroke:#181818;stroke-width:1;"/><polygon fill="#181818" points="637.39,248.5383,646.657,251.8733,642.3768,248.1747,646.0753,243.8944,637.39,248.5383" style="stroke:#181818;stroke-width:1;"/><text fill="#000000" font-family="sans-serif" font-size="13" lengthAdjust="spacing" textLength="88.8481" x="911.6768" y="179.5366">Asks ticketing</text><text fill="#000000" font-family="sans-serif" font-size="13" lengthAdjust="spacing" textLength="134.7417" x="888.73" y="194.8472">integration questions</text></g><!--link PTO to PTA--><!--link PTA to DEV--><!--link DEV to INTEGRATOR--><!--link INTEGRATOR to TICKET--><!--link HELPDESK to GITHUB--><!--link HELPDESK to GITHUB--><g class="link" data-entity-1="HELPDESK" data-entity-2="GITHUB" data-source-line="44" data-uid="lnk23" id="link_HELPDESK_GITHUB"><path d="M432.16,269.5983 C396.77,277.7983 358.16,290.6983 326.75,310.9383 C296.58,330.3783 275.1637,359.0964 260.5537,382.5364" fill="none" id="HELPDESK-to-GITHUB-1" style="stroke:#181818;stroke-width:1;"/><polygon fill="#181818" points="257.38,387.6283,265.5352,382.1063,260.0248,383.385,258.746,377.8746,257.38,387.6283" style="stroke:#181818;stroke-width:1;"/><text fill="#000000" font-family="sans-serif" font-size="13" lengthAdjust="spacing" textLength="120.3579" x="363.865" y="332.0066">Retrieves approved</text><text fill="#000000" font-family="sans-serif" font-size="13" lengthAdjust="spacing" textLength="192.5879" x="327.75" y="347.3172">source documents and chunks</text></g><!--link GITHUB to GRAPHDB--><!--link GRAPHDB to LLM--><!--link HELPDESK to GRAPHDB--><g class="link" data-entity-1="HELPDESK" data-entity-2="GRAPHDB" data-source-line="45" data-uid="lnk24" id="link_HELPDESK_GRAPHDB"><path d="M533.12,281.1883 C531.26,310.4783 528.6288,352.0603 526.7688,381.4603" fill="none" id="HELPDESK-to-GRAPHDB" style="stroke:#181818;stroke-width:1;"/><polygon fill="#181818" points="526.39,387.4483,530.9503,378.7188,526.7057,382.4583,522.9662,378.2137,526.39,387.4483" style="stroke:#181818;stroke-width:1;"/><text fill="#000000" font-family="sans-serif" font-size="13" lengthAdjust="spacing" textLength="143.0952" x="534.6453" y="332.0066">Queries concept graph</text><text fill="#000000" font-family="sans-serif" font-size="13" lengthAdjust="spacing" textLength="147.9258" x="532.23" y="347.3172">for semantic expansion</text></g><!--link HELPDESK to LLM--><g class="link" data-entity-1="HELPDESK" data-entity-2="LLM" data-source-line="46" data-uid="lnk25" id="link_HELPDESK_LLM"><path d="M633.48,281.4083 C652.57,289.0683 671.62,298.7683 687.75,310.9383 C714.9,331.4383 733.4106,359.4298 746.0706,382.4698" fill="none" id="HELPDESK-to-LLM" style="stroke:#181818;stroke-width:1;"/><polygon fill="#181818" points="748.96,387.7283,748.1315,377.9143,746.5522,383.3462,741.1203,381.7669,748.96,387.7283" style="stroke:#181818;stroke-width:1;"/><text fill="#000000" font-family="sans-serif" font-size="13" lengthAdjust="spacing" textLength="183.6377" x="730.45" y="324.5066">Generates grounded answers</text><text fill="#000000" font-family="sans-serif" font-size="13" lengthAdjust="spacing" textLength="149.4683" x="747.5347" y="339.8172">from retrieved evidence</text><text fill="#000000" font-family="sans-serif" font-size="13" lengthAdjust="spacing" textLength="156.876" x="743.8309" y="355.1277">(default generation path)</text></g><!--link HELPDESK to GMN26--><g class="link" data-entity-1="HELPDESK" data-entity-2="GMN26" data-source-line="49" data-uid="lnk28" id="link_HELPDESK_GMN26"><path d="M637.43,269.0683 C715.73,279.6983 826.19,295.2683 922.75,310.9383 C1084.59,337.2083 1271.71,372.1183 1384.54,393.6583" fill="none" id="HELPDESK-GMN26" style="stroke:#181818;stroke-width:1;stroke-dasharray:7,7;"/></g><!--SRC=[fLLDZzf84BtxLvGcXoHAcDMC4YdX4Cc03MWc0mDEBiiU6hjijsYwlTtjcV6kyjzJxGym37lQ4uYgVbNrwht2SYiGnf_W7fzGm0qCO5qPYtiOAsdnnSAx1tyvNgm2cA4e4ZIxzvvdTbmMJBCzc9mbwfdB358c3FOYMfKoYPMMgE7cjX_0s3APKTb_FO2HqWdgiH9AmvlRqUVG7z6l8HLlVxi9RyDFlijayIwhKTj8-2KSXQ7tguVDOakH_uaR-1Hok5u3TxMC5XlvRbbk1OyXqaoQGcaBYm8reuJtLy0CKD8ntx-KxvSsLvhRgdlWTmycZdn5S7LW4lpi0lDetUrZJkl8wdfrqlmX2gOhFrgikjo8npkqRXL-XjBMMT5yV1T4ddVa_EfydIq-DHpwZuEKQsFX0wpygTkes18vJRkpu7uv2TPty6Oo3huIFprCloYqUi84fjpEoYsii526KrSS3G4_O1Iy3CR1mn_rDu8dPFKiE1LEmAXInsYQAjDvDFinwcDFDIlooGZMk6VI4g5hmaL2NKXB-ygg6evdSaz3ToWhVpcRdC3Stt-79JN9IHNWB-S4CC6KbS82iUKMoPK4DoxAf46X9vv7QuN1uDjn_27uPcV04732T4BpyNqXq5LlCFukqRWlXjxw5zyMYeHH0G5iPApeDMSone56mHmXHm1ImaK0Yt4kUSm45MzbSLhvg8wBxzqZxVJ6jboG83UIUe442w4gDqWFgL7GvIuwmVrN5zvRY5G1WbMeXuqt3J1DXiXeJEU5VyYFf8MgeVdFd2S9ohyqpt9B1Pr3QWxF0yuXDJVdWPuh-XISftMsU4jdmbgrxrgaUuTQCW6czeI1BTdo6VBMAjw1WGCY7Jz9WAricu_NzJezjf-l4sgf7T4FY4Jr2YtPw0c9kTPb6zbO1X8LbxNgdPGWpakvCsSeRS4XF9Ret0Yn8gaL97fdgurCwNAOpbduKj2jejMTWZZh367Qk8GWccD96wJaPzJaW5GhTzURHXD0vp8gGnvBNdkiO3Qd_n2fBCAseL-b1t5vTv8k0oQP2vREOjNmC7btNtJlle2IehhsvkcXB72dS5EcAOyvqVEnNIUmBRcM8jSUUHnS0sqRzHfS5suFFSd-C3JUjNSgaiEnQxTmqenR187qAlm6]--></g></svg>
