<svg xmlns="http://www.w3.org/2000/svg" xmlns:xlink="http://www.w3.org/1999/xlink" contentStyleType="text/css" data-diagram-type="DESCRIPTION" height="431px" preserveAspectRatio="none" style="width:1514px;height:431px;background:#FFFFFF;" version="1.1" viewBox="0 0 1514 431" width="1514px" zoomAndPan="magnify"><title>C4 Level 1 - System Context (NAPCORE Helpdesk)</title><defs/><g><g class="title" data-source-line="1"><text fill="#000000" font-family="sans-serif" font-size="14" font-weight="bold" lengthAdjust="spacing" textLength="361.3613" x="569.4382" y="23.5352">C4 Level 1 - System Context (NAPCORE Helpdesk)</text></g><!--entity PTO--><g class="entity" data-entity="PTO" data-source-line="16" data-uid="ent0002" id="entity_PTO"><ellipse cx="98.7466" cy="51.4883" fill="#EAF2FF" rx="8" ry="8" style="stroke:#2B5FAB;stroke-width:0.5;"/><path d="M98.7466,59.4883 L98.7466,86.4883 M85.7466,67.4883 L111.7466,67.4883 M98.7466,86.4883 L85.7466,101.4883 M98.7466,86.4883 L111.7466,101.4883" fill="none" style="stroke:#2B5FAB;stroke-width:0.5;"/><text fill="#1F2F4A" font-family="sans-serif" font-size="14" lengthAdjust="spacing" textLength="27.4668" x="6" y="116.5234">PTO</text><text fill="#1F2F4A" font-family="sans-serif" font-size="14" lengthAdjust="spacing" textLength="185.4932" x="6" y="133.0117">(Public Transport Operator)</text></g><!--entity PTA--><g class="entity" data-entity="PTA" data-source-line="17" data-uid="ent0003" id="entity_PTA"><ellipse cx="320.7498" cy="51.4883" fill="#EAF2FF" rx="8" ry="8" style="stroke:#2B5FAB;stroke-width:0.5;"/><path d="M320.7498,59.4883 L320.7498,86.4883 M307.7498,67.4883 L333.7498,67.4883 M320.7498,86.4883 L307.7498,101.4883 M320.7498,86.4883 L333.7498,101.4883" fill="none" style="stroke:#2B5FAB;stroke-width:0.5;"/><text fill="#1F2F4A" font-family="sans-serif" font-size="14" lengthAdjust="spacing" textLength="26.25" x="226.66" y="116.5234">PTA</text><text fill="#1F2F4A" font-family="sans-serif" font-size="14" lengthAdjust="spacing" textLength="188.1797" x="226.66" y="133.0117">(Public Transport Authority)</text></g><!--entity DEV--><g class="entity" data-entity="DEV" data-source-line="18" data-uid="ent0004" id="entity_DEV"><ellipse cx="534.7492" cy="59.7283" fill="#EAF2FF" rx="8" ry="8" style="stroke:#2B5FAB;stroke-width:0.5;"/><path d="M534.7492,67.7283 L534.7492,94.7283 M521.7492,75.7283 L547.7492,75.7283 M534.7492,94.7283 L521.7492,109.7283 M534.7492,94.7283 L547.7492,109.7283" fill="none" style="stroke:#2B5FAB;stroke-width:0.5;"/><text fill="#1F2F4A" font-family="sans-serif" font-size="14" lengthAdjust="spacing" textLength="68.3184" x="500.59" y="124.7634">Developer</text></g><!--entity INTEGRATOR--><g class="entity" data-entity="INTEGRATOR" data-source-line="19" data-uid="ent0005" id="entity_INTEGRATOR"><ellipse cx="710.7473" cy="59.7283" fill="#EAF2FF" rx="8" ry="8" style="stroke:#2B5FAB;stroke-width:0.5;"/><path d="M710.7473,67.7283 L710.7473,94.7283 M697.7473,75.7283 L723.7473,75.7283 M710.7473,94.7283 L697.7473,109.7283 M710.7473,94.7283 L723.7473,109.7283" fill="none" style="stroke:#2B5FAB;stroke-width:0.5;"/><text fill="#1F2F4A" font-family="sans-serif" font-size="14" lengthAdjust="spacing" textLength="144.8945" x="638.3" y="124.7634">ITS System Integrator</text></g><!--entity TICKET--><g class="entity" data-entity="TICKET" data-source-line="20" data-uid="ent0006" id="entity_TICKET"><ellipse cx="895.7484" cy="59.7283" fill="#EAF2FF" rx="8" ry="8" style="stroke:#2B5FAB;stroke-width:0.5;"/><path d="M895.7484,67.7283 L895.7484,94.7283 M882.7484,75.7283 L908.7484,75.7283 M895.7484,94.7283 L882.7484,109.7283 M895.7484,94.7283 L908.7484,109.7283" fill="none" style="stroke:#2B5FAB;stroke-width:0.5;"/><text fill="#1F2F4A" font-family="sans-serif" font-size="14" lengthAdjust="spacing" textLength="107.2969" x="842.1" y="124.7634">Ticketing Agent</text></g><!--entity HELPDESK--><g class="entity" data-entity="HELPDESK" data-source-line="22" data-uid="ent0007" id="entity_HELPDESK"><rect fill="#DCE9FF" height="52.9766" rx="6" ry="6" style="stroke:#2B5FAB;stroke-width:0.5;" width="204.5771" x="432.46" y="227.9683"/><text fill="#1F2F4A" font-family="sans-serif" font-size="14" lengthAdjust="spacing" textLength="184.5771" x="442.46" y="251.5034">NAPCORE Helpdesk System</text><text fill="#1F2F4A" font-family="sans-serif" font-size="14" lengthAdjust="spacing" textLength="178.459" x="442.46" y="267.9917">(FAQ-first + RAG fallback)</text></g><!--entity GITHUB--><g class="entity" data-entity="GITHUB" data-source-line="23" data-uid="ent0008" id="entity_GITHUB"><rect fill="#F8FBFF" height="52.9766" rx="6" ry="6" style="stroke:#2B5FAB;stroke-width:0.5;" width="307.4717" x="224.01" y="372.9383"/><text fill="#1F2F4A" font-family="sans-serif" font-size="14" lengthAdjust="spacing" textLength="205.3105" x="234.01" y="396.4734">Approved GitHub Repositories</text><text fill="#1F2F4A" font-family="sans-serif" font-size="14" lengthAdjust="spacing" textLength="287.4717" x="234.01" y="412.9617">(NeTEx-CEN/NeTEx + allowlisted sources)</text></g><!--entity LLM--><g class="entity" data-entity="LLM" data-source-line="24" data-uid="ent0009" id="entity_LLM"><rect fill="#F8FBFF" height="36.4883" rx="6" ry="6" style="stroke:#2B5FAB;stroke-width:0.5;" width="132.9775" x="566.26" y="381.1883"/><text fill="#1F2F4A" font-family="sans-serif" font-size="14" lengthAdjust="spacing" textLength="112.9775" x="576.26" y="404.7234">LLM Provider API</text></g><g class="entity" data-entity="GMN23" data-source-line="46" data-uid="ent0024" id="entity_GMN23"><path d="M1124.25,385.1183 L1124.25,413.7394 A6,6 0 0 0 1130.25,419.7394 L1501.2378,419.7394 A6,6 0 0 0 1507.2378,413.7394 L1507.2378,389.1183 L1497.2378,379.1183 L1211.79,379.1183 L637.25,274.2183 L1203.79,379.1183 L1130.25,379.1183 A6,6 0 0 0 1124.25,385.1183" fill="#FEFFDD" style="stroke:#181818;stroke-width:0.5;"/><path d="M1497.2378,379.1183 L1497.2378,386.1183 A3,3 0 0 0 1500.2378,389.1183 L1507.2378,389.1183 L1497.2378,379.1183" fill="#FEFFDD" style="stroke:#181818;stroke-width:0.5;"/><text fill="#000000" font-family="sans-serif" font-size="13" lengthAdjust="spacing" textLength="361.9878" x="1130.25" y="396.6866">Knowledge boundary: approved GitHub repositories only.</text><text fill="#000000" font-family="sans-serif" font-size="13" lengthAdjust="spacing" textLength="270.0229" x="1130.25" y="411.9972">If evidence is insufficient, system abstains.</text></g><g class="entity" data-entity="GMN26" data-source-line="51" data-uid="ent0027" id="entity_GMN26"><path d="M733.95,385.1183 L733.95,395.4283 L699.5,399.4283 L733.95,403.4283 L733.95,413.7394 A6,6 0 0 0 739.95,419.7394 L1083.5477,419.7394 A6,6 0 0 0 1089.5477,413.7394 L1089.5477,389.1183 L1079.5477,379.1183 L739.95,379.1183 A6,6 0 0 0 733.95,385.1183" fill="#FEFFDD" style="stroke:#181818;stroke-width:0.5;"/><path d="M1079.5477,379.1183 L1079.5477,386.1183 A3,3 0 0 0 1082.5477,389.1183 L1089.5477,389.1183 L1079.5477,379.1183" fill="#FEFFDD" style="stroke:#181818;stroke-width:0.5;"/><text fill="#000000" font-family="sans-serif" font-size="13" lengthAdjust="spacing" textLength="105.9551" x="739.95" y="396.6866">Top layer: Users.</text><text fill="#000000" font-family="sans-serif" font-size="13" lengthAdjust="spacing" textLength="334.5977" x="739.95" y="411.9972">Bottom layer: Approved source repositories and LLM.</text></g><!--link PTO to HELPDESK--><g class="link" data-entity-1="PTO" data-entity-2="HELPDESK" data-source-line="26" data-uid="lnk10" id="link_PTO_HELPDESK"><path d="M107.45,136.4383 C114,158.3983 125.33,183.0883 144.75,197.9683 C188.51,231.5083 325.8882,244.4941 426.0182,249.7441" fill="none" id="PTO-to-HELPDESK" style="stroke:#181818;stroke-width:1;"/><polygon fill="#181818" points="432.01,250.0583,423.2318,245.5925,427.0169,249.7965,422.8129,253.5816,432.01,250.0583" style="stroke:#181818;stroke-width:1;"/><text fill="#000000" font-family="sans-serif" font-size="13" lengthAdjust="spacing" textLength="96.1606" x="180.0559" y="179.5366">Asks standards</text><text fill="#000000" font-family="sans-serif" font-size="13" lengthAdjust="spacing" textLength="164.7725" x="145.75" y="194.8472">implementation questions</text></g><!--link PTA to HELPDESK--><g class="link" data-entity-1="PTA" data-entity-2="HELPDESK" data-source-line="27" data-uid="lnk11" id="link_PTA_HELPDESK"><path d="M315.39,136.3883 C315.45,157.4183 319.4,181.2983 333.75,197.9683 C347.42,213.8383 383.9605,225.4174 426.3105,234.7474" fill="none" id="PTA-to-HELPDESK" style="stroke:#181818;stroke-width:1;"/><polygon fill="#181818" points="432.17,236.0383,424.2414,230.1956,427.2871,234.9625,422.5202,238.0083,432.17,236.0383" style="stroke:#181818;stroke-width:1;"/><text fill="#000000" font-family="sans-serif" font-size="13" lengthAdjust="spacing" textLength="98.6108" x="379.6787" y="179.5366">Asks policy and</text><text fill="#000000" font-family="sans-serif" font-size="13" lengthAdjust="spacing" textLength="188.4683" x="334.75" y="194.8472">compliance-related questions</text></g><!--link DEV to HELPDESK--><g class="link" data-entity-1="DEV" data-entity-2="HELPDESK" data-source-line="28" data-uid="lnk12" id="link_DEV_HELPDESK"><path d="M532.7,127.7883 C531.82,148.4683 531.12,174.6383 531.75,197.9683 C532.01,207.6083 532.179,212.198 532.709,221.508" fill="none" id="DEV-to-HELPDESK" style="stroke:#181818;stroke-width:1;"/><polygon fill="#181818" points="533.05,227.4983,536.532,218.2855,532.7658,222.5064,528.5449,218.7402,533.05,227.4983" style="stroke:#181818;stroke-width:1;"/><text fill="#000000" font-family="sans-serif" font-size="13" lengthAdjust="spacing" textLength="90.1875" x="555.0271" y="179.5366">Asks technical</text><text fill="#000000" font-family="sans-serif" font-size="13" lengthAdjust="spacing" textLength="134.7417" x="532.75" y="194.8472">integration questions</text></g><!--link INTEGRATOR to HELPDESK--><g class="link" data-entity-1="INTEGRATOR" data-entity-2="HELPDESK" data-source-line="29" data-uid="lnk13" id="link_INTEGRATOR_HELPDESK"><path d="M705.02,128.1683 C699.81,150.8983 690,179.0283 671.75,197.9683 C659.81,210.3483 650.1472,217.4478 634.4072,225.0178" fill="none" id="INTEGRATOR-to-HELPDESK" style="stroke:#181818;stroke-width:1;"/><polygon fill="#181818" points="629,227.6183,638.8444,227.3223,633.506,225.4512,635.3771,220.1127,629,227.6183" style="stroke:#181818;stroke-width:1;"/><text fill="#000000" font-family="sans-serif" font-size="13" lengthAdjust="spacing" textLength="130.2031" x="711.7321" y="179.5366">Asks interoperability</text><text fill="#000000" font-family="sans-serif" font-size="13" lengthAdjust="spacing" textLength="167.5273" x="693.07" y="194.8472">and deployment questions</text></g><!--link TICKET to HELPDESK--><g class="link" data-entity-1="TICKET" data-entity-2="HELPDESK" data-source-line="30" data-uid="lnk14" id="link_TICKET_HELPDESK"><path d="M896.15,128.0183 C894.31,151.4283 887.85,180.3583 868.75,197.9683 C835.68,228.4383 728.8241,241.872 643.3741,248.102" fill="none" id="TICKET-to-HELPDESK" style="stroke:#181818;stroke-width:1;"/><polygon fill="#181818" points="637.39,248.5383,646.657,251.8733,642.3768,248.1747,646.0753,243.8944,637.39,248.5383" style="stroke:#181818;stroke-width:1;"/><text fill="#000000" font-family="sans-serif" font-size="13" lengthAdjust="spacing" textLength="88.8481" x="911.6768" y="179.5366">Asks ticketing</text><text fill="#000000" font-family="sans-serif" font-size="13" lengthAdjust="spacing" textLength="134.7417" x="888.73" y="194.8472">integration questions</text></g><!--link PTO to PTA--><!--link PTA to DEV--><!--link DEV to INTEGRATOR--><!--link INTEGRATOR to TICKET--><!--link HELPDESK to GITHUB--><!--link HELPDESK to GITHUB--><g class="link" data-entity-1="HELPDESK" data-entity-2="GITHUB" data-source-line="42" data-uid="lnk21" id="link_HELPDESK_GITHUB"><path d="M452.06,281.4083 C436.88,289.0583 422.23,298.7483 410.75,310.9383 C394.72,327.9583 387.6007,347.6654 383.2907,366.7654" fill="none" id="HELPDESK-to-GITHUB-1" style="stroke:#181818;stroke-width:1;"/><polygon fill="#181818" points="381.97,372.6183,387.853,364.7195,383.0706,367.7409,380.0492,362.9585,381.97,372.6183" style="stroke:#181818;stroke-width:1;"/><text fill="#000000" font-family="sans-serif" font-size="13" lengthAdjust="spacing" textLength="120.3579" x="447.865" y="324.5066">Retrieves approved</text><text fill="#000000" font-family="sans-serif" font-size="13" lengthAdjust="spacing" textLength="192.5879" x="411.75" y="339.8172">source documents and chunks</text></g><!--link GITHUB to LLM--><!--link HELPDESK to LLM--><g class="link" data-entity-1="HELPDESK" data-entity-2="LLM" data-source-line="43" data-uid="lnk22" id="link_HELPDESK_LLM"><path d="M582.57,281.2183 C593.93,289.3683 605,299.3283 612.75,310.9383 C626.93,332.1983 630.7672,356.1305 631.9672,374.9005" fill="none" id="HELPDESK-to-LLM" style="stroke:#181818;stroke-width:1;"/><polygon fill="#181818" points="632.35,380.8883,635.7676,371.6514,632.031,375.8985,627.7839,372.1618,632.35,380.8883" style="stroke:#181818;stroke-width:1;"/><text fill="#000000" font-family="sans-serif" font-size="13" lengthAdjust="spacing" textLength="183.6377" x="627.22" y="324.5066">Generates grounded answers</text><text fill="#000000" font-family="sans-serif" font-size="13" lengthAdjust="spacing" textLength="180.1846" x="628.9466" y="339.8172">from retrieved evidence only</text></g><!--SRC=[fLHDRzf04BtlhnWbXoHgIPKebLeEbGpOW4A14gUNqiDY3sQ5sNLtro6qwd_lh3_0K7hg2UIPUJFxtfknmgO8tGSOuGkcS0SjUDePYnleAcdnrSBrs9js9pCV1fXcCPhr3MDcBMJ6DT-0MV5OROLCOCbJWus8LhcC8wKbQhYxRmOmibmcrFON0-We7QFkgbHfkBpll0-y3dqDg7drxIwu3nuybycZTLAWLf7WGz090lQxWSqZIv7_nFKz2ZbSLi9TJCF9N5vFyqKg8WWrboPJsi8aGyqfuUO2k05AEkHxv_AztAwK5dPN5tXrGS-HhmYk2FJyhtLW63xLUWn9ZgJeLoGDnw7VdtdXP5RdXY9QetLIU0bAMsI5m-wZ7p9suFpYLCuAdmOEl2-jfT36mXkOUNsdQBeWSifn1_veslEV7k6or_K_4ZyDJ2_Bj7h16Fh23l85p31JHj1K0Wq1Zp7qNrjTV_ok-4VmXAosgQ36CHYLwmXDsQK_30VFdIRsQFGPfeGkI4xmfiCYZJuoHen3g_NfC5aRFBCsOAWqvZgcrcAJfRWXDhWLIiAF78txOwZMErkRAT9i1mGmbv6YQi5bX2sDANUp7W18fBC05gEL515FgNcbs77dWt1dwrsHTbRW2v6IL-QIPe4OirJjt4CQIAMuvwUelV2lATWLX2g3bEzGjykrCS0rUJMXPpgR_gHL8Pbs9StVLYAEKNxN8bbPQkZCMt1u6d3cBRWv3JGCswJWDArsx1LjiBLgKuz8fmYrv2cOmgu65hGnMrXLBcPx1lQ8T9Sa0LQEAd_-xbSuwL2yBo0cPsZ9m2z8n5J-dilIh12hA7Tg6ESKY5QvN9jZ56VRDlHHkXj14EM58Mxf6cnHapUNMhbZMFQ80Pt3oMkW997EfB88Yv82jTmBp1ubBGx6YGlcpkQxzdwyUlrqO_qAk5isN1uQ2ESoao-N8XBqXhSLfS0Nj3aKkML8Zt83L6CKNBaf75aDspmRUiWjEnPgVmiggew6SMmHIAF37m00]--></g></svg>