<svg xmlns="http://www.w3.org/2000/svg" xmlns:xlink="http://www.w3.org/1999/xlink" contentStyleType="text/css" data-diagram-type="DESCRIPTION" height="1010px" preserveAspectRatio="none" style="width:3274px;height:1010px;background:#FFFFFF;" version="1.1" viewBox="0 0 3274 1010" width="3274px" zoomAndPan="magnify"><title>C4 Level 2 - Container Diagram (NAPCORE Helpdesk)</title><defs/><g><g class="title" data-source-line="1"><text fill="#000000" font-family="sans-serif" font-size="14" font-weight="bold" lengthAdjust="spacing" textLength="385.5195" x="1437.2485" y="23.5352">C4 Level 2 - Container Diagram (NAPCORE Helpdesk)</text></g><!--cluster SYSTEM--><g class="cluster" data-entity="SYSTEM" data-source-line="22" data-uid="ent0007" id="cluster_SYSTEM"><rect fill="#F8FBFF" height="814.39" rx="6" ry="6" style="stroke:#2B5FAB;stroke-width:1;" width="1825" x="533" y="190.4783"/><text fill="#1F2F4A" font-family="sans-serif" font-size="14" font-weight="bold" lengthAdjust="spacing" textLength="141.0459" x="1374.9771" y="206.0134">NAPCORE Helpdesk</text></g><!--entity GUI--><g class="entity" data-entity="GUI" data-source-line="23" data-uid="ent0008" id="entity_GUI"><rect fill="#EAF2FF" height="52.9766" rx="6" ry="6" style="stroke:#2B5FAB;stroke-width:0.5;" width="95.3115" x="1263.34" y="233.4783"/><text fill="#1F2F4A" font-family="sans-serif" font-size="14" lengthAdjust="spacing" textLength="56.8682" x="1273.34" y="257.0134">Web GUI</text><text fill="#1F2F4A" font-family="sans-serif" font-size="14" lengthAdjust="spacing" textLength="75.3115" x="1273.34" y="273.5017">(Container)</text></g><!--entity API--><g class="entity" data-entity="API" data-source-line="24" data-uid="ent0009" id="entity_API"><rect fill="#DCE9FF" height="69.4648" rx="6" ry="6" style="stroke:#2B5FAB;stroke-width:0.5;" width="213.0674" x="1204.47" y="363.4583"/><text fill="#1F2F4A" font-family="sans-serif" font-size="14" lengthAdjust="spacing" textLength="188.7949" x="1214.47" y="386.9934">Question API / Orchestrator</text><text fill="#1F2F4A" font-family="sans-serif" font-size="14" lengthAdjust="spacing" textLength="75.3115" x="1214.47" y="403.4817">(Container)</text><text fill="#1F2F4A" font-family="sans-serif" font-size="14" lengthAdjust="spacing" textLength="193.0674" x="1214.47" y="419.97">FAQ-first, then RAG fallback</text></g><!--entity CONTROLLER--><g class="entity" data-entity="CONTROLLER" data-source-line="25" data-uid="ent0010" id="entity_CONTROLLER"><rect fill="#F0F6FF" height="69.4648" rx="6" ry="6" style="stroke:#2B5FAB;stroke-width:0.5;" width="265.3691" x="931.32" y="533.4683"/><text fill="#1F2F4A" font-family="sans-serif" font-size="14" lengthAdjust="spacing" textLength="151.3408" x="941.32" y="557.0034">Controller LLM Service</text><text fill="#1F2F4A" font-family="sans-serif" font-size="14" lengthAdjust="spacing" textLength="75.3115" x="941.32" y="573.4917">(Container)</text><text fill="#1F2F4A" font-family="sans-serif" font-size="14" lengthAdjust="spacing" textLength="245.3691" x="941.32" y="589.98">Intent + routing + SPARQL planning</text></g><!--entity FAQ--><g class="entity" data-entity="FAQ" data-source-line="26" data-uid="ent0011" id="entity_FAQ"><rect fill="#F0F6FF" height="69.4648" rx="6" ry="6" style="stroke:#2B5FAB;stroke-width:0.5;" width="245.668" x="1406.17" y="641.4783"/><text fill="#1F2F4A" font-family="sans-serif" font-size="14" lengthAdjust="spacing" textLength="79.8027" x="1416.17" y="665.0134">FAQ Service</text><text fill="#1F2F4A" font-family="sans-serif" font-size="14" lengthAdjust="spacing" textLength="75.3115" x="1416.17" y="681.5017">(Container)</text><text fill="#1F2F4A" font-family="sans-serif" font-size="14" lengthAdjust="spacing" textLength="225.668" x="1416.17" y="697.99">Approved FAQ lookup + versions</text></g><!--entity RETRIEVAL--><g class="entity" data-entity="RETRIEVAL" data-source-line="27" data-uid="ent0012" id="entity_RETRIEVAL"><rect fill="#F0F6FF" height="69.4648" rx="6" ry="6" style="stroke:#2B5FAB;stroke-width:0.5;" width="206.8125" x="769.59" y="740.9383"/><text fill="#1F2F4A" font-family="sans-serif" font-size="14" lengthAdjust="spacing" textLength="110.25" x="779.59" y="764.4734">Retrieval Service</text><text fill="#1F2F4A" font-family="sans-serif" font-size="14" lengthAdjust="spacing" textLength="75.3115" x="779.59" y="780.9617">(Container)</text><text fill="#1F2F4A" font-family="sans-serif" font-size="14" lengthAdjust="spacing" textLength="186.8125" x="779.59" y="797.45">Embedding + vector search</text></g><!--entity NARRATION--><g class="entity" data-entity="NARRATION" data-source-line="28" data-uid="ent0013" id="entity_NARRATION"><rect fill="#F0F6FF" height="69.4648" rx="6" ry="6" style="stroke:#2B5FAB;stroke-width:0.5;" width="259.0049" x="2074.5" y="533.4683"/><text fill="#1F2F4A" font-family="sans-serif" font-size="14" lengthAdjust="spacing" textLength="147.0137" x="2084.5" y="557.0034">Narration LLM Service</text><text fill="#1F2F4A" font-family="sans-serif" font-size="14" lengthAdjust="spacing" textLength="75.3115" x="2084.5" y="573.4917">(Container)</text><text fill="#1F2F4A" font-family="sans-serif" font-size="14" lengthAdjust="spacing" textLength="239.0049" x="2084.5" y="589.98">Answer composition from evidence</text></g><!--entity GUARDRAILS--><g class="entity" data-entity="GUARDRAILS" data-source-line="29" data-uid="ent0014" id="entity_GUARDRAILS"><rect fill="#F0F6FF" height="69.4648" rx="6" ry="6" style="stroke:#2B5FAB;stroke-width:0.5;" width="294.9482" x="1727.53" y="740.9383"/><text fill="#1F2F4A" font-family="sans-serif" font-size="14" lengthAdjust="spacing" textLength="164.876" x="1737.53" y="764.4734">Policy Guardrails Service</text><text fill="#1F2F4A" font-family="sans-serif" font-size="14" lengthAdjust="spacing" textLength="75.3115" x="1737.53" y="780.9617">(Container)</text><text fill="#1F2F4A" font-family="sans-serif" font-size="14" lengthAdjust="spacing" textLength="274.9482" x="1737.53" y="797.45">SPARQL allowlist + citation + abstention</text></g><!--entity EDITORIAL--><g class="entity" data-entity="EDITORIAL" data-source-line="30" data-uid="ent0015" id="entity_EDITORIAL"><rect fill="#F0F6FF" height="69.4648" rx="6" ry="6" style="stroke:#2B5FAB;stroke-width:0.5;" width="228.7012" x="1656.65" y="641.4783"/><text fill="#1F2F4A" font-family="sans-serif" font-size="14" lengthAdjust="spacing" textLength="175.0957" x="1666.65" y="665.0134">Editorial Workflow Service</text><text fill="#1F2F4A" font-family="sans-serif" font-size="14" lengthAdjust="spacing" textLength="75.3115" x="1666.65" y="681.5017">(Container)</text><text fill="#1F2F4A" font-family="sans-serif" font-size="14" lengthAdjust="spacing" textLength="208.7012" x="1666.65" y="697.99">Draft/Review/Approve/Publish</text></g><!--entity PG--><g class="entity" data-entity="PG" data-source-line="31" data-uid="ent0016" id="entity_PG"><path d="M1565.22,912.4083 C1565.22,902.4083 1668.0008,902.4083 1668.0008,902.4083 C1668.0008,902.4083 1770.7815,902.4083 1770.7815,912.4083 L1770.7815,970.8731 C1770.7815,980.8731 1668.0008,980.8731 1668.0008,980.8731 C1668.0008,980.8731 1565.22,980.8731 1565.22,970.8731 L1565.22,912.4083" fill="#EEF5FF" style="stroke:#181818;stroke-width:0.5;"/><path d="M1565.22,912.4083 C1565.22,922.4083 1668.0008,922.4083 1668.0008,922.4083 C1668.0008,922.4083 1770.7815,922.4083 1770.7815,912.4083" fill="none" style="stroke:#181818;stroke-width:0.5;"/><text fill="#000000" font-family="sans-serif" font-size="14" lengthAdjust="spacing" textLength="76.8496" x="1575.22" y="939.9434">PostgreSQL</text><text fill="#000000" font-family="sans-serif" font-size="14" lengthAdjust="spacing" textLength="79.625" x="1575.22" y="956.4317">(Data Store)</text><text fill="#000000" font-family="sans-serif" font-size="14" lengthAdjust="spacing" textLength="185.5615" x="1575.22" y="972.92">FAQ, events, evidence links</text></g><!--entity VDB--><g class="entity" data-entity="VDB" data-source-line="32" data-uid="ent0017" id="entity_VDB"><path d="M744.24,912.4083 C744.24,902.4083 843.9959,902.4083 843.9959,902.4083 C843.9959,902.4083 943.7517,902.4083 943.7517,912.4083 L943.7517,970.8731 C943.7517,980.8731 843.9959,980.8731 843.9959,980.8731 C843.9959,980.8731 744.24,980.8731 744.24,970.8731 L744.24,912.4083" fill="#EEF5FF" style="stroke:#181818;stroke-width:0.5;"/><path d="M744.24,912.4083 C744.24,922.4083 843.9959,922.4083 843.9959,922.4083 C843.9959,922.4083 943.7517,922.4083 943.7517,912.4083" fill="none" style="stroke:#181818;stroke-width:0.5;"/><text fill="#000000" font-family="sans-serif" font-size="14" lengthAdjust="spacing" textLength="86.0371" x="754.24" y="939.9434">Vector Index</text><text fill="#000000" font-family="sans-serif" font-size="14" lengthAdjust="spacing" textLength="79.625" x="754.24" y="956.4317">(Data Store)</text><text fill="#000000" font-family="sans-serif" font-size="14" lengthAdjust="spacing" textLength="179.5117" x="754.24" y="972.92">Source chunk embeddings</text></g><!--entity SDB--><g class="entity" data-entity="SDB" data-source-line="33" data-uid="ent0018" id="entity_SDB"><path d="M1156.49,912.4083 C1156.49,902.4083 1276.0017,902.4083 1276.0017,902.4083 C1276.0017,902.4083 1395.5134,902.4083 1395.5134,912.4083 L1395.5134,970.8731 C1395.5134,980.8731 1276.0017,980.8731 1276.0017,980.8731 C1276.0017,980.8731 1156.49,980.8731 1156.49,970.8731 L1156.49,912.4083" fill="#EEF5FF" style="stroke:#181818;stroke-width:0.5;"/><path d="M1156.49,912.4083 C1156.49,922.4083 1276.0017,922.4083 1276.0017,922.4083 C1276.0017,922.4083 1395.5134,922.4083 1395.5134,912.4083" fill="none" style="stroke:#181818;stroke-width:0.5;"/><text fill="#000000" font-family="sans-serif" font-size="14" lengthAdjust="spacing" textLength="146.125" x="1166.49" y="939.9434">Semantic Graph Store</text><text fill="#000000" font-family="sans-serif" font-size="14" lengthAdjust="spacing" textLength="79.625" x="1166.49" y="956.4317">(Data Store)</text><text fill="#000000" font-family="sans-serif" font-size="14" lengthAdjust="spacing" textLength="219.0234" x="1166.49" y="972.92">GraphDB ontology + alignments</text></g><!--entity INGEST--><g class="entity" data-entity="INGEST" data-source-line="34" data-uid="ent0019" id="entity_INGEST"><rect fill="#F0F6FF" height="69.4648" rx="6" ry="6" style="stroke:#2B5FAB;stroke-width:0.5;" width="170.042" x="564.98" y="740.9383"/><text fill="#1F2F4A" font-family="sans-serif" font-size="14" lengthAdjust="spacing" textLength="115.4043" x="574.98" y="764.4734">Ingestion Worker</text><text fill="#1F2F4A" font-family="sans-serif" font-size="14" lengthAdjust="spacing" textLength="75.3115" x="574.98" y="780.9617">(Container)</text><text fill="#1F2F4A" font-family="sans-serif" font-size="14" lengthAdjust="spacing" textLength="150.042" x="574.98" y="797.45">Sync + chunk + index</text></g><!--entity PTO--><g class="entity" data-entity="PTO" data-source-line="16" data-uid="ent0002" id="entity_PTO"><ellipse cx="1085.0034" cy="51.4883" fill="#EAF2FF" rx="8" ry="8" style="stroke:#2B5FAB;stroke-width:0.5;"/><path d="M1085.0034,59.4883 L1085.0034,86.4883 M1072.0034,67.4883 L1098.0034,67.4883 M1085.0034,86.4883 L1072.0034,101.4883 M1085.0034,86.4883 L1098.0034,101.4883" fill="none" style="stroke:#2B5FAB;stroke-width:0.5;"/><text fill="#1F2F4A" font-family="sans-serif" font-size="14" lengthAdjust="spacing" textLength="27.4668" x="1071.27" y="116.5234">PTO</text></g><!--entity PTA--><g class="entity" data-entity="PTA" data-source-line="17" data-uid="ent0003" id="entity_PTA"><ellipse cx="1181" cy="51.4883" fill="#EAF2FF" rx="8" ry="8" style="stroke:#2B5FAB;stroke-width:0.5;"/><path d="M1181,59.4883 L1181,86.4883 M1168,67.4883 L1194,67.4883 M1181,86.4883 L1168,101.4883 M1181,86.4883 L1194,101.4883" fill="none" style="stroke:#2B5FAB;stroke-width:0.5;"/><text fill="#1F2F4A" font-family="sans-serif" font-size="14" lengthAdjust="spacing" textLength="26.25" x="1167.875" y="116.5234">PTA</text></g><!--entity DEV--><g class="entity" data-entity="DEV" data-source-line="18" data-uid="ent0004" id="entity_DEV"><ellipse cx="1290.9992" cy="51.4883" fill="#EAF2FF" rx="8" ry="8" style="stroke:#2B5FAB;stroke-width:0.5;"/><path d="M1290.9992,59.4883 L1290.9992,86.4883 M1277.9992,67.4883 L1303.9992,67.4883 M1290.9992,86.4883 L1277.9992,101.4883 M1290.9992,86.4883 L1303.9992,101.4883" fill="none" style="stroke:#2B5FAB;stroke-width:0.5;"/><text fill="#1F2F4A" font-family="sans-serif" font-size="14" lengthAdjust="spacing" textLength="68.3184" x="1256.84" y="116.5234">Developer</text></g><!--entity INTEGRATOR--><g class="entity" data-entity="INTEGRATOR" data-source-line="19" data-uid="ent0005" id="entity_INTEGRATOR"><ellipse cx="1432.9973" cy="51.4883" fill="#EAF2FF" rx="8" ry="8" style="stroke:#2B5FAB;stroke-width:0.5;"/><path d="M1432.9973,59.4883 L1432.9973,86.4883 M1419.9973,67.4883 L1445.9973,67.4883 M1432.9973,86.4883 L1419.9973,101.4883 M1432.9973,86.4883 L1445.9973,101.4883" fill="none" style="stroke:#2B5FAB;stroke-width:0.5;"/><text fill="#1F2F4A" font-family="sans-serif" font-size="14" lengthAdjust="spacing" textLength="144.8945" x="1360.55" y="116.5234">ITS System Integrator</text></g><!--entity TICKET--><g class="entity" data-entity="TICKET" data-source-line="20" data-uid="ent0006" id="entity_TICKET"><ellipse cx="1593.9984" cy="51.4883" fill="#EAF2FF" rx="8" ry="8" style="stroke:#2B5FAB;stroke-width:0.5;"/><path d="M1593.9984,59.4883 L1593.9984,86.4883 M1580.9984,67.4883 L1606.9984,67.4883 M1593.9984,86.4883 L1580.9984,101.4883 M1593.9984,86.4883 L1606.9984,101.4883" fill="none" style="stroke:#2B5FAB;stroke-width:0.5;"/><text fill="#1F2F4A" font-family="sans-serif" font-size="14" lengthAdjust="spacing" textLength="107.2969" x="1540.35" y="116.5234">Ticketing Agent</text></g><!--entity GITHUB--><g class="entity" data-entity="GITHUB" data-source-line="37" data-uid="ent0020" id="entity_GITHUB"><rect fill="#F8FBFF" height="36.4883" rx="6" ry="6" style="stroke:#2B5FAB;stroke-width:0.5;" width="225.3105" x="283.34" y="923.3883"/><text fill="#1F2F4A" font-family="sans-serif" font-size="14" lengthAdjust="spacing" textLength="205.3105" x="293.34" y="946.9234">Approved GitHub Repositories</text></g><!--entity CONTROLLER_LLM--><g class="entity" data-entity="CONTROLLER_LLM" data-source-line="38" data-uid="ent0021" id="entity_CONTROLLER_LLM"><rect fill="#F8FBFF" height="36.4883" rx="6" ry="6" style="stroke:#2B5FAB;stroke-width:0.5;" width="194.7197" x="2381.64" y="923.3883"/><text fill="#1F2F4A" font-family="sans-serif" font-size="14" lengthAdjust="spacing" textLength="174.7197" x="2391.64" y="946.9234">Controller Model Runtime</text></g><!--entity NARRATION_LLM--><g class="entity" data-entity="NARRATION_LLM" data-source-line="39" data-uid="ent0022" id="entity_NARRATION_LLM"><rect fill="#F8FBFF" height="36.4883" rx="6" ry="6" style="stroke:#2B5FAB;stroke-width:0.5;" width="190.3926" x="2611.8" y="923.3883"/><text fill="#1F2F4A" font-family="sans-serif" font-size="14" lengthAdjust="spacing" textLength="170.3926" x="2621.8" y="946.9234">Narration Model Runtime</text></g><g class="entity" data-entity="GMN60" data-source-line="86" data-uid="ent0061" id="entity_GMN60"><path d="M58.71,530.9183 L58.71,605.471 A6,6 0 0 0 64.71,611.471 L503.294,611.471 A6,6 0 0 0 509.294,605.471 L509.294,534.9183 L499.294,524.9183 L64.71,524.9183 A6,6 0 0 0 58.71,530.9183" fill="#FEFFDD" style="stroke:#181818;stroke-width:0.5;"/><path d="M499.294,524.9183 L499.294,531.9183 A3,3 0 0 0 502.294,534.9183 L509.294,534.9183 L499.294,524.9183" fill="#FEFFDD" style="stroke:#181818;stroke-width:1;"/><text fill="#000000" font-family="sans-serif" font-size="13" lengthAdjust="spacing" textLength="99.1948" x="64.71" y="542.4866">Decision policy:</text><text fill="#000000" font-family="sans-serif" font-size="13" lengthAdjust="spacing" textLength="246.9556" x="64.71" y="557.7972">1) Controller selects FAQ or RAG route.</text><text fill="#000000" font-family="sans-serif" font-size="13" lengthAdjust="spacing" textLength="429.584" x="64.71" y="573.1077">2) RAG route executes retrieval and graph expansion when enabled.</text><text fill="#000000" font-family="sans-serif" font-size="13" lengthAdjust="spacing" textLength="354.0913" x="64.71" y="588.4183">3) Narration composes answer from evidence pack only.</text><text fill="#000000" font-family="sans-serif" font-size="13" lengthAdjust="spacing" textLength="416.3682" x="64.71" y="603.7288">4) Guardrails enforce SPARQL/source/citation policy, else abstain.</text></g><g class="entity" data-entity="GMN63" data-source-line="94" data-uid="ent0064" id="entity_GMN63"><path d="M2836.98,927.3283 L2836.98,937.6383 L2802.68,941.6383 L2836.98,945.6383 L2836.98,955.9494 A6,6 0 0 0 2842.98,961.9494 L3261.0166,961.9494 A6,6 0 0 0 3267.0166,955.9494 L3267.0166,931.3283 L3257.0166,921.3283 L2842.98,921.3283 A6,6 0 0 0 2836.98,927.3283" fill="#FEFFDD" style="stroke:#181818;stroke-width:0.5;"/><path d="M3257.0166,921.3283 L3257.0166,928.3283 A3,3 0 0 0 3260.0166,931.3283 L3267.0166,931.3283 L3257.0166,921.3283" fill="#FEFFDD" style="stroke:#181818;stroke-width:0.5;"/><text fill="#000000" font-family="sans-serif" font-size="13" lengthAdjust="spacing" textLength="105.9551" x="2842.98" y="938.8966">Top layer: Users.</text><text fill="#000000" font-family="sans-serif" font-size="13" lengthAdjust="spacing" textLength="409.0366" x="2842.98" y="954.2072">Bottom layer: Approved source repositories and model runtimes.</text></g><!--link PTO to GUI--><g class="link" data-entity-1="PTO" data-entity-2="GUI" data-source-line="41" data-uid="lnk23" id="link_PTO_GUI"><path d="M1077.5,119.5983 C1076.46,136.1883 1078.83,154.5983 1091,166.4783 C1104.37,179.5383 1242.91,164.9783 1259,174.4783 C1280.8,187.3483 1292.4851,207.7261 1300.3751,227.4861" fill="none" id="PTO-to-GUI" style="stroke:#181818;stroke-width:1;"/><polygon fill="#181818" points="1302.6,233.0583,1302.9774,223.2167,1300.7459,228.4148,1295.5478,226.1832,1302.6,233.0583" style="stroke:#181818;stroke-width:1;"/><text fill="#000000" font-family="sans-serif" font-size="13" lengthAdjust="spacing" textLength="88.7275" x="1092" y="163.0466">Ask questions</text></g><!--link PTA to GUI--><g class="link" data-entity-1="PTA" data-entity-2="GUI" data-source-line="42" data-uid="lnk24" id="link_PTA_GUI"><path d="M1180.82,119.7483 C1182.78,136.3583 1188.09,154.7583 1201,166.4783 C1220.26,183.9783 1237.21,160.2583 1259,174.4783 C1280.06,188.2183 1291.7003,208.2307 1299.8003,227.6507" fill="none" id="PTA-to-GUI" style="stroke:#181818;stroke-width:1;"/><polygon fill="#181818" points="1302.11,233.1883,1302.3372,223.342,1300.1852,228.5736,1294.9537,226.4217,1302.11,233.1883" style="stroke:#181818;stroke-width:1;"/><text fill="#000000" font-family="sans-serif" font-size="13" lengthAdjust="spacing" textLength="88.7275" x="1202" y="163.0466">Ask questions</text></g><!--link DEV to GUI--><g class="link" data-entity-1="DEV" data-entity-2="GUI" data-source-line="43" data-uid="lnk25" id="link_DEV_GUI"><path d="M1295.24,119.7183 C1299.09,153.7583 1304.006,197.1263 1307.386,227.0263" fill="none" id="DEV-to-GUI" style="stroke:#181818;stroke-width:1;"/><polygon fill="#181818" points="1308.06,232.9883,1311.0237,223.5959,1307.4984,228.0199,1303.0744,224.4946,1308.06,232.9883" style="stroke:#181818;stroke-width:1;"/><text fill="#000000" font-family="sans-serif" font-size="13" lengthAdjust="spacing" textLength="88.7275" x="1301.4" y="163.0466">Ask questions</text></g><!--link INTEGRATOR to GUI--><g class="link" data-entity-1="INTEGRATOR" data-entity-2="GUI" data-source-line="44" data-uid="lnk26" id="link_INTEGRATOR_GUI"><path d="M1420.75,119.7483 C1414.97,134.8783 1407.29,152.1183 1398,166.4783 C1381.83,191.4683 1362.877,211.6931 1344.457,229.1331" fill="none" id="INTEGRATOR-to-GUI" style="stroke:#181818;stroke-width:1;"/><polygon fill="#181818" points="1340.1,233.2583,1349.3855,229.9752,1343.7308,229.8207,1343.8853,224.1659,1340.1,233.2583" style="stroke:#181818;stroke-width:1;"/><text fill="#000000" font-family="sans-serif" font-size="13" lengthAdjust="spacing" textLength="88.7275" x="1407.71" y="163.0466">Ask questions</text></g><!--link TICKET to GUI--><g class="link" data-entity-1="TICKET" data-entity-2="GUI" data-source-line="45" data-uid="lnk27" id="link_TICKET_GUI"><path d="M1559.43,119.8383 C1543.79,135.5083 1524.47,153.1183 1505,166.4783 C1458.7,198.2483 1405.3574,222.3912 1364.6674,238.7412" fill="none" id="TICKET-to-GUI" style="stroke:#181818;stroke-width:1;"/><polygon fill="#181818" points="1359.1,240.9783,1368.9424,241.3343,1363.7395,239.1141,1365.9597,233.9111,1359.1,240.9783" style="stroke:#181818;stroke-width:1;"/><text fill="#000000" font-family="sans-serif" font-size="13" lengthAdjust="spacing" textLength="88.7275" x="1527.32" y="163.0466">Ask questions</text></g><!--link PTO to PTA--><!--link PTA to DEV--><!--link DEV to INTEGRATOR--><!--link INTEGRATOR to TICKET--><!--link SYSTEM to GITHUB--><!--link GITHUB to CONTROLLER_LLM--><!--link CONTROLLER_LLM to NARRATION_LLM--><!--link GUI to API--><g class="link" data-entity-1="GUI" data-entity-2="API" data-source-line="58" data-uid="lnk35" id="link_GUI_API"><path d="M1311,286.9083 C1311,308.5283 1311,333.4783 1311,357.0983" fill="none" id="GUI-to-API" style="stroke:#181818;stroke-width:1;"/><polygon fill="#181818" points="1311,363.0983,1315,354.0983,1311,358.0983,1307,354.0983,1311,363.0983" style="stroke:#181818;stroke-width:1;"/><text fill="#000000" font-family="sans-serif" font-size="13" lengthAdjust="spacing" textLength="102.9146" x="1312" y="330.0266">Submit question</text></g><!--link API to CONTROLLER--><g class="link" data-entity-1="API" data-entity-2="CONTROLLER" data-source-line="59" data-uid="lnk36" id="link_API_CONTROLLER"><path d="M1204.29,413.1883 C1144.79,423.4283 1079.1,439.6183 1061,462.9183 C1045.78,482.5183 1046.3745,505.1488 1051.4545,527.3988" fill="none" id="API-to-CONTROLLER" style="stroke:#181818;stroke-width:1;"/><polygon fill="#181818" points="1052.79,533.2483,1054.6864,523.5837,1051.6771,528.3737,1046.8871,525.3644,1052.79,533.2483" style="stroke:#181818;stroke-width:1;"/><text fill="#000000" font-family="sans-serif" font-size="13" lengthAdjust="spacing" textLength="191.5532" x="1062" y="483.9866">Intent/routing/query planning</text></g><!--link API to FAQ--><g class="link" data-entity-1="API" data-entity-2="FAQ" data-source-line="60" data-uid="lnk37" id="link_API_FAQ"><path d="M1337.95,433.3083 C1379.87,486.3883 1456.5114,583.4196 1498.3914,636.4496" fill="none" id="API-to-FAQ" style="stroke:#181818;stroke-width:1;"/><polygon fill="#181818" points="1502.11,641.1583,1499.6712,631.6162,1499.0111,637.2344,1493.3929,636.5744,1502.11,641.1583" style="stroke:#181818;stroke-width:1;"/><text fill="#000000" font-family="sans-serif" font-size="13" lengthAdjust="spacing" textLength="151.8804" x="1384.28" y="483.9866">FAQ path when selected</text></g><!--link API to RETRIEVAL--><g class="link" data-entity-1="API" data-entity-2="RETRIEVAL" data-source-line="61" data-uid="lnk38" id="link_API_RETRIEVAL"><path d="M1204.2,406.7383 C1053.48,419.8783 790.18,452.7483 732,524.9183 C677.22,592.8783 737.11,645.6183 795,710.9383 C804.28,721.4083 810.7606,727.7293 821.6306,736.7393" fill="none" id="API-to-RETRIEVAL" style="stroke:#181818;stroke-width:1;"/><polygon fill="#181818" points="826.25,740.5683,821.8735,731.7452,822.4005,737.3775,816.7682,737.9044,826.25,740.5683" style="stroke:#181818;stroke-width:1;"/><text fill="#000000" font-family="sans-serif" font-size="13" lengthAdjust="spacing" textLength="180.1528" x="733" y="573.2666">Retrieval path when selected</text></g><!--link API to NARRATION--><g class="link" data-entity-1="API" data-entity-2="NARRATION" data-source-line="62" data-uid="lnk39" id="link_API_NARRATION"><path d="M1418.02,405.0683 C1532.21,412.7883 1717.9,429.4783 1875,462.9183 C1956.9,480.3583 2041.7752,507.8224 2107.0952,530.9924" fill="none" id="API-to-NARRATION" style="stroke:#181818;stroke-width:1;"/><polygon fill="#181818" points="2112.75,532.9983,2105.605,526.2197,2108.0377,531.3267,2102.9306,533.7594,2112.75,532.9983" style="stroke:#181818;stroke-width:1;"/><text fill="#000000" font-family="sans-serif" font-size="13" lengthAdjust="spacing" textLength="172.9863" x="1995.24" y="483.9866">Compose grounded answer</text></g><!--link API to GUARDRAILS--><g class="link" data-entity-1="API" data-entity-2="GUARDRAILS" data-source-line="63" data-uid="lnk40" id="link_API_GUARDRAILS"><path d="M1417.55,406.3883 C1525.74,415.2283 1684.71,432.8683 1738,462.9183 C1827.78,513.5483 1851.04,544.5083 1886,641.4783 C1897.61,673.6683 1893.6038,707.1472 1886.9238,734.6972" fill="none" id="API-to-GUARDRAILS" style="stroke:#181818;stroke-width:1;"/><polygon fill="#181818" points="1885.51,740.5283,1891.5181,732.7243,1886.6882,735.6691,1883.7434,730.8392,1885.51,740.5283" style="stroke:#181818;stroke-width:1;"/><text fill="#000000" font-family="sans-serif" font-size="13" lengthAdjust="spacing" textLength="171.3232" x="1874.56" y="573.2666">Validate plans and answers</text></g><!--link API to EDITORIAL--><g class="link" data-entity-1="API" data-entity-2="EDITORIAL" data-source-line="64" data-uid="lnk41" id="link_API_EDITORIAL"><path d="M1417.85,416.9983 C1459.01,426.7283 1505.37,441.3483 1544,462.9183 C1627.85,509.7583 1701.0029,589.4856 1740.1329,636.5256" fill="none" id="API-to-EDITORIAL" style="stroke:#181818;stroke-width:1;"/><polygon fill="#181818" points="1743.97,641.1383,1741.2896,631.6612,1740.7725,637.2944,1735.1393,636.7773,1743.97,641.1383" style="stroke:#181818;stroke-width:1;"/><text fill="#000000" font-family="sans-serif" font-size="13" lengthAdjust="spacing" textLength="138.417" x="1590.61" y="476.4866">Route low-confidence</text><text fill="#000000" font-family="sans-serif" font-size="13" lengthAdjust="spacing" textLength="119.9644" x="1599.8363" y="491.7972">or flagged answers</text></g><!--link API to PG--><g class="link" data-entity-1="API" data-entity-2="PG" data-source-line="65" data-uid="lnk42" id="link_API_PG"><path d="M1291.24,433.2783 C1259.64,492.6083 1205.69,617.4483 1251,710.9383 C1282.11,775.1383 1310.95,783.4283 1377,810.4083 C1434.73,833.9783 1611.64,796.5783 1656,840.4083 C1660.47,844.8183 1663.2506,869.7951 1665.2306,896.1551" fill="none" id="API-to-PG" style="stroke:#181818;stroke-width:1;"/><polygon fill="#181818" points="1665.68,902.1383,1668.9946,892.864,1665.3055,897.1523,1661.0171,893.4632,1665.68,902.1383" style="stroke:#181818;stroke-width:1;"/><text fill="#000000" font-family="sans-serif" font-size="13" lengthAdjust="spacing" textLength="136.2017" x="1252" y="673.7766">Store question events</text><text fill="#000000" font-family="sans-serif" font-size="13" lengthAdjust="spacing" textLength="89.1084" x="1275.5466" y="689.0872">and outcomes</text></g><!--link CONTROLLER to CONTROLLER_LLM--><g class="link" data-entity-1="CONTROLLER" data-entity-2="CONTROLLER_LLM" data-source-line="67" data-uid="lnk43" id="link_CONTROLLER_CONTROLLER_LLM"><path d="M1197.11,576.0883 C1457.83,589.9283 2017.92,621.4783 2104,641.4783 C2218.07,667.9683 2257.58,666.5183 2348,740.9383 C2411.71,793.3783 2453.1681,879.4427 2469.5181,917.6227" fill="none" id="CONTROLLER-to-CONTROLLER_LLM" style="stroke:#181818;stroke-width:1;"/><polygon fill="#181818" points="2471.88,923.1383,2472.0141,913.2903,2469.9117,918.542,2464.6601,916.4396,2471.88,923.1383" style="stroke:#181818;stroke-width:1;"/><text fill="#000000" font-family="sans-serif" font-size="13" lengthAdjust="spacing" textLength="140.207" x="2409.33" y="780.7366">Run controller prompt</text></g><!--link CONTROLLER to GUARDRAILS--><g class="link" data-entity-1="CONTROLLER" data-entity-2="GUARDRAILS" data-source-line="68" data-uid="lnk44" id="link_CONTROLLER_GUARDRAILS"><path d="M1043.67,603.3683 C1027.54,635.3983 1011.81,682.4883 1039,710.9383 C1064.44,737.5583 1664.44,736.5883 1701,740.9383 C1709.56,741.9583 1712.3859,742.2712 1721.2159,743.5912" fill="none" id="CONTROLLER-to-GUARDRAILS" style="stroke:#181818;stroke-width:1;"/><polygon fill="#181818" points="1727.15,744.4783,1718.8403,739.1916,1722.2049,743.739,1717.6575,747.1037,1727.15,744.4783" style="stroke:#181818;stroke-width:1;"/><text fill="#000000" font-family="sans-serif" font-size="13" lengthAdjust="spacing" textLength="179.2515" x="1040" y="681.2766">SPARQL/tool policy preflight</text></g><!--link CONTROLLER to RETRIEVAL--><g class="link" data-entity-1="CONTROLLER" data-entity-2="RETRIEVAL" data-source-line="69" data-uid="lnk45" id="link_CONTROLLER_RETRIEVAL"><path d="M933.62,603.3483 C875.11,619.2983 818.14,635.9683 814,641.4783 C795.45,666.1483 802.74,682.1883 814,710.9383 C818.24,721.7483 821.2945,727.3155 829.0445,736.1155" fill="none" id="CONTROLLER-to-RETRIEVAL" style="stroke:#181818;stroke-width:1;"/><polygon fill="#181818" points="833.01,740.6183,830.0636,731.2205,829.7054,736.866,824.0599,736.5078,833.01,740.6183" style="stroke:#181818;stroke-width:1;"/><text fill="#000000" font-family="sans-serif" font-size="13" lengthAdjust="spacing" textLength="176.0522" x="815" y="681.2766">Provide retrieval constraints</text></g><!--link CONTROLLER to SDB--><g class="link" data-entity-1="CONTROLLER" data-entity-2="SDB" data-source-line="70" data-uid="lnk46" id="link_CONTROLLER_SDB"><path d="M1035.58,603.1083 C1027.65,614.5683 1020.09,627.9183 1016,641.4783 C993.1,717.3283 1005.5,768.9083 1073,810.4083 C1127.59,843.9683 1604.88,793.9283 1649,840.4083 C1658.79,850.7183 1658.11,861.4783 1649,872.4083 C1640.71,882.3383 1507.7973,904.8873 1401.9173,921.5173" fill="none" id="CONTROLLER-to-SDB" style="stroke:#181818;stroke-width:1;"/><polygon fill="#181818" points="1395.99,922.4483,1405.5017,925.0034,1400.9294,921.6725,1404.2604,917.1003,1395.99,922.4483" style="stroke:#181818;stroke-width:1;"/><text fill="#000000" font-family="sans-serif" font-size="13" lengthAdjust="spacing" textLength="179.3594" x="1074" y="773.2366">Constrained SPARQL queries</text><text fill="#000000" font-family="sans-serif" font-size="13" lengthAdjust="spacing" textLength="87.3628" x="1119.9983" y="788.5472">when enabled</text></g><!--link FAQ to PG--><g class="link" data-entity-1="FAQ" data-entity-2="PG" data-source-line="71" data-uid="lnk47" id="link_FAQ_PG"><path d="M1428.58,711.2483 C1416.86,719.2283 1406.45,728.9983 1399,740.9383 C1382.67,767.1383 1378.44,787.3783 1399,810.4083 C1477.65,898.4883 1582.18,754.2983 1663,840.4083 C1671.23,849.1683 1672.2861,871.6133 1671.2861,895.9733" fill="none" id="FAQ-to-PG" style="stroke:#181818;stroke-width:1;"/><polygon fill="#181818" points="1671.04,901.9683,1675.4058,893.1399,1671.2451,896.9725,1667.4125,892.8118,1671.04,901.9683" style="stroke:#181818;stroke-width:1;"/><text fill="#000000" font-family="sans-serif" font-size="13" lengthAdjust="spacing" textLength="146.2246" x="1400" y="773.2366">Read/write FAQ entries</text><text fill="#000000" font-family="sans-serif" font-size="13" lengthAdjust="spacing" textLength="79.8979" x="1433.1633" y="788.5472">and versions</text></g><!--link RETRIEVAL to VDB--><g class="link" data-entity-1="RETRIEVAL" data-entity-2="VDB" data-source-line="72" data-uid="lnk48" id="link_RETRIEVAL_VDB"><path d="M976.78,804.7383 C1020.49,817.5983 1062.78,831.8483 1069,840.4083 C1077.36,851.9083 1077.47,860.9783 1069,872.4083 C1053.38,893.4683 1002.6037,909.2614 950.0637,921.0814" fill="none" id="RETRIEVAL-to-VDB" style="stroke:#181818;stroke-width:1;"/><polygon fill="#181818" points="944.21,922.3983,953.8685,924.3254,949.0881,921.3009,952.1126,916.5204,944.21,922.3983" style="stroke:#181818;stroke-width:1;"/><text fill="#000000" font-family="sans-serif" font-size="13" lengthAdjust="spacing" textLength="126.9849" x="1076.31" y="861.4766">Query top-k chunks</text></g><!--link RETRIEVAL to SDB--><g class="link" data-entity-1="RETRIEVAL" data-entity-2="SDB" data-source-line="73" data-uid="lnk49" id="link_RETRIEVAL_SDB"><path d="M976.71,804.6783 C985.58,806.7383 994.43,808.6783 1003,810.4083 C1094.57,828.8283 1132.33,790.0483 1211,840.4083 C1233.62,854.8783 1247.3416,874.9744 1257.9916,896.6244" fill="none" id="RETRIEVAL-to-SDB" style="stroke:#181818;stroke-width:1;"/><polygon fill="#181818" points="1260.64,902.0083,1260.2566,892.1669,1258.433,897.5217,1253.0781,895.6981,1260.64,902.0083" style="stroke:#181818;stroke-width:1;"/><text fill="#000000" font-family="sans-serif" font-size="13" lengthAdjust="spacing" textLength="205.5688" x="1243.91" y="853.9766">Graph-aware concept expansion</text><text fill="#000000" font-family="sans-serif" font-size="13" lengthAdjust="spacing" textLength="148.3384" x="1272.5252" y="869.2872">(SPARQL) when enabled</text></g><!--link RETRIEVAL to PG--><g class="link" data-entity-1="RETRIEVAL" data-entity-2="PG" data-source-line="74" data-uid="lnk50" id="link_RETRIEVAL_PG"><path d="M976.58,805.3983 C985.47,807.3083 994.37,809.0083 1003,810.4083 C1203.08,842.6583 1261.92,789.1683 1458,840.4083 C1461.58,841.3383 1524.6642,871.535 1582.4542,899.365" fill="none" id="RETRIEVAL-to-PG" style="stroke:#181818;stroke-width:1;"/><polygon fill="#181818" points="1587.86,901.9683,1581.4868,894.4595,1583.3551,899.7989,1578.0157,901.6672,1587.86,901.9683" style="stroke:#181818;stroke-width:1;"/><text fill="#000000" font-family="sans-serif" font-size="13" lengthAdjust="spacing" textLength="123.4302" x="1523.82" y="861.4766">Log retrieval events</text></g><!--link NARRATION to NARRATION_LLM--><g class="link" data-entity-1="NARRATION" data-entity-2="NARRATION_LLM" data-source-line="75" data-uid="lnk51" id="link_NARRATION_NARRATION_LLM"><path d="M2333.99,593.7783 C2377.69,604.9083 2425.78,620.4283 2467,641.4783 C2529.92,673.6083 2544.92,687.3783 2591,740.9383 C2642.38,800.6583 2680.8008,880.872 2697.0108,917.482" fill="none" id="NARRATION-to-NARRATION_LLM" style="stroke:#181818;stroke-width:1;"/><polygon fill="#181818" points="2699.44,922.9683,2699.4537,913.1194,2697.4157,918.3964,2692.1387,916.3583,2699.44,922.9683" style="stroke:#181818;stroke-width:1;"/><text fill="#000000" font-family="sans-serif" font-size="13" lengthAdjust="spacing" textLength="214.5698" x="2641.15" y="780.7366">Generate from evidence pack only</text></g><!--link NARRATION to GUARDRAILS--><g class="link" data-entity-1="NARRATION" data-entity-2="GUARDRAILS" data-source-line="76" data-uid="lnk52" id="link_NARRATION_GUARDRAILS"><path d="M2077.65,603.3883 C2067.28,606.1383 2056.97,608.8683 2047,611.4783 C1994.65,625.1783 1969.78,605.8983 1929,641.4783 C1913.58,654.9283 1897.54,700.0784 1886.72,734.9084" fill="none" id="NARRATION-to-GUARDRAILS" style="stroke:#181818;stroke-width:1;"/><polygon fill="#181818" points="1884.94,740.6383,1891.4299,733.2301,1886.4233,735.8634,1883.7901,730.8568,1884.94,740.6383" style="stroke:#181818;stroke-width:1;"/><text fill="#000000" font-family="sans-serif" font-size="13" lengthAdjust="spacing" textLength="165.2231" x="1930" y="681.2766">Citation and policy checks</text></g><!--link NARRATION to PG--><g class="link" data-entity-1="NARRATION" data-entity-2="PG" data-source-line="77" data-uid="lnk53" id="link_NARRATION_PG"><path d="M2186.34,603.3883 C2159.52,653.0583 2104.75,746.2483 2040,810.4083 C1967.7,882.0483 1859.7294,913.3596 1777.0094,927.8996" fill="none" id="NARRATION-to-PG" style="stroke:#181818;stroke-width:1;"/><polygon fill="#181818" points="1771.1,928.9383,1780.6566,931.3198,1776.0245,928.0727,1779.2716,923.4406,1771.1,928.9383" style="stroke:#181818;stroke-width:1;"/><text fill="#000000" font-family="sans-serif" font-size="13" lengthAdjust="spacing" textLength="240.3921" x="2098.83" y="780.7366">Write answer + citations + confidence</text></g><!--link GUARDRAILS to PG--><g class="link" data-entity-1="GUARDRAILS" data-entity-2="PG" data-source-line="78" data-uid="lnk54" id="link_GUARDRAILS_PG"><path d="M1831.86,810.8483 C1798.33,837.4083 1756.5034,870.533 1721.5934,898.183" fill="none" id="GUARDRAILS-to-PG" style="stroke:#181818;stroke-width:1;"/><polygon fill="#181818" points="1716.89,901.9083,1726.4287,899.456,1720.8095,898.8039,1721.4616,893.1847,1716.89,901.9083" style="stroke:#181818;stroke-width:1;"/><text fill="#000000" font-family="sans-serif" font-size="13" lengthAdjust="spacing" textLength="139.2295" x="1795.1945" y="853.9766">Write policy outcomes</text><text fill="#000000" font-family="sans-serif" font-size="13" lengthAdjust="spacing" textLength="147.5386" x="1791.04" y="869.2872">and abstention reasons</text></g><!--link EDITORIAL to PG--><g class="link" data-entity-1="EDITORIAL" data-entity-2="PG" data-source-line="79" data-uid="lnk55" id="link_EDITORIAL_PG"><path d="M1656.36,710.3783 C1612.49,723.6083 1572.1,736.7083 1569,740.9383 C1550.75,765.8383 1550.54,785.6583 1569,810.4083 C1597,847.9383 1642,802.8683 1670,840.4083 C1682.91,857.6983 1683.8638,875.8463 1680.3638,896.0563" fill="none" id="EDITORIAL-to-PG" style="stroke:#181818;stroke-width:1;"/><polygon fill="#181818" points="1679.34,901.9683,1684.8171,893.7828,1680.1932,897.0416,1676.9344,892.4177,1679.34,901.9683" style="stroke:#181818;stroke-width:1;"/><text fill="#000000" font-family="sans-serif" font-size="13" lengthAdjust="spacing" textLength="139.8516" x="1570" y="780.7366">Store review decisions</text></g><!--link INGEST to GITHUB--><g class="link" data-entity-1="INGEST" data-entity-2="GITHUB" data-source-line="80" data-uid="lnk56" id="link_INGEST_GITHUB"><path d="M564.74,784.1483 C521.24,791.9983 470.23,807.9783 435,840.4083 C411.09,862.4083 402.622,894.8843 399.032,917.2243" fill="none" id="INGEST-to-GITHUB" style="stroke:#181818;stroke-width:1;"/><polygon fill="#181818" points="398.08,923.1483,403.4573,914.8969,398.8733,918.2116,395.5586,913.6276,398.08,923.1483" style="stroke:#181818;stroke-width:1;"/><text fill="#000000" font-family="sans-serif" font-size="13" lengthAdjust="spacing" textLength="146.6499" x="436" y="861.4766">Pull allowlisted sources</text></g><!--link INGEST to VDB--><g class="link" data-entity-1="INGEST" data-entity-2="VDB" data-source-line="81" data-uid="lnk57" id="link_INGEST_VDB"><path d="M612.06,810.4783 C595.32,829.4983 582.39,853.2083 597,872.4083 C615.29,896.4283 677.7442,913.0452 737.9142,924.4052" fill="none" id="INGEST-to-VDB" style="stroke:#181818;stroke-width:1;"/><polygon fill="#181818" points="743.81,925.5183,735.7083,919.918,738.8968,924.5907,734.2242,927.7792,743.81,925.5183" style="stroke:#181818;stroke-width:1;"/><text fill="#000000" font-family="sans-serif" font-size="13" lengthAdjust="spacing" textLength="123.0811" x="598" y="861.4766">Upsert embeddings</text></g><!--link INGEST to SDB--><g class="link" data-entity-1="INGEST" data-entity-2="SDB" data-source-line="82" data-uid="lnk58" id="link_INGEST_SDB"><path d="M691.2,810.8583 C702.54,820.3583 714.79,830.7283 726,840.4083 C742.2,854.3983 742.54,863.4883 762,872.4083 C770.94,876.4983 1001.2273,906.0467 1150.2873,924.8667" fill="none" id="INGEST-to-SDB" style="stroke:#181818;stroke-width:1;"/><polygon fill="#181818" points="1156.24,925.6183,1147.8119,920.5224,1151.2794,924.992,1146.8098,928.4594,1156.24,925.6183" style="stroke:#181818;stroke-width:1;"/><text fill="#000000" font-family="sans-serif" font-size="13" lengthAdjust="spacing" textLength="117.4761" x="763.5205" y="853.9766">Load ontology and</text><text fill="#000000" font-family="sans-serif" font-size="13" lengthAdjust="spacing" textLength="118.5171" x="763" y="869.2872">alignment artifacts</text></g><!--link INGEST to PG--><g class="link" data-entity-1="INGEST" data-entity-2="PG" data-source-line="83" data-uid="lnk59" id="link_INGEST_PG"><path d="M735.52,805.6383 C741.08,807.3083 746.61,808.9083 752,810.4083 C810.82,826.6683 832.52,810.9883 886,840.4083 C903.62,850.0983 899.66,864.1483 918,872.4083 C1018.49,917.6383 1303.4,890.8883 1413,902.4083 C1463.2,907.6783 1512.7143,914.7771 1559.0543,922.1371" fill="none" id="INGEST-to-PG" style="stroke:#181818;stroke-width:1;"/><polygon fill="#181818" points="1564.98,923.0783,1556.7189,917.7161,1560.0419,922.294,1555.464,925.617,1564.98,923.0783" style="stroke:#181818;stroke-width:1;"/><text fill="#000000" font-family="sans-serif" font-size="13" lengthAdjust="spacing" textLength="141.3623" x="919" y="861.4766">Store source metadata</text></g><!--link API to GMN60--><g class="link" data-entity-1="API" data-entity-2="GMN60" data-source-line="86" data-uid="lnk62" id="link_API_GMN60"><path d="M1204.2,405.9383 C1082.65,414.6683 878.48,432.4683 705,462.9183 C614.52,478.8083 514.66,503.2283 434.92,524.4483" fill="none" id="API-GMN60" style="stroke:#181818;stroke-width:1;stroke-dasharray:7,7;"/></g><!--SRC=[fLVTSnet47-_lqAJF2GU1zEuIQVbeJDdE0XJOkC3EzEfEnrnju26Gxf80a8x-T-xAnttPTENlXWZhVRZjxk_NQom6R3-1pQ1FMJicdLONqdBXGJD1eAlDD-ojxVXj7yNH-mJP7aAPdCH16OZPCxfrgnvgWv2hjYIPmPgDrhjP9eeJRhUNzSl8B5Shj3oFm5ZDqgdeFigKvgzlhxvE0nly7I8RXHdxuVNmmyXIV9ait9QYvlXpyERuJ3uNjFD4uit_rDl5E8LwGsykbVJ-TqhnWt3p-eeB8x2qz60G5GvQ7SnY1vF5-FvZCsEniAMZQK5H1MFdT3uTXwDud1-5vzavoBPW2KymnL8wwJcu_vlqJm8Ak1UjNFYv6Q_p-RHPnTzJVGBBDZeOVmatvQvlN3YU5Z6sdXnlmDZXP8id8vPbztfP8q7pkk6bYSv3EyxIw6DVSVi6YIBmn7LGRP0I9qDql1wq8z-QTiWBLfb6HR7PFAPpK3lHG8jzOIMjEoIQibXSibcqp2-dx0yurBYYJFIlxkTntUJIHHZJVmm_Abj2xqyOo3CSwtsa38IoPJQx7AqiGTjC7pZbDFDYrfZi5h0dcTdT4VR1QIfzteFBhi6E6BfrCRHF1v7Z-7aPUMtN2FUb8Fpw8JI712-H6rpPOGJNcgrPR0NASW4d9tRCCRw6j_TlcndgZAH7DbentMgkSZC6Li5x9XQTSY4ePmamdeFBnbV64eKVYaAAum7SJYUp5us6gK2qH28t1UbDqjKUSRgGFEbxSOO41owHQwwqzq2FV0eHeCnziwuWMBABLzmuu8pTgLXTZz1lGCyPZEq2xvkto5EwBDvL-B5CY4tFkdJ4NP6DFpOKlZeqpYMANnhgvofdKOToNedDmnEkVVg7WStB-gRmPOZR0aRQPwllQgsNdU5xn4MPAVLaU3En4fkoNdVzWtjDPp7SbKqCk4CxUQT7ML2UNGUNp91KHMiD8fcynBIxmtcALjc9EodtOB5uAeFymdUdT5u_kdX9dYvrp-h50TDlCEejz1gth-mr8CNU-3vgxAitQC0YPbrEhywIkknq6pOruB33Dw5P- -GfC_ULTnyLiGJyzdhu0sRgvnb_0YwvqUJOHGKvYLbQuJiRqf7bXrz07-iHOgL-ASMgxL5dJHRdFVj2vejplNsHMsUrDrlYvq6oXkSajOYPHGkmZSBMc9V6ZUj35k0QqutLu9Yl9JQSEvBYjpdstyyjzNAR_FhS_5MOWbMWfVcI8_DTekji2N20Prs6ZPGo0-DRZ4okYYiZ-MyA9yGhVVStvpRDJlGz3AGOVL1MWfL9DrZ5Tt_nuEARNkuIH4l0_Eh1IQSExukPMiisMEFsDF82-0SnIAH9t5JobTSXyvWSCXNwj19b5nw-dgII4tBZAzMyFmn4bhFKqg9Ni5_JvACeJwS8u0rMyEoyonzP7edSUIK3OraiCrj-rKZDZyxkbOfnCxFcrp3CgECjn_M4PyYps1eo6WdvD4kxI42tMu_918ap0i1XA0OMPH_fAOdwJ86aYyoJ1WbliGb1fvs3reWf7IEgFWN1Cnf5mWgp-ZTepDtxshBghopyJJQ5lDUEGhly0D7z36417ABhPPZZb0pahBtz88rF6mgSdvErAe6XazVK9LSfzq-P1gGwwck6fi1bd2omOc2nDDytiXR_pJW2OSYSRW99fksKUVS5uUVhxlQTc3e_x96Wvg1ril2mAaGFVhLOe61SqDvgDgWLTVQhGaiXKIOWi3T6EkK74KrjSkoQel1AZ5kR3U4VMuVSWFQrYPvNSJdTQ9uMirbz1UTFercv7ahbiZvZNSrTxrXjWNBQI480gaGXONdOxKanWi6HIm5EBtW_GMh3LDFFtv5nTwdvPjO3ww2wulg6vOQ9FXfQhL3sAxSpb7MOQFwhe8VBrWrV_sA2UQKtZF5T1LykAYlaY2NYc8i2C17t2ttHXyKxb_ukz5b6llsAW1qZQ0e075pWV1e3eRQN7t0F9che3d9oYsbW5dNjXGN_TQj5Dgl5APczby0]--></g></svg>
