<svg xmlns="http://www.w3.org/2000/svg" xmlns:xlink="http://www.w3.org/1999/xlink" contentStyleType="text/css" data-diagram-type="ACTIVITY" height="2359px" preserveAspectRatio="none" style="width:584px;height:2359px;background:#FFFFFF;" version="1.1" viewBox="0 0 584 2359" width="584px" zoomAndPan="magnify"><title>Editor Review Process: Routing Score + Editorial Verdict</title><defs/><g><g class="title" data-source-line="1"><text fill="#000000" font-family="sans-serif" font-size="14" font-weight="bold" lengthAdjust="spacing" textLength="403.7578" x="89.0527" y="33.5352">Editor Review Process: Routing Score + Editorial Verdict</text></g><ellipse cx="297.4883" cy="57.4883" fill="#0F766E" rx="10" ry="10" style="stroke:#222222;stroke-width:1;"/><rect fill="none" height="136.7539" style="stroke:#000000;stroke-width:1.5;" width="218.248" x="188.3643" y="77.4883"/><path d="M238.375,77.4883 L238.375,86.9766 L228.375,96.9766 L188.3643,96.9766" fill="none" style="stroke:#000000;stroke-width:1.5;"/><text fill="#000000" font-family="sans-serif" font-size="14" lengthAdjust="spacing" textLength="40.0107" x="191.3643" y="92.0234">Editor</text><rect fill="#F9F6EF" height="34.1328" rx="12.5" ry="12.5" style="stroke:#8F7F67;stroke-width:0.5;" width="198.248" x="198.3643" y="113.9766"/><text fill="#1F2B26" font-family="sans-serif" font-size="12" lengthAdjust="spacing" textLength="178.248" x="208.3643" y="135.5781">Open Editor Review workspace</text><rect fill="#F9F6EF" height="34.1328" rx="12.5" ry="12.5" style="stroke:#8F7F67;stroke-width:0.5;" width="145.1914" x="224.8926" y="168.1094"/><text fill="#1F2B26" font-family="sans-serif" font-size="12" lengthAdjust="spacing" textLength="125.1914" x="234.8926" y="189.7109">Load review priorities</text><rect fill="none" height="96.7539" style="stroke:#000000;stroke-width:1.5;" width="227.6641" x="183.6563" y="224.2422"/><path d="M256.5332,224.2422 L256.5332,233.7305 L246.5332,243.7305 L183.6563,243.7305" fill="none" style="stroke:#000000;stroke-width:1.5;"/><text fill="#000000" font-family="sans-serif" font-size="14" lengthAdjust="spacing" textLength="62.877" x="186.6563" y="238.7773">Helpdesk</text><rect fill="#F9F6EF" height="48.2656" rx="12.5" ry="12.5" style="stroke:#8F7F67;stroke-width:0.5;" width="207.6641" x="193.6563" y="260.7305"/><text fill="#1F2B26" font-family="sans-serif" font-size="12" lengthAdjust="spacing" textLength="187.6641" x="203.6563" y="282.332">Aggregate top candidate intents</text><text fill="#1F2B26" font-family="sans-serif" font-size="12" lengthAdjust="spacing" textLength="140.9531" x="203.6563" y="296.4648">from question telemetry</text><rect fill="none" height="241.0195" style="stroke:#000000;stroke-width:1.5;" width="390.6953" x="75.624" y="330.9961"/><path d="M125.6348,330.9961 L125.6348,340.4844 L115.6348,350.4844 L75.624,350.4844" fill="none" style="stroke:#000000;stroke-width:1.5;"/><text fill="#000000" font-family="sans-serif" font-size="14" lengthAdjust="spacing" textLength="40.0107" x="78.624" y="345.5313">Editor</text><rect fill="#F9F6EF" height="34.1328" rx="12.5" ry="12.5" style="stroke:#8F7F67;stroke-width:0.5;" width="194.6797" x="200.1484" y="367.4844"/><text fill="#1F2B26" font-family="sans-serif" font-size="12" lengthAdjust="spacing" textLength="174.6797" x="210.1484" y="389.0859">Inspect Top Candidate Intents</text><polygon fill="#F3EDE0" points="243.7075,421.6172,351.269,421.6172,363.269,433.6172,351.269,445.6172,243.7075,445.6172,231.7075,433.6172,243.7075,421.6172" style="stroke:#8F7F67;stroke-width:0.5;"/><text fill="#1F2B26" font-family="sans-serif" font-size="11" lengthAdjust="spacing" textLength="107.5615" x="243.7075" y="437.7744">Intent worth review?</text><text fill="#000000" font-family="sans-serif" font-size="11" lengthAdjust="spacing" textLength="17.4829" x="214.2246" y="431.2969">yes</text><text fill="#000000" font-family="sans-serif" font-size="11" lengthAdjust="spacing" textLength="13.5835" x="363.269" y="431.2969">no</text><rect fill="#F9F6EF" height="34.1328" rx="12.5" ry="12.5" style="stroke:#8F7F67;stroke-width:0.5;" width="152.1523" x="128.7383" y="455.6172"/><text fill="#1F2B26" font-family="sans-serif" font-size="12" lengthAdjust="spacing" textLength="132.1523" x="138.7383" y="477.2188">Select candidate intent</text><rect fill="#F9F6EF" height="34.1328" rx="12.5" ry="12.5" style="stroke:#8F7F67;stroke-width:0.5;" width="218.3809" x="95.624" y="523.8828"/><text fill="#1F2B26" font-family="sans-serif" font-size="12" lengthAdjust="spacing" textLength="198.3809" x="105.624" y="545.4844">Load questions for selected intent</text><rect fill="#F9F6EF" height="48.2656" rx="12.5" ry="12.5" style="stroke:#8F7F67;stroke-width:0.5;" width="112.3145" x="334.0049" y="455.6172"/><text fill="#1F2B26" font-family="sans-serif" font-size="12" lengthAdjust="spacing" textLength="74.8828" x="344.0049" y="477.2188">Adjust filters</text><text fill="#1F2B26" font-family="sans-serif" font-size="12" lengthAdjust="spacing" textLength="92.3145" x="344.0049" y="491.3516">or monitor later</text><ellipse cx="390.1621" cy="549.0156" fill="none" rx="11" ry="11" style="stroke:#222222;stroke-width:1;"/><ellipse cx="390.1621" cy="549.0156" fill="#222222" rx="6" ry="6" style="stroke:#222222;stroke-width:1;"/><rect fill="none" height="165.0195" style="stroke:#000000;stroke-width:1.5;" width="253.0879" x="170.9443" y="582.0156"/><path d="M243.8213,582.0156 L243.8213,591.5039 L233.8213,601.5039 L170.9443,601.5039" fill="none" style="stroke:#000000;stroke-width:1.5;"/><text fill="#000000" font-family="sans-serif" font-size="14" lengthAdjust="spacing" textLength="62.877" x="173.9443" y="596.5508">Helpdesk</text><rect fill="#F9F6EF" height="48.2656" rx="12.5" ry="12.5" style="stroke:#8F7F67;stroke-width:0.5;" width="212.4805" x="191.248" y="618.5039"/><text fill="#1F2B26" font-family="sans-serif" font-size="12" lengthAdjust="spacing" textLength="192.4805" x="201.248" y="640.1055">Return matching question events</text><text fill="#1F2B26" font-family="sans-serif" font-size="12" lengthAdjust="spacing" textLength="106.1426" x="201.248" y="654.2383">for selected intent</text><rect fill="#F9F6EF" height="48.2656" rx="12.5" ry="12.5" style="stroke:#8F7F67;stroke-width:0.5;" width="233.0879" x="180.9443" y="686.7695"/><text fill="#1F2B26" font-family="sans-serif" font-size="12" lengthAdjust="spacing" textLength="213.0879" x="190.9443" y="708.3711">Compute routing score for matching</text><text fill="#1F2B26" font-family="sans-serif" font-size="12" lengthAdjust="spacing" textLength="109.043" x="190.9443" y="722.5039">and review routing</text><rect fill="none" height="413.2852" style="stroke:#000000;stroke-width:1.5;" width="562.8633" x="11" y="757.0352"/><path d="M61.0107,757.0352 L61.0107,766.5234 L51.0107,776.5234 L11,776.5234" fill="none" style="stroke:#000000;stroke-width:1.5;"/><text fill="#000000" font-family="sans-serif" font-size="14" lengthAdjust="spacing" textLength="40.0107" x="14" y="771.5703">Editor</text><rect fill="#F9F6EF" height="34.1328" rx="12.5" ry="12.5" style="stroke:#8F7F67;stroke-width:0.5;" width="180.4941" x="207.2412" y="793.5234"/><text fill="#1F2B26" font-family="sans-serif" font-size="12" lengthAdjust="spacing" textLength="160.4941" x="217.2412" y="815.125">Inspect matching questions</text><polygon fill="#F3EDE0" points="213.71,847.6563,381.2666,847.6563,393.2666,859.6563,381.2666,871.6563,213.71,871.6563,201.71,859.6563,213.71,847.6563" style="stroke:#8F7F67;stroke-width:0.5;"/><text fill="#1F2B26" font-family="sans-serif" font-size="11" lengthAdjust="spacing" textLength="167.5566" x="213.71" y="863.8135">Routing score below threshold?</text><text fill="#000000" font-family="sans-serif" font-size="11" lengthAdjust="spacing" textLength="17.4829" x="184.2271" y="857.3359">yes</text><text fill="#000000" font-family="sans-serif" font-size="11" lengthAdjust="spacing" textLength="13.5835" x="393.2666" y="857.3359">no</text><rect fill="#F9F6EF" height="34.1328" rx="12.5" ry="12.5" style="stroke:#8F7F67;stroke-width:0.5;" width="269.5449" x="23" y="881.6563"/><text fill="#1F2B26" font-family="sans-serif" font-size="12" lengthAdjust="spacing" textLength="249.5449" x="33" y="903.2578">System routes candidate to editorial queue</text><rect fill="#F9F6EF" height="34.1328" rx="12.5" ry="12.5" style="stroke:#8F7F67;stroke-width:0.5;" width="249.3184" x="312.5449" y="881.6563"/><text fill="#1F2B26" font-family="sans-serif" font-size="12" lengthAdjust="spacing" textLength="229.3184" x="322.5449" y="903.2578">System keeps FAQ/RAG automatic path</text><polygon fill="#F3EDE0" points="297.4883,921.7891,309.4883,933.7891,297.4883,945.7891,285.4883,933.7891,297.4883,921.7891" style="stroke:#8F7F67;stroke-width:0.5;"/><polygon fill="#F3EDE0" points="185.4419,965.7891,409.5347,965.7891,421.5347,977.7891,409.5347,989.7891,185.4419,989.7891,173.4419,977.7891,185.4419,965.7891" style="stroke:#8F7F67;stroke-width:0.5;"/><text fill="#1F2B26" font-family="sans-serif" font-size="11" lengthAdjust="spacing" textLength="224.0928" x="185.4419" y="981.9463">Editor manually sends question to review?</text><text fill="#000000" font-family="sans-serif" font-size="11" lengthAdjust="spacing" textLength="17.4829" x="155.959" y="975.4688">yes</text><text fill="#000000" font-family="sans-serif" font-size="11" lengthAdjust="spacing" textLength="13.5835" x="421.5347" y="975.4688">no</text><rect fill="#F9F6EF" height="34.1328" rx="12.5" ry="12.5" style="stroke:#8F7F67;stroke-width:0.5;" width="133.6133" x="96.6353" y="999.7891"/><text fill="#1F2B26" font-family="sans-serif" font-size="12" lengthAdjust="spacing" textLength="113.6133" x="106.6353" y="1021.3906">Select one question</text><rect fill="#F9F6EF" height="34.1328" rx="12.5" ry="12.5" style="stroke:#8F7F67;stroke-width:0.5;" width="152.252" x="87.3159" y="1068.0547"/><text fill="#1F2B26" font-family="sans-serif" font-size="12" lengthAdjust="spacing" textLength="132.252" x="97.3159" y="1089.6563">Set reason and priority</text><rect fill="#F9F6EF" height="34.1328" rx="12.5" ry="12.5" style="stroke:#8F7F67;stroke-width:0.5;" width="161.2695" x="82.8071" y="1124.1875"/><text fill="#1F2B26" font-family="sans-serif" font-size="12" lengthAdjust="spacing" textLength="141.2695" x="92.8071" y="1145.7891">Send selected for review</text><rect fill="#F9F6EF" height="48.2656" rx="12.5" ry="12.5" style="stroke:#8F7F67;stroke-width:0.5;" width="163.8125" x="349.6284" y="999.7891"/><text fill="#1F2B26" font-family="sans-serif" font-size="12" lengthAdjust="spacing" textLength="110.4609" x="359.6284" y="1021.3906">Return to priorities</text><text fill="#1F2B26" font-family="sans-serif" font-size="12" lengthAdjust="spacing" textLength="143.8125" x="359.6284" y="1035.5234">or choose another intent</text><ellipse cx="431.5347" cy="1093.1875" fill="none" rx="11" ry="11" style="stroke:#222222;stroke-width:1;"/><ellipse cx="431.5347" cy="1093.1875" fill="#222222" rx="6" ry="6" style="stroke:#222222;stroke-width:1;"/><rect fill="none" height="200.7539" style="stroke:#000000;stroke-width:1.5;" width="401.2876" x="94.5403" y="1180.3203"/><path d="M167.4172,1180.3203 L167.4172,1189.8086 L157.4172,1199.8086 L94.5403,1199.8086" fill="none" style="stroke:#000000;stroke-width:1.5;"/><text fill="#000000" font-family="sans-serif" font-size="14" lengthAdjust="spacing" textLength="62.877" x="97.5403" y="1194.8555">Helpdesk</text><rect fill="#F9F6EF" height="34.1328" rx="12.5" ry="12.5" style="stroke:#8F7F67;stroke-width:0.5;" width="172.7773" x="211.0996" y="1216.8086"/><text fill="#1F2B26" font-family="sans-serif" font-size="12" lengthAdjust="spacing" textLength="152.7773" x="221.0996" y="1238.4102">Create EditorialQueueItem</text><polygon fill="#F3EDE0" points="209.4641,1270.9414,385.5125,1270.9414,397.5125,1282.9414,385.5125,1294.9414,209.4641,1294.9414,197.4641,1282.9414,209.4641,1270.9414" style="stroke:#8F7F67;stroke-width:0.5;"/><text fill="#1F2B26" font-family="sans-serif" font-size="11" lengthAdjust="spacing" textLength="176.0483" x="209.4641" y="1287.0986">Reason is policy/user escalation?</text><text fill="#000000" font-family="sans-serif" font-size="11" lengthAdjust="spacing" textLength="17.4829" x="179.9812" y="1280.6211">yes</text><text fill="#000000" font-family="sans-serif" font-size="11" lengthAdjust="spacing" textLength="13.5835" x="397.5125" y="1280.6211">no</text><rect fill="#F9F6EF" height="34.1328" rx="12.5" ry="12.5" style="stroke:#8F7F67;stroke-width:0.5;" width="145.8477" x="114.5403" y="1304.9414"/><text fill="#1F2B26" font-family="sans-serif" font-size="12" lengthAdjust="spacing" textLength="125.8477" x="124.5403" y="1326.543">Initial status = review</text><rect fill="#F9F6EF" height="34.1328" rx="12.5" ry="12.5" style="stroke:#8F7F67;stroke-width:0.5;" width="136.6309" x="339.197" y="1304.9414"/><text fill="#1F2B26" font-family="sans-serif" font-size="12" lengthAdjust="spacing" textLength="116.6309" x="349.197" y="1326.543">Initial status = draft</text><polygon fill="#F3EDE0" points="297.4883,1345.0742,309.4883,1357.0742,297.4883,1369.0742,285.4883,1357.0742,297.4883,1345.0742" style="stroke:#8F7F67;stroke-width:0.5;"/><rect fill="none" height="441.9307" style="stroke:#000000;stroke-width:1.5;" width="285.5352" x="151.3911" y="1391.0742"/><path d="M201.4019,1391.0742 L201.4019,1400.5625 L191.4019,1410.5625 L151.3911,1410.5625" fill="none" style="stroke:#000000;stroke-width:1.5;"/><text fill="#000000" font-family="sans-serif" font-size="14" lengthAdjust="spacing" textLength="40.0107" x="154.3911" y="1405.6094">Editor</text><rect fill="#F9F6EF" height="34.1328" rx="12.5" ry="12.5" style="stroke:#8F7F67;stroke-width:0.5;" width="136.0742" x="229.4512" y="1427.5625"/><text fill="#1F2B26" font-family="sans-serif" font-size="12" lengthAdjust="spacing" textLength="116.0742" x="239.4512" y="1449.1641">Open Review Queue</text><rect fill="#F9F6EF" height="34.1328" rx="12.5" ry="12.5" style="stroke:#8F7F67;stroke-width:0.5;" width="211.2559" x="191.8604" y="1481.6953"/><text fill="#1F2B26" font-family="sans-serif" font-size="12" lengthAdjust="spacing" textLength="191.2559" x="201.8604" y="1503.2969">Inspect queue item and evidence</text><rect fill="#F9F6EF" height="34.1328" rx="12.5" ry="12.5" style="stroke:#8F7F67;stroke-width:0.5;" width="170.7559" x="212.1104" y="1584.3057"/><text fill="#1F2B26" font-family="sans-serif" font-size="12" lengthAdjust="spacing" textLength="150.7559" x="222.1104" y="1605.9072">Request changes or reject</text><ellipse cx="297.4883" cy="1657.8721" fill="none" rx="11" ry="11" style="stroke:#222222;stroke-width:1;"/><ellipse cx="297.4883" cy="1657.8721" fill="#222222" rx="6" ry="6" style="stroke:#222222;stroke-width:1;"/><polygon fill="#F3EDE0" points="231.9045,1535.8281,363.072,1535.8281,375.072,1547.8281,363.072,1559.8281,231.9045,1559.8281,219.9045,1547.8281,231.9045,1535.8281" style="stroke:#8F7F67;stroke-width:0.5;"/><text fill="#000000" font-family="sans-serif" font-size="11" lengthAdjust="spacing" textLength="17.4829" x="301.4883" y="1570.4629">yes</text><text fill="#1F2B26" font-family="sans-serif" font-size="11" lengthAdjust="spacing" textLength="131.1675" x="231.9045" y="1551.9854">Editor verdict: not good?</text><text fill="#000000" font-family="sans-serif" font-size="11" lengthAdjust="spacing" textLength="13.5835" x="375.072" y="1545.5078">no</text><polygon fill="#F3EDE0" points="242.4937,1710.8721,352.4829,1710.8721,364.4829,1722.8721,352.4829,1734.8721,242.4937,1734.8721,230.4937,1722.8721,242.4937,1710.8721" style="stroke:#8F7F67;stroke-width:0.5;"/><text fill="#1F2B26" font-family="sans-serif" font-size="11" lengthAdjust="spacing" textLength="109.9893" x="242.4937" y="1727.0293">Editor verdict: good?</text><text fill="#000000" font-family="sans-serif" font-size="11" lengthAdjust="spacing" textLength="17.4829" x="213.0107" y="1720.5518">yes</text><text fill="#000000" font-family="sans-serif" font-size="11" lengthAdjust="spacing" textLength="29.8525" x="364.4829" y="1720.5518">reject</text><rect fill="#F9F6EF" height="34.1328" rx="12.5" ry="12.5" style="stroke:#8F7F67;stroke-width:0.5;" width="98.2051" x="171.3911" y="1744.8721"/><text fill="#1F2B26" font-family="sans-serif" font-size="12" lengthAdjust="spacing" textLength="78.2051" x="181.3911" y="1766.4736">Approve item</text><rect fill="#F9F6EF" height="34.1328" rx="12.5" ry="12.5" style="stroke:#8F7F67;stroke-width:0.5;" width="84.8867" x="332.0396" y="1744.8721"/><text fill="#1F2B26" font-family="sans-serif" font-size="12" lengthAdjust="spacing" textLength="64.8867" x="342.0396" y="1766.4736">Reject item</text><ellipse cx="374.4829" cy="1810.0049" fill="none" rx="11" ry="11" style="stroke:#222222;stroke-width:1;"/><ellipse cx="374.4829" cy="1810.0049" fill="#222222" rx="6" ry="6" style="stroke:#222222;stroke-width:1;"/><rect fill="none" height="82.6211" style="stroke:#000000;stroke-width:1.5;" width="208.5801" x="193.1982" y="1843.0049"/><path d="M266.0752,1843.0049 L266.0752,1852.4932 L256.0752,1862.4932 L193.1982,1862.4932" fill="none" style="stroke:#000000;stroke-width:1.5;"/><text fill="#000000" font-family="sans-serif" font-size="14" lengthAdjust="spacing" textLength="62.877" x="196.1982" y="1857.54">Helpdesk</text><rect fill="#F9F6EF" height="34.1328" rx="12.5" ry="12.5" style="stroke:#8F7F67;stroke-width:0.5;" width="188.5801" x="203.1982" y="1879.4932"/><text fill="#1F2B26" font-family="sans-serif" font-size="12" lengthAdjust="spacing" textLength="168.5801" x="213.1982" y="1901.0947">Record transition audit event</text><rect fill="none" height="131.0986" style="stroke:#000000;stroke-width:1.5;" width="248.6206" x="202.4697" y="1935.626"/><path d="M252.4805,1935.626 L252.4805,1945.1143 L242.4805,1955.1143 L202.4697,1955.1143" fill="none" style="stroke:#000000;stroke-width:1.5;"/><text fill="#000000" font-family="sans-serif" font-size="14" lengthAdjust="spacing" textLength="40.0107" x="205.4697" y="1950.1611">Editor</text><rect fill="#F9F6EF" height="34.1328" rx="12.5" ry="12.5" style="stroke:#8F7F67;stroke-width:0.5;" width="150.0371" x="222.4697" y="2020.5918"/><text fill="#1F2B26" font-family="sans-serif" font-size="12" lengthAdjust="spacing" textLength="130.0371" x="232.4697" y="2042.1934">Publish approved item</text><polygon fill="#F3EDE0" points="230.2664,1972.1143,364.7102,1972.1143,376.7102,1984.1143,364.7102,1996.1143,230.2664,1996.1143,218.2664,1984.1143,230.2664,1972.1143" style="stroke:#8F7F67;stroke-width:0.5;"/><text fill="#000000" font-family="sans-serif" font-size="11" lengthAdjust="spacing" textLength="17.4829" x="301.4883" y="2006.749">yes</text><text fill="#1F2B26" font-family="sans-serif" font-size="11" lengthAdjust="spacing" textLength="134.4438" x="230.2664" y="1988.2715">Ready to publish as FAQ?</text><text fill="#000000" font-family="sans-serif" font-size="11" lengthAdjust="spacing" textLength="13.5835" x="376.7102" y="1981.7939">no</text><ellipse cx="412.2937" cy="1984.1143" fill="none" rx="11" ry="11" style="stroke:#222222;stroke-width:1;"/><ellipse cx="412.2937" cy="1984.1143" fill="#222222" rx="6" ry="6" style="stroke:#222222;stroke-width:1;"/><rect fill="none" height="136.7539" style="stroke:#000000;stroke-width:1.5;" width="257.207" x="168.8848" y="2076.7246"/><path d="M241.7617,2076.7246 L241.7617,2086.2129 L231.7617,2096.2129 L168.8848,2096.2129" fill="none" style="stroke:#000000;stroke-width:1.5;"/><text fill="#000000" font-family="sans-serif" font-size="14" lengthAdjust="spacing" textLength="62.877" x="171.8848" y="2091.2598">Helpdesk</text><rect fill="#F9F6EF" height="34.1328" rx="12.5" ry="12.5" style="stroke:#8F7F67;stroke-width:0.5;" width="237.207" x="178.8848" y="2113.2129"/><text fill="#1F2B26" font-family="sans-serif" font-size="12" lengthAdjust="spacing" textLength="217.207" x="188.8848" y="2134.8145">Create/update FAQ entry and version</text><rect fill="#F9F6EF" height="34.1328" rx="12.5" ry="12.5" style="stroke:#8F7F67;stroke-width:0.5;" width="179.2344" x="207.8711" y="2167.3457"/><text fill="#1F2B26" font-family="sans-serif" font-size="12" lengthAdjust="spacing" textLength="159.2344" x="217.8711" y="2188.9473">Mark queue item published</text><rect fill="none" height="82.6211" style="stroke:#000000;stroke-width:1.5;" width="177.5078" x="208.7344" y="2223.4785"/><path d="M258.7451,2223.4785 L258.7451,2232.9668 L248.7451,2242.9668 L208.7344,2242.9668" fill="none" style="stroke:#000000;stroke-width:1.5;"/><text fill="#000000" font-family="sans-serif" font-size="14" lengthAdjust="spacing" textLength="40.0107" x="211.7344" y="2238.0137">Editor</text><rect fill="#F9F6EF" height="34.1328" rx="12.5" ry="12.5" style="stroke:#8F7F67;stroke-width:0.5;" width="157.5078" x="218.7344" y="2259.9668"/><text fill="#1F2B26" font-family="sans-serif" font-size="12" lengthAdjust="spacing" textLength="137.5078" x="228.7344" y="2281.5684">View published FAQ list</text><ellipse cx="297.4883" cy="2337.0996" fill="none" rx="11" ry="11" style="stroke:#222222;stroke-width:1;"/><ellipse cx="297.4883" cy="2337.0996" fill="#222222" rx="6" ry="6" style="stroke:#222222;stroke-width:1;"/><line style="stroke:#181818;stroke-width:1;" x1="297.4883" x2="297.4883" y1="148.1094" y2="168.1094"/><polygon fill="#181818" points="293.4883,158.1094,297.4883,168.1094,301.4883,158.1094,297.4883,162.1094" style="stroke:#181818;stroke-width:1;"/><line style="stroke:#181818;stroke-width:1;" x1="297.4883" x2="297.4883" y1="67.4883" y2="113.9766"/><polygon fill="#181818" points="293.4883,103.9766,297.4883,113.9766,301.4883,103.9766,297.4883,107.9766" style="stroke:#181818;stroke-width:1;"/><line style="stroke:#181818;stroke-width:1;" x1="297.4883" x2="297.4883" y1="202.2422" y2="260.7305"/><polygon fill="#181818" points="293.4883,250.7305,297.4883,260.7305,301.4883,250.7305,297.4883,254.7305" style="stroke:#181818;stroke-width:1;"/><line style="stroke:#181818;stroke-width:1;" x1="204.8145" x2="204.8145" y1="489.75" y2="523.8828"/><polygon fill="#181818" points="200.8145,513.8828,204.8145,523.8828,208.8145,513.8828,204.8145,517.8828" style="stroke:#181818;stroke-width:1;"/><line style="stroke:#181818;stroke-width:1;" x1="390.1621" x2="390.1621" y1="503.8828" y2="538.0156"/><polygon fill="#181818" points="386.1621,528.0156,390.1621,538.0156,394.1621,528.0156,390.1621,532.0156" style="stroke:#181818;stroke-width:1;"/><line style="stroke:#181818;stroke-width:1;" x1="231.7075" x2="204.8145" y1="433.6172" y2="433.6172"/><line style="stroke:#181818;stroke-width:1;" x1="204.8145" x2="204.8145" y1="433.6172" y2="455.6172"/><polygon fill="#181818" points="200.8145,445.6172,204.8145,455.6172,208.8145,445.6172,204.8145,449.6172" style="stroke:#181818;stroke-width:1;"/><line style="stroke:#181818;stroke-width:1;" x1="363.269" x2="390.1621" y1="433.6172" y2="433.6172"/><line style="stroke:#181818;stroke-width:1;" x1="390.1621" x2="390.1621" y1="433.6172" y2="455.6172"/><polygon fill="#181818" points="386.1621,445.6172,390.1621,455.6172,394.1621,445.6172,390.1621,449.6172" style="stroke:#181818;stroke-width:1;"/><line style="stroke:#181818;stroke-width:1;" x1="204.8145" x2="204.8145" y1="558.0156" y2="565.0156"/><line style="stroke:#181818;stroke-width:1;" x1="204.8145" x2="297.4883" y1="565.0156" y2="565.0156"/><line style="stroke:#181818;stroke-width:1;" x1="297.4883" x2="297.4883" y1="565.0156" y2="618.5039"/><polygon fill="#181818" points="293.4883,608.5039,297.4883,618.5039,301.4883,608.5039,297.4883,612.5039" style="stroke:#181818;stroke-width:1;"/><line style="stroke:#181818;stroke-width:1;" x1="297.4883" x2="297.4883" y1="401.6172" y2="421.6172"/><polygon fill="#181818" points="293.4883,411.6172,297.4883,421.6172,301.4883,411.6172,297.4883,415.6172" style="stroke:#181818;stroke-width:1;"/><line style="stroke:#181818;stroke-width:1;" x1="297.4883" x2="297.4883" y1="308.9961" y2="367.4844"/><polygon fill="#181818" points="293.4883,357.4844,297.4883,367.4844,301.4883,357.4844,297.4883,361.4844" style="stroke:#181818;stroke-width:1;"/><line style="stroke:#181818;stroke-width:1;" x1="297.4883" x2="297.4883" y1="666.7695" y2="686.7695"/><polygon fill="#181818" points="293.4883,676.7695,297.4883,686.7695,301.4883,676.7695,297.4883,680.7695" style="stroke:#181818;stroke-width:1;"/><line style="stroke:#181818;stroke-width:1;" x1="201.71" x2="157.7725" y1="859.6563" y2="859.6563"/><line style="stroke:#181818;stroke-width:1;" x1="157.7725" x2="157.7725" y1="859.6563" y2="881.6563"/><polygon fill="#181818" points="153.7725,871.6563,157.7725,881.6563,161.7725,871.6563,157.7725,875.6563" style="stroke:#181818;stroke-width:1;"/><line style="stroke:#181818;stroke-width:1;" x1="393.2666" x2="437.2041" y1="859.6563" y2="859.6563"/><line style="stroke:#181818;stroke-width:1;" x1="437.2041" x2="437.2041" y1="859.6563" y2="881.6563"/><polygon fill="#181818" points="433.2041,871.6563,437.2041,881.6563,441.2041,871.6563,437.2041,875.6563" style="stroke:#181818;stroke-width:1;"/><line style="stroke:#181818;stroke-width:1;" x1="157.7725" x2="157.7725" y1="915.7891" y2="933.7891"/><line style="stroke:#181818;stroke-width:1;" x1="157.7725" x2="285.4883" y1="933.7891" y2="933.7891"/><polygon fill="#181818" points="275.4883,929.7891,285.4883,933.7891,275.4883,937.7891,279.4883,933.7891" style="stroke:#181818;stroke-width:1;"/><line style="stroke:#181818;stroke-width:1;" x1="437.2041" x2="437.2041" y1="915.7891" y2="933.7891"/><line style="stroke:#181818;stroke-width:1;" x1="437.2041" x2="309.4883" y1="933.7891" y2="933.7891"/><polygon fill="#181818" points="319.4883,929.7891,309.4883,933.7891,319.4883,937.7891,315.4883,933.7891" style="stroke:#181818;stroke-width:1;"/><line style="stroke:#181818;stroke-width:1;" x1="297.4883" x2="297.4883" y1="827.6563" y2="847.6563"/><polygon fill="#181818" points="293.4883,837.6563,297.4883,847.6563,301.4883,837.6563,297.4883,841.6563" style="stroke:#181818;stroke-width:1;"/><line style="stroke:#181818;stroke-width:1;" x1="163.4419" x2="163.4419" y1="1033.9219" y2="1068.0547"/><polygon fill="#181818" points="159.4419,1058.0547,163.4419,1068.0547,167.4419,1058.0547,163.4419,1062.0547" style="stroke:#181818;stroke-width:1;"/><line style="stroke:#181818;stroke-width:1;" x1="163.4419" x2="163.4419" y1="1102.1875" y2="1124.1875"/><polygon fill="#181818" points="159.4419,1114.1875,163.4419,1124.1875,167.4419,1114.1875,163.4419,1118.1875" style="stroke:#181818;stroke-width:1;"/><line style="stroke:#181818;stroke-width:1;" x1="431.5347" x2="431.5347" y1="1048.0547" y2="1082.1875"/><polygon fill="#181818" points="427.5347,1072.1875,431.5347,1082.1875,435.5347,1072.1875,431.5347,1076.1875" style="stroke:#181818;stroke-width:1;"/><line style="stroke:#181818;stroke-width:1;" x1="173.4419" x2="163.4419" y1="977.7891" y2="977.7891"/><line style="stroke:#181818;stroke-width:1;" x1="163.4419" x2="163.4419" y1="977.7891" y2="999.7891"/><polygon fill="#181818" points="159.4419,989.7891,163.4419,999.7891,167.4419,989.7891,163.4419,993.7891" style="stroke:#181818;stroke-width:1;"/><line style="stroke:#181818;stroke-width:1;" x1="421.5347" x2="431.5347" y1="977.7891" y2="977.7891"/><line style="stroke:#181818;stroke-width:1;" x1="431.5347" x2="431.5347" y1="977.7891" y2="999.7891"/><polygon fill="#181818" points="427.5347,989.7891,431.5347,999.7891,435.5347,989.7891,431.5347,993.7891" style="stroke:#181818;stroke-width:1;"/><line style="stroke:#181818;stroke-width:1;" x1="163.4419" x2="163.4419" y1="1158.3203" y2="1163.3203"/><line style="stroke:#181818;stroke-width:1;" x1="163.4419" x2="297.4883" y1="1163.3203" y2="1163.3203"/><line style="stroke:#181818;stroke-width:1;" x1="297.4883" x2="297.4883" y1="1163.3203" y2="1216.8086"/><polygon fill="#181818" points="293.4883,1206.8086,297.4883,1216.8086,301.4883,1206.8086,297.4883,1210.8086" style="stroke:#181818;stroke-width:1;"/><line style="stroke:#181818;stroke-width:1;" x1="297.4883" x2="297.4883" y1="945.7891" y2="965.7891"/><polygon fill="#181818" points="293.4883,955.7891,297.4883,965.7891,301.4883,955.7891,297.4883,959.7891" style="stroke:#181818;stroke-width:1;"/><line style="stroke:#181818;stroke-width:1;" x1="297.4883" x2="297.4883" y1="735.0352" y2="793.5234"/><polygon fill="#181818" points="293.4883,783.5234,297.4883,793.5234,301.4883,783.5234,297.4883,787.5234" style="stroke:#181818;stroke-width:1;"/><line style="stroke:#181818;stroke-width:1;" x1="197.4641" x2="187.4641" y1="1282.9414" y2="1282.9414"/><line style="stroke:#181818;stroke-width:1;" x1="187.4641" x2="187.4641" y1="1282.9414" y2="1304.9414"/><polygon fill="#181818" points="183.4641,1294.9414,187.4641,1304.9414,191.4641,1294.9414,187.4641,1298.9414" style="stroke:#181818;stroke-width:1;"/><line style="stroke:#181818;stroke-width:1;" x1="397.5125" x2="407.5125" y1="1282.9414" y2="1282.9414"/><line style="stroke:#181818;stroke-width:1;" x1="407.5125" x2="407.5125" y1="1282.9414" y2="1304.9414"/><polygon fill="#181818" points="403.5125,1294.9414,407.5125,1304.9414,411.5125,1294.9414,407.5125,1298.9414" style="stroke:#181818;stroke-width:1;"/><line style="stroke:#181818;stroke-width:1;" x1="187.4641" x2="187.4641" y1="1339.0742" y2="1357.0742"/><line style="stroke:#181818;stroke-width:1;" x1="187.4641" x2="285.4883" y1="1357.0742" y2="1357.0742"/><polygon fill="#181818" points="275.4883,1353.0742,285.4883,1357.0742,275.4883,1361.0742,279.4883,1357.0742" style="stroke:#181818;stroke-width:1;"/><line style="stroke:#181818;stroke-width:1;" x1="407.5125" x2="407.5125" y1="1339.0742" y2="1357.0742"/><line style="stroke:#181818;stroke-width:1;" x1="407.5125" x2="309.4883" y1="1357.0742" y2="1357.0742"/><polygon fill="#181818" points="319.4883,1353.0742,309.4883,1357.0742,319.4883,1361.0742,315.4883,1357.0742" style="stroke:#181818;stroke-width:1;"/><line style="stroke:#181818;stroke-width:1;" x1="297.4883" x2="297.4883" y1="1250.9414" y2="1270.9414"/><polygon fill="#181818" points="293.4883,1260.9414,297.4883,1270.9414,301.4883,1260.9414,297.4883,1264.9414" style="stroke:#181818;stroke-width:1;"/><line style="stroke:#181818;stroke-width:1;" x1="297.4883" x2="297.4883" y1="1461.6953" y2="1481.6953"/><polygon fill="#181818" points="293.4883,1471.6953,297.4883,1481.6953,301.4883,1471.6953,297.4883,1475.6953" style="stroke:#181818;stroke-width:1;"/><line style="stroke:#181818;stroke-width:1;" x1="297.4883" x2="297.4883" y1="1618.4385" y2="1646.8721"/><polygon fill="#181818" points="293.4883,1636.8721,297.4883,1646.8721,301.4883,1636.8721,297.4883,1640.8721" style="stroke:#181818;stroke-width:1;"/><line style="stroke:#181818;stroke-width:1;" x1="297.4883" x2="297.4883" y1="1559.8281" y2="1584.3057"/><polygon fill="#181818" points="293.4883,1574.3057,297.4883,1584.3057,301.4883,1574.3057,297.4883,1578.3057" style="stroke:#181818;stroke-width:1;"/><line style="stroke:#181818;stroke-width:1;" x1="375.072" x2="392.8662" y1="1547.8281" y2="1547.8281"/><polygon fill="#181818" points="388.8662,1616.8721,392.8662,1626.8721,396.8662,1616.8721,392.8662,1620.8721" style="stroke:#181818;stroke-width:1;"/><line style="stroke:#181818;stroke-width:1;" x1="392.8662" x2="392.8662" y1="1547.8281" y2="1690.8721"/><line style="stroke:#181818;stroke-width:1;" x1="392.8662" x2="297.4883" y1="1690.8721" y2="1690.8721"/><line style="stroke:#181818;stroke-width:1;" x1="297.4883" x2="297.4883" y1="1690.8721" y2="1710.8721"/><polygon fill="#181818" points="293.4883,1700.8721,297.4883,1710.8721,301.4883,1700.8721,297.4883,1704.8721" style="stroke:#181818;stroke-width:1;"/><line style="stroke:#181818;stroke-width:1;" x1="297.4883" x2="297.4883" y1="1515.8281" y2="1535.8281"/><polygon fill="#181818" points="293.4883,1525.8281,297.4883,1535.8281,301.4883,1525.8281,297.4883,1529.8281" style="stroke:#181818;stroke-width:1;"/><line style="stroke:#181818;stroke-width:1;" x1="374.4829" x2="374.4829" y1="1779.0049" y2="1799.0049"/><polygon fill="#181818" points="370.4829,1789.0049,374.4829,1799.0049,378.4829,1789.0049,374.4829,1793.0049" style="stroke:#181818;stroke-width:1;"/><line style="stroke:#181818;stroke-width:1;" x1="230.4937" x2="220.4937" y1="1722.8721" y2="1722.8721"/><line style="stroke:#181818;stroke-width:1;" x1="220.4937" x2="220.4937" y1="1722.8721" y2="1744.8721"/><polygon fill="#181818" points="216.4937,1734.8721,220.4937,1744.8721,224.4937,1734.8721,220.4937,1738.8721" style="stroke:#181818;stroke-width:1;"/><line style="stroke:#181818;stroke-width:1;" x1="364.4829" x2="374.4829" y1="1722.8721" y2="1722.8721"/><line style="stroke:#181818;stroke-width:1;" x1="374.4829" x2="374.4829" y1="1722.8721" y2="1744.8721"/><polygon fill="#181818" points="370.4829,1734.8721,374.4829,1744.8721,378.4829,1734.8721,374.4829,1738.8721" style="stroke:#181818;stroke-width:1;"/><line style="stroke:#181818;stroke-width:1;" x1="220.4937" x2="220.4937" y1="1779.0049" y2="1826.0049"/><line style="stroke:#181818;stroke-width:1;" x1="220.4937" x2="297.4883" y1="1826.0049" y2="1826.0049"/><line style="stroke:#181818;stroke-width:1;" x1="297.4883" x2="297.4883" y1="1826.0049" y2="1879.4932"/><polygon fill="#181818" points="293.4883,1869.4932,297.4883,1879.4932,301.4883,1869.4932,297.4883,1873.4932" style="stroke:#181818;stroke-width:1;"/><line style="stroke:#181818;stroke-width:1;" x1="297.4883" x2="297.4883" y1="1369.0742" y2="1427.5625"/><polygon fill="#181818" points="293.4883,1417.5625,297.4883,1427.5625,301.4883,1417.5625,297.4883,1421.5625" style="stroke:#181818;stroke-width:1;"/><line style="stroke:#181818;stroke-width:1;" x1="297.4883" x2="297.4883" y1="1996.1143" y2="2020.5918"/><polygon fill="#181818" points="293.4883,2010.5918,297.4883,2020.5918,301.4883,2010.5918,297.4883,2014.5918" style="stroke:#181818;stroke-width:1;"/><line style="stroke:#181818;stroke-width:1;" x1="376.7102" x2="401.2937" y1="1984.1143" y2="1984.1143"/><polygon fill="#181818" points="391.2937,1980.1143,401.2937,1984.1143,391.2937,1988.1143,395.2937,1984.1143" style="stroke:#181818;stroke-width:1;"/><line style="stroke:#181818;stroke-width:1;" x1="297.4883" x2="297.4883" y1="2054.7246" y2="2113.2129"/><polygon fill="#181818" points="293.4883,2103.2129,297.4883,2113.2129,301.4883,2103.2129,297.4883,2107.2129" style="stroke:#181818;stroke-width:1;"/><line style="stroke:#181818;stroke-width:1;" x1="297.4883" x2="297.4883" y1="1913.626" y2="1972.1143"/><polygon fill="#181818" points="293.4883,1962.1143,297.4883,1972.1143,301.4883,1962.1143,297.4883,1966.1143" style="stroke:#181818;stroke-width:1;"/><line style="stroke:#181818;stroke-width:1;" x1="297.4883" x2="297.4883" y1="2147.3457" y2="2167.3457"/><polygon fill="#181818" points="293.4883,2157.3457,297.4883,2167.3457,301.4883,2157.3457,297.4883,2161.3457" style="stroke:#181818;stroke-width:1;"/><line style="stroke:#181818;stroke-width:1;" x1="297.4883" x2="297.4883" y1="2201.4785" y2="2259.9668"/><polygon fill="#181818" points="293.4883,2249.9668,297.4883,2259.9668,301.4883,2249.9668,297.4883,2253.9668" style="stroke:#181818;stroke-width:1;"/><line style="stroke:#181818;stroke-width:1;" x1="297.4883" x2="297.4883" y1="2294.0996" y2="2326.0996"/><polygon fill="#181818" points="293.4883,2316.0996,297.4883,2326.0996,301.4883,2316.0996,297.4883,2320.0996" style="stroke:#181818;stroke-width:1;"/><!--SRC=[bLLDRzim3BtdLn3TfSKE_HhIDS4mP5cx1TYmDXrwwaMnw5YD8taIdI0Ozjz7oRBh96wttXA9V7nyV9H9KOvm9HKP2rDSALp3ZJK9EZU0gIb9wJdS9SOYl8rXIkHmZrQgX7ezjr2w45OiOIQInToQKiknoHbidId2rhtBX3Hh3vUAtBLlH49gfMW3lti0dtPWtgINQHzJVsEiH1jFtwSNQV-2Jw-DfdXscfxDplfyzbc9fT5o7-eS9Pwq0ZeHxqZO6l8alUZtaG-l6f1BSVxkz2mmtKdzmtBut5wF-o95ocWug3Gx2BqDVXIeTyHU6xjmXKXmw0E-6I71LZU5LImsANH33zt2_8fv8T4j8kfeFhSu5uH0fe14QAca_wSqeIRte5Dhbl2hH1VI2NDS8jdDBkmMrObs1IO4Fnbot41EAaZFLQLmMFtrFL0MQNyy0iguoyCDkYCEOwWxBiX8kyI6rMrekIRd86LfN4X0sGf4jWmSQXCXH_AnT0IfoWajTyX9FD2WQyuLR8NjM0-VotNJboMS8fLMmr9GadcBDcBXAahOJMimDikYv9PiN1KNLiL7rrWFclkkPnh3_alvFJADxDEjOZFCpPf5j-Woaykk0MmSuJ8KHzUQ0nd0PgMvIeaTKiVa1MBXu7fqUpmTVG5Hac5-Ae52K3PiH8u4eyMNGfSYppUid9QkvK3pJxCOZKtyiBuXJXEE0RoYSJqspIsVDHFo0wXAT7GKXyqidbOiM2Z9ZE58eGspibis_NyhZPaZuTDRUUjrdR24pVIg7fI3mkGgsHoNZekXImHRbn4xH9cmjVsC-7cXqi67vtlRYvHMf3HyXlh-unHVfTlQ38qRWpr0UIjuzJbCegvUhTR4LzLtOG0i8SoDwNBZ5CDWMMsXv-p7CAf7hh6jTAklBcyrbPwfCYeAQrOLuoUTga8D4V-dYNZTUy6h9u6iqAwA42NpgfwBbxOx6a1kWltAMQvS1Y8iLaSJDtL0rOpSwQQU-clDULmMOV-vA2Vnbo2Cb1LrSTi6tuLTj4SUcQ9yyUMw3v-jEZJ0yyzA3y_nBm00]--></g></svg>
