<svg xmlns="http://www.w3.org/2000/svg" xmlns:xlink="http://www.w3.org/1999/xlink" contentStyleType="text/css" data-diagram-type="ACTIVITY" height="1290px" preserveAspectRatio="none" style="width:895px;height:1290px;background:#FFFFFF;" version="1.1" viewBox="0 0 895 1290" width="895px" zoomAndPan="magnify"><title>Question to Answer Process (BPMN-style)</title><defs/><g><g class="title" data-source-line="1"><text fill="#000000" font-family="sans-serif" font-size="14" font-weight="bold" lengthAdjust="spacing" textLength="302.4219" x="294.8545" y="33.5352">Question to Answer Process (BPMN-style)</text></g><ellipse cx="351.0671" cy="57.4883" fill="#0F766E" rx="10" ry="10" style="stroke:#222222;stroke-width:1;"/><rect fill="none" height="82.6211" style="stroke:#000000;stroke-width:1.5;" width="203.7578" x="249.1882" y="77.4883"/><path d="M289.5535,77.4883 L289.5535,86.9766 L279.5535,96.9766 L249.1882,96.9766" fill="none" style="stroke:#000000;stroke-width:1.5;"/><text fill="#000000" font-family="sans-serif" font-size="14" lengthAdjust="spacing" textLength="30.3652" x="252.1882" y="92.0234">User</text><rect fill="#EEF6FB" height="34.1328" rx="12.5" ry="12.5" style="stroke:#4F6B86;stroke-width:0.5;" width="183.7578" x="259.1882" y="113.9766"/><text fill="#1F2B26" font-family="sans-serif" font-size="12" lengthAdjust="spacing" textLength="163.7578" x="269.1882" y="135.5781">Ask question in Helpdesk UI</text><rect fill="none" height="190.8867" style="stroke:#000000;stroke-width:1.5;" width="311.5996" x="195.2673" y="170.1094"/><path d="M268.1443,170.1094 L268.1443,179.5977 L258.1443,189.5977 L195.2673,189.5977" fill="none" style="stroke:#000000;stroke-width:1.5;"/><text fill="#000000" font-family="sans-serif" font-size="14" lengthAdjust="spacing" textLength="62.877" x="198.2673" y="184.6445">Helpdesk</text><rect fill="#EEF6FB" height="34.1328" rx="12.5" ry="12.5" style="stroke:#4F6B86;stroke-width:0.5;" width="165.5293" x="268.3025" y="206.5977"/><text fill="#1F2B26" font-family="sans-serif" font-size="12" lengthAdjust="spacing" textLength="145.5293" x="278.3025" y="228.1992">Receive question request</text><rect fill="#EEF6FB" height="34.1328" rx="12.5" ry="12.5" style="stroke:#4F6B86;stroke-width:0.5;" width="215.2344" x="243.45" y="260.7305"/><text fill="#1F2B26" font-family="sans-serif" font-size="12" lengthAdjust="spacing" textLength="195.2344" x="253.45" y="282.332">Parse intent, scope, and concepts</text><rect fill="#EEF6FB" height="34.1328" rx="12.5" ry="12.5" style="stroke:#4F6B86;stroke-width:0.5;" width="291.5996" x="205.2673" y="314.8633"/><text fill="#1F2B26" font-family="sans-serif" font-size="12" lengthAdjust="spacing" textLength="271.5996" x="215.2673" y="336.4648">Compute routing score and confidence signals</text><rect fill="none" height="506.1523" style="stroke:#000000;stroke-width:1.5;" width="873.1309" x="11" y="370.9961"/><path d="M83.877,370.9961 L83.877,380.4844 L73.877,390.4844 L11,390.4844" fill="none" style="stroke:#000000;stroke-width:1.5;"/><text fill="#000000" font-family="sans-serif" font-size="14" lengthAdjust="spacing" textLength="62.877" x="14" y="385.5313">Helpdesk</text><polygon fill="#E2EEF8" points="258.7756,407.4844,443.3586,407.4844,455.3586,419.4844,443.3586,431.4844,258.7756,431.4844,246.7756,419.4844,258.7756,407.4844" style="stroke:#4F6B86;stroke-width:0.5;"/><text fill="#1F2B26" font-family="sans-serif" font-size="11" lengthAdjust="spacing" textLength="184.583" x="258.7756" y="423.6416">FAQ match score above threshold?</text><text fill="#000000" font-family="sans-serif" font-size="11" lengthAdjust="spacing" textLength="17.4829" x="229.2927" y="417.1641">yes</text><text fill="#000000" font-family="sans-serif" font-size="11" lengthAdjust="spacing" textLength="13.5835" x="455.3586" y="417.1641">no</text><rect fill="#EEF6FB" height="34.1328" rx="12.5" ry="12.5" style="stroke:#4F6B86;stroke-width:0.5;" width="187.6895" x="23" y="441.4844"/><text fill="#1F2B26" font-family="sans-serif" font-size="12" lengthAdjust="spacing" textLength="167.6895" x="33" y="463.0859">Select published FAQ answer</text><rect fill="#EEF6FB" height="34.1328" rx="12.5" ry="12.5" style="stroke:#4F6B86;stroke-width:0.5;" width="138.7285" x="47.4805" y="495.6172"/><text fill="#1F2B26" font-family="sans-serif" font-size="12" lengthAdjust="spacing" textLength="118.7285" x="57.4805" y="517.2188">Attach FAQ citations</text><rect fill="#EEF6FB" height="34.1328" rx="12.5" ry="12.5" style="stroke:#4F6B86;stroke-width:0.5;" width="115.4141" x="59.1377" y="564.75"/><text fill="#1F2B26" font-family="sans-serif" font-size="12" lengthAdjust="spacing" textLength="95.4141" x="69.1377" y="586.3516">Set mode = FAQ</text><rect fill="#EEF6FB" height="34.1328" rx="12.5" ry="12.5" style="stroke:#4F6B86;stroke-width:0.5;" width="247.5371" x="461.521" y="441.4844"/><text fill="#1F2B26" font-family="sans-serif" font-size="12" lengthAdjust="spacing" textLength="227.5371" x="471.521" y="463.0859">Run RAG retrieval on approved sources</text><polygon fill="#E2EEF8" points="500.2195,495.6172,670.3596,495.6172,682.3596,507.6172,670.3596,519.6172,500.2195,519.6172,488.2195,507.6172,500.2195,495.6172" style="stroke:#4F6B86;stroke-width:0.5;"/><text fill="#1F2B26" font-family="sans-serif" font-size="11" lengthAdjust="spacing" textLength="170.1401" x="500.2195" y="511.7744">Evidence sufficient and aligned?</text><text fill="#000000" font-family="sans-serif" font-size="11" lengthAdjust="spacing" textLength="17.4829" x="470.7366" y="505.2969">yes</text><text fill="#000000" font-family="sans-serif" font-size="11" lengthAdjust="spacing" textLength="13.5835" x="682.3596" y="505.2969">no</text><rect fill="#EEF6FB" height="34.1328" rx="12.5" ry="12.5" style="stroke:#4F6B86;stroke-width:0.5;" width="177.2773" x="318.5166" y="529.6172"/><text fill="#1F2B26" font-family="sans-serif" font-size="12" lengthAdjust="spacing" textLength="157.2773" x="328.5166" y="551.2188">Generate grounded answer</text><rect fill="#EEF6FB" height="34.1328" rx="12.5" ry="12.5" style="stroke:#4F6B86;stroke-width:0.5;" width="207.2773" x="303.5166" y="598.75"/><text fill="#1F2B26" font-family="sans-serif" font-size="12" lengthAdjust="spacing" textLength="187.2773" x="313.5166" y="620.3516">Apply policy and citation checks</text><polygon fill="#E2EEF8" points="375.6995,652.8828,438.6111,652.8828,450.6111,664.8828,438.6111,676.8828,375.6995,676.8828,363.6995,664.8828,375.6995,652.8828" style="stroke:#4F6B86;stroke-width:0.5;"/><text fill="#1F2B26" font-family="sans-serif" font-size="11" lengthAdjust="spacing" textLength="62.9116" x="375.6995" y="669.04">Policy pass?</text><text fill="#000000" font-family="sans-serif" font-size="11" lengthAdjust="spacing" textLength="17.4829" x="346.2166" y="662.5625">yes</text><text fill="#000000" font-family="sans-serif" font-size="11" lengthAdjust="spacing" textLength="13.5835" x="450.6111" y="662.5625">no</text><rect fill="#EEF6FB" height="34.1328" rx="12.5" ry="12.5" style="stroke:#4F6B86;stroke-width:0.5;" width="115.918" x="250.6895" y="686.8828"/><text fill="#1F2B26" font-family="sans-serif" font-size="12" lengthAdjust="spacing" textLength="95.918" x="260.6895" y="708.4844">Set mode = RAG</text><rect fill="#EEF6FB" height="34.1328" rx="12.5" ry="12.5" style="stroke:#4F6B86;stroke-width:0.5;" width="133.707" x="438.8086" y="686.8828"/><text fill="#1F2B26" font-family="sans-serif" font-size="12" lengthAdjust="spacing" textLength="113.707" x="448.8086" y="708.4844">Set mode = abstain</text><rect fill="#EEF6FB" height="34.1328" rx="12.5" ry="12.5" style="stroke:#4F6B86;stroke-width:0.5;" width="238.1094" x="386.6074" y="741.0156"/><text fill="#1F2B26" font-family="sans-serif" font-size="12" lengthAdjust="spacing" textLength="218.1094" x="396.6074" y="762.6172">Set reason = policy or evidence block</text><polygon fill="#E2EEF8" points="407.1553,781.1484,419.1553,793.1484,407.1553,805.1484,395.1553,793.1484,407.1553,781.1484" style="stroke:#4F6B86;stroke-width:0.5;"/><rect fill="#EEF6FB" height="34.1328" rx="12.5" ry="12.5" style="stroke:#4F6B86;stroke-width:0.5;" width="133.707" x="696.5703" y="529.6172"/><text fill="#1F2B26" font-family="sans-serif" font-size="12" lengthAdjust="spacing" textLength="113.707" x="706.5703" y="551.2188">Set mode = abstain</text><rect fill="#EEF6FB" height="34.1328" rx="12.5" ry="12.5" style="stroke:#4F6B86;stroke-width:0.5;" width="217.4141" x="654.7168" y="598.75"/><text fill="#1F2B26" font-family="sans-serif" font-size="12" lengthAdjust="spacing" textLength="197.4141" x="664.7168" y="620.3516">Set reason = insufficient evidence</text><polygon fill="#E2EEF8" points="585.2896,811.1484,597.2896,823.1484,585.2896,835.1484,573.2896,823.1484,585.2896,811.1484" style="stroke:#4F6B86;stroke-width:0.5;"/><polygon fill="#E2EEF8" points="351.0671,841.1484,363.0671,853.1484,351.0671,865.1484,339.0671,853.1484,351.0671,841.1484" style="stroke:#4F6B86;stroke-width:0.5;"/><rect fill="none" height="243.3643" style="stroke:#000000;stroke-width:1.5;" width="265.7266" x="218.2039" y="887.1484"/><path d="M291.0808,887.1484 L291.0808,896.6367 L281.0808,906.6367 L218.2039,906.6367" fill="none" style="stroke:#000000;stroke-width:1.5;"/><text fill="#000000" font-family="sans-serif" font-size="14" lengthAdjust="spacing" textLength="62.877" x="221.2039" y="901.6836">Helpdesk</text><rect fill="#EEF6FB" height="48.2656" rx="12.5" ry="12.5" style="stroke:#4F6B86;stroke-width:0.5;" width="245.7266" x="228.2039" y="923.6367"/><text fill="#1F2B26" font-family="sans-serif" font-size="12" lengthAdjust="spacing" textLength="225.7266" x="238.2039" y="945.2383">Persist question event, retrieval traces,</text><text fill="#1F2B26" font-family="sans-serif" font-size="12" lengthAdjust="spacing" textLength="107.6191" x="238.2039" y="959.3711">and evidence links</text><rect fill="#EEF6FB" height="34.1328" rx="12.5" ry="12.5" style="stroke:#4F6B86;stroke-width:0.5;" width="178.7949" x="261.6697" y="1040.3799"/><text fill="#1F2B26" font-family="sans-serif" font-size="12" lengthAdjust="spacing" textLength="158.7949" x="271.6697" y="1061.9814">Create editorial queue item</text><polygon fill="#E2EEF8" points="306.1702,991.9023,395.9641,991.9023,407.9641,1003.9023,395.9641,1015.9023,306.1702,1015.9023,294.1702,1003.9023,306.1702,991.9023" style="stroke:#4F6B86;stroke-width:0.5;"/><text fill="#000000" font-family="sans-serif" font-size="11" lengthAdjust="spacing" textLength="17.4829" x="355.0671" y="1026.5371">yes</text><text fill="#1F2B26" font-family="sans-serif" font-size="11" lengthAdjust="spacing" textLength="89.7939" x="306.1702" y="1008.0596">Review required?</text><text fill="#000000" font-family="sans-serif" font-size="11" lengthAdjust="spacing" textLength="13.5835" x="407.9641" y="1001.582">no</text><polygon fill="#E2EEF8" points="351.0671,1094.5127,363.0671,1106.5127,351.0671,1118.5127,339.0671,1106.5127,351.0671,1094.5127" style="stroke:#4F6B86;stroke-width:0.5;"/><rect fill="none" height="96.7539" style="stroke:#000000;stroke-width:1.5;" width="266.5527" x="217.7908" y="1140.5127"/><path d="M258.156,1140.5127 L258.156,1150.001 L248.156,1160.001 L217.7908,1160.001" fill="none" style="stroke:#000000;stroke-width:1.5;"/><text fill="#000000" font-family="sans-serif" font-size="14" lengthAdjust="spacing" textLength="30.3652" x="220.7908" y="1155.0479">User</text><rect fill="#EEF6FB" height="48.2656" rx="12.5" ry="12.5" style="stroke:#4F6B86;stroke-width:0.5;" width="246.5527" x="227.7908" y="1177.001"/><text fill="#1F2B26" font-family="sans-serif" font-size="12" lengthAdjust="spacing" textLength="226.5527" x="237.7908" y="1198.6025">Receive answer or abstention response</text><text fill="#1F2B26" font-family="sans-serif" font-size="12" lengthAdjust="spacing" textLength="224.2148" x="237.7908" y="1212.7354">with traceable citations when available</text><ellipse cx="351.0671" cy="1268.2666" fill="none" rx="11" ry="11" style="stroke:#222222;stroke-width:1;"/><ellipse cx="351.0671" cy="1268.2666" fill="#222222" rx="6" ry="6" style="stroke:#222222;stroke-width:1;"/><line style="stroke:#181818;stroke-width:1;" x1="351.0671" x2="351.0671" y1="67.4883" y2="113.9766"/><polygon fill="#181818" points="347.0671,103.9766,351.0671,113.9766,355.0671,103.9766,351.0671,107.9766" style="stroke:#181818;stroke-width:1;"/><line style="stroke:#181818;stroke-width:1;" x1="351.0671" x2="351.0671" y1="240.7305" y2="260.7305"/><polygon fill="#181818" points="347.0671,250.7305,351.0671,260.7305,355.0671,250.7305,351.0671,254.7305" style="stroke:#181818;stroke-width:1;"/><line style="stroke:#181818;stroke-width:1;" x1="351.0671" x2="351.0671" y1="294.8633" y2="314.8633"/><polygon fill="#181818" points="347.0671,304.8633,351.0671,314.8633,355.0671,304.8633,351.0671,308.8633" style="stroke:#181818;stroke-width:1;"/><line style="stroke:#181818;stroke-width:1;" x1="351.0671" x2="351.0671" y1="148.1094" y2="206.5977"/><polygon fill="#181818" points="347.0671,196.5977,351.0671,206.5977,355.0671,196.5977,351.0671,200.5977" style="stroke:#181818;stroke-width:1;"/><line style="stroke:#181818;stroke-width:1;" x1="116.8447" x2="116.8447" y1="475.6172" y2="495.6172"/><polygon fill="#181818" points="112.8447,485.6172,116.8447,495.6172,120.8447,485.6172,116.8447,489.6172" style="stroke:#181818;stroke-width:1;"/><line style="stroke:#181818;stroke-width:1;" x1="116.8447" x2="116.8447" y1="529.75" y2="564.75"/><polygon fill="#181818" points="112.8447,554.75,116.8447,564.75,120.8447,554.75,116.8447,558.75" style="stroke:#181818;stroke-width:1;"/><line style="stroke:#181818;stroke-width:1;" x1="407.1553" x2="407.1553" y1="563.75" y2="598.75"/><polygon fill="#181818" points="403.1553,588.75,407.1553,598.75,411.1553,588.75,407.1553,592.75" style="stroke:#181818;stroke-width:1;"/><line style="stroke:#181818;stroke-width:1;" x1="505.6621" x2="505.6621" y1="721.0156" y2="741.0156"/><polygon fill="#181818" points="501.6621,731.0156,505.6621,741.0156,509.6621,731.0156,505.6621,735.0156" style="stroke:#181818;stroke-width:1;"/><line style="stroke:#181818;stroke-width:1;" x1="363.6995" x2="308.6484" y1="664.8828" y2="664.8828"/><line style="stroke:#181818;stroke-width:1;" x1="308.6484" x2="308.6484" y1="664.8828" y2="686.8828"/><polygon fill="#181818" points="304.6484,676.8828,308.6484,686.8828,312.6484,676.8828,308.6484,680.8828" style="stroke:#181818;stroke-width:1;"/><line style="stroke:#181818;stroke-width:1;" x1="450.6111" x2="505.6621" y1="664.8828" y2="664.8828"/><line style="stroke:#181818;stroke-width:1;" x1="505.6621" x2="505.6621" y1="664.8828" y2="686.8828"/><polygon fill="#181818" points="501.6621,676.8828,505.6621,686.8828,509.6621,676.8828,505.6621,680.8828" style="stroke:#181818;stroke-width:1;"/><line style="stroke:#181818;stroke-width:1;" x1="308.6484" x2="308.6484" y1="721.0156" y2="793.1484"/><line style="stroke:#181818;stroke-width:1;" x1="308.6484" x2="395.1553" y1="793.1484" y2="793.1484"/><polygon fill="#181818" points="385.1553,789.1484,395.1553,793.1484,385.1553,797.1484,389.1553,793.1484" style="stroke:#181818;stroke-width:1;"/><line style="stroke:#181818;stroke-width:1;" x1="505.6621" x2="505.6621" y1="775.1484" y2="793.1484"/><line style="stroke:#181818;stroke-width:1;" x1="505.6621" x2="419.1553" y1="793.1484" y2="793.1484"/><polygon fill="#181818" points="429.1553,789.1484,419.1553,793.1484,429.1553,797.1484,425.1553,793.1484" style="stroke:#181818;stroke-width:1;"/><line style="stroke:#181818;stroke-width:1;" x1="407.1553" x2="407.1553" y1="632.8828" y2="652.8828"/><polygon fill="#181818" points="403.1553,642.8828,407.1553,652.8828,411.1553,642.8828,407.1553,646.8828" style="stroke:#181818;stroke-width:1;"/><line style="stroke:#181818;stroke-width:1;" x1="763.4238" x2="763.4238" y1="563.75" y2="598.75"/><polygon fill="#181818" points="759.4238,588.75,763.4238,598.75,767.4238,588.75,763.4238,592.75" style="stroke:#181818;stroke-width:1;"/><line style="stroke:#181818;stroke-width:1;" x1="488.2195" x2="407.1553" y1="507.6172" y2="507.6172"/><line style="stroke:#181818;stroke-width:1;" x1="407.1553" x2="407.1553" y1="507.6172" y2="529.6172"/><polygon fill="#181818" points="403.1553,519.6172,407.1553,529.6172,411.1553,519.6172,407.1553,523.6172" style="stroke:#181818;stroke-width:1;"/><line style="stroke:#181818;stroke-width:1;" x1="682.3596" x2="763.4238" y1="507.6172" y2="507.6172"/><line style="stroke:#181818;stroke-width:1;" x1="763.4238" x2="763.4238" y1="507.6172" y2="529.6172"/><polygon fill="#181818" points="759.4238,519.6172,763.4238,529.6172,767.4238,519.6172,763.4238,523.6172" style="stroke:#181818;stroke-width:1;"/><line style="stroke:#181818;stroke-width:1;" x1="407.1553" x2="407.1553" y1="805.1484" y2="823.1484"/><line style="stroke:#181818;stroke-width:1;" x1="407.1553" x2="573.2896" y1="823.1484" y2="823.1484"/><polygon fill="#181818" points="563.2896,819.1484,573.2896,823.1484,563.2896,827.1484,567.2896,823.1484" style="stroke:#181818;stroke-width:1;"/><line style="stroke:#181818;stroke-width:1;" x1="763.4238" x2="763.4238" y1="632.8828" y2="823.1484"/><line style="stroke:#181818;stroke-width:1;" x1="763.4238" x2="597.2896" y1="823.1484" y2="823.1484"/><polygon fill="#181818" points="607.2896,819.1484,597.2896,823.1484,607.2896,827.1484,603.2896,823.1484" style="stroke:#181818;stroke-width:1;"/><line style="stroke:#181818;stroke-width:1;" x1="585.2896" x2="585.2896" y1="475.6172" y2="495.6172"/><polygon fill="#181818" points="581.2896,485.6172,585.2896,495.6172,589.2896,485.6172,585.2896,489.6172" style="stroke:#181818;stroke-width:1;"/><line style="stroke:#181818;stroke-width:1;" x1="246.7756" x2="116.8447" y1="419.4844" y2="419.4844"/><line style="stroke:#181818;stroke-width:1;" x1="116.8447" x2="116.8447" y1="419.4844" y2="441.4844"/><polygon fill="#181818" points="112.8447,431.4844,116.8447,441.4844,120.8447,431.4844,116.8447,435.4844" style="stroke:#181818;stroke-width:1;"/><line style="stroke:#181818;stroke-width:1;" x1="455.3586" x2="585.2896" y1="419.4844" y2="419.4844"/><line style="stroke:#181818;stroke-width:1;" x1="585.2896" x2="585.2896" y1="419.4844" y2="441.4844"/><polygon fill="#181818" points="581.2896,431.4844,585.2896,441.4844,589.2896,431.4844,585.2896,435.4844" style="stroke:#181818;stroke-width:1;"/><line style="stroke:#181818;stroke-width:1;" x1="116.8447" x2="116.8447" y1="598.8828" y2="853.1484"/><line style="stroke:#181818;stroke-width:1;" x1="116.8447" x2="339.0671" y1="853.1484" y2="853.1484"/><polygon fill="#181818" points="329.0671,849.1484,339.0671,853.1484,329.0671,857.1484,333.0671,853.1484" style="stroke:#181818;stroke-width:1;"/><line style="stroke:#181818;stroke-width:1;" x1="585.2896" x2="585.2896" y1="835.1484" y2="853.1484"/><line style="stroke:#181818;stroke-width:1;" x1="585.2896" x2="363.0671" y1="853.1484" y2="853.1484"/><polygon fill="#181818" points="373.0671,849.1484,363.0671,853.1484,373.0671,857.1484,369.0671,853.1484" style="stroke:#181818;stroke-width:1;"/><line style="stroke:#181818;stroke-width:1;" x1="351.0671" x2="351.0671" y1="348.9961" y2="407.4844"/><polygon fill="#181818" points="347.0671,397.4844,351.0671,407.4844,355.0671,397.4844,351.0671,401.4844" style="stroke:#181818;stroke-width:1;"/><line style="stroke:#181818;stroke-width:1;" x1="351.0671" x2="351.0671" y1="1015.9023" y2="1040.3799"/><polygon fill="#181818" points="347.0671,1030.3799,351.0671,1040.3799,355.0671,1030.3799,351.0671,1034.3799" style="stroke:#181818;stroke-width:1;"/><line style="stroke:#181818;stroke-width:1;" x1="407.9641" x2="450.4646" y1="1003.9023" y2="1003.9023"/><polygon fill="#181818" points="446.4646,1047.4463,450.4646,1057.4463,454.4646,1047.4463,450.4646,1051.4463" style="stroke:#181818;stroke-width:1;"/><line style="stroke:#181818;stroke-width:1;" x1="450.4646" x2="450.4646" y1="1003.9023" y2="1106.5127"/><line style="stroke:#181818;stroke-width:1;" x1="450.4646" x2="363.0671" y1="1106.5127" y2="1106.5127"/><polygon fill="#181818" points="373.0671,1102.5127,363.0671,1106.5127,373.0671,1110.5127,369.0671,1106.5127" style="stroke:#181818;stroke-width:1;"/><line style="stroke:#181818;stroke-width:1;" x1="351.0671" x2="351.0671" y1="1074.5127" y2="1094.5127"/><polygon fill="#181818" points="347.0671,1084.5127,351.0671,1094.5127,355.0671,1084.5127,351.0671,1088.5127" style="stroke:#181818;stroke-width:1;"/><line style="stroke:#181818;stroke-width:1;" x1="351.0671" x2="351.0671" y1="971.9023" y2="991.9023"/><polygon fill="#181818" points="347.0671,981.9023,351.0671,991.9023,355.0671,981.9023,351.0671,985.9023" style="stroke:#181818;stroke-width:1;"/><line style="stroke:#181818;stroke-width:1;" x1="351.0671" x2="351.0671" y1="865.1484" y2="923.6367"/><polygon fill="#181818" points="347.0671,913.6367,351.0671,923.6367,355.0671,913.6367,351.0671,917.6367" style="stroke:#181818;stroke-width:1;"/><line style="stroke:#181818;stroke-width:1;" x1="351.0671" x2="351.0671" y1="1118.5127" y2="1177.001"/><polygon fill="#181818" points="347.0671,1167.001,351.0671,1177.001,355.0671,1167.001,351.0671,1171.001" style="stroke:#181818;stroke-width:1;"/><line style="stroke:#181818;stroke-width:1;" x1="351.0671" x2="351.0671" y1="1225.2666" y2="1257.2666"/><polygon fill="#181818" points="347.0671,1247.2666,351.0671,1257.2666,355.0671,1247.2666,351.0671,1251.2666" style="stroke:#181818;stroke-width:1;"/><!--SRC=[VLJRJXin47tFLupeIv2eL5AKKY9K1Ggq3qKXY0_mUcVPKHpRjMSJHLN_lUFTE6pIYATTpUNCcUDZCx51U6emCZaBx61gune3p8BJ62CCRsQ_7Zz6tXWy7GpYWgnNGIsXK7hn6bnZorjdN81rJOozVAnLwTPaNw5I9lOpIZEjY3VmPm1mSm3p0R4QLqNAk51Ys4Olgd5nEPRelREyZPrNesAKOjz9BPqj_uSQ2TXbh-0euZEha24_LL_6OvJWtGxag_fySJvgcHwq_XKvKkzW87injVgTl4GC9-rcLzEuWDzPMBBm0uqlKO8lFoUfkTULKzlEEMga5Rvr1sn_9oavKo6Yu35QFeEedSSpKBO4xQn6px6jkdLBtp22wC7f4AGkO2whg4IfXKYlLWxdVJPKmV1- -WHBnRhEE8KJUbm7ZBKpvRTJ-KSBmmt6KscH-SzeK3FufZ0KQomXGQZMMfEkOigi1335DR5Ae-CaDpCiNObmdT8fY68X65gtHPyt5kRJ1z650-5A6H3UoliWj4g8hWdYtGuiqRzRvOMRgY9DebmhXJ8Y01wXBoCUq69Gec1dAO7jiq_ylJSRyCwGtdJ2RhS0NQDUn5oO2CowAgzYF3PiVsLPBFVkhtrOg0hn7zd9VZAWYaBYEbCJnsBUlp1EBtRWjgHgS6pCEqFsHv3jAPgdTAKPlVk-Q_SPXaYHt-oEgzRRRwVBGSc1dabn4dgtZY6RTDwQT2vnNBTtXSAnKxsw5U9oebWIkq22AnCRkKkCoqEJ7QFTkzlvXdQUI1eddOHrTrkZ5pEdTsHDN7ViLI7lxCxeybmADRLIP59YqZqcply3]--></g></svg>
