<svg xmlns="http://www.w3.org/2000/svg" xmlns:xlink="http://www.w3.org/1999/xlink" contentStyleType="text/css" data-diagram-type="CLASS" height="1128px" preserveAspectRatio="none" style="width:1088px;height:1128px;background:#FFFFFF;" version="1.1" viewBox="0 0 1088 1128" width="1088px" zoomAndPan="magnify"><title>NAPCORE Helpdesk Database Model (PlantUML)</title><defs/><g><g class="title" data-source-line="1"><text fill="#000000" font-family="sans-serif" font-size="14" font-weight="bold" lengthAdjust="spacing" textLength="343.2051" x="365.797" y="23.5352">NAPCORE Helpdesk Database Model (PlantUML)</text></g><!--class approved_repositories--><g class="entity" data-entity="approved_repositories" data-source-line="17" data-uid="ent0002" id="entity_approved_repositories"><rect fill="#F8FBFF" height="188.3945" rx="5" ry="5" style="stroke:#2B5FAB;stroke-width:0.5;" width="196.8438" x="34" y="44.4883"/><ellipse cx="55.1348" cy="60.4883" fill="#ADD1B2" rx="11" ry="11" style="stroke:#181818;stroke-width:1;"/><path d="M57.6079,66.6313 Q57.0269,66.9302 56.3877,67.0796 Q55.7485,67.229 55.043,67.229 Q52.5361,67.229 51.2163,65.5771 Q49.8965,63.9253 49.8965,60.8042 Q49.8965,57.6748 51.2163,56.0229 Q52.5361,54.3711 55.043,54.3711 Q55.7485,54.3711 56.396,54.5205 Q57.0435,54.6699 57.6079,54.9688 L57.6079,57.6914 Q56.9771,57.1104 56.3835,56.8406 Q55.79,56.5708 55.1592,56.5708 Q53.8145,56.5708 53.1296,57.6375 Q52.4448,58.7041 52.4448,60.8042 Q52.4448,62.896 53.1296,63.9626 Q53.8145,65.0293 55.1592,65.0293 Q55.79,65.0293 56.3835,64.7595 Q56.9771,64.4897 57.6079,63.9087 Z " fill="#000000"/><text fill="#1F2F4A" font-family="sans-serif" font-size="14" lengthAdjust="spacing" textLength="151.2109" x="70.498" y="65.7793">approved_repositories</text><line style="stroke:#2B5FAB;stroke-width:0.5;" x1="35" x2="229.8438" y1="76.4883" y2="76.4883"/><text fill="#000000" font-family="sans-serif" font-size="14" lengthAdjust="spacing" textLength="107.1738" x="40" y="94.0234">+id : UUID &#171;PK&#187;</text><text fill="#000000" font-family="sans-serif" font-size="14" lengthAdjust="spacing" textLength="179.751" x="40" y="110.5117">repository_url : TEXT &#171;UK&#187;</text><text fill="#000000" font-family="sans-serif" font-size="14" lengthAdjust="spacing" textLength="164.9512" x="40" y="127">repository_owner : TEXT</text><text fill="#000000" font-family="sans-serif" font-size="14" lengthAdjust="spacing" textLength="160.6377" x="40" y="143.4883">repository_name : TEXT</text><text fill="#000000" font-family="sans-serif" font-size="14" lengthAdjust="spacing" textLength="120.4834" x="40" y="159.9766">default_ref : TEXT</text><text fill="#000000" font-family="sans-serif" font-size="14" lengthAdjust="spacing" textLength="135.5635" x="40" y="176.4648">is_active : BOOLEAN</text><text fill="#000000" font-family="sans-serif" font-size="14" lengthAdjust="spacing" textLength="84.8066" x="40" y="192.9531">notes : TEXT</text><text fill="#000000" font-family="sans-serif" font-size="14" lengthAdjust="spacing" textLength="179.2314" x="40" y="209.4414">created_at : TIMESTAMPTZ</text><text fill="#000000" font-family="sans-serif" font-size="14" lengthAdjust="spacing" textLength="184.8438" x="40" y="225.9297">updated_at : TIMESTAMPTZ</text></g><!--class source_documents--><g class="entity" data-entity="source_documents" data-source-line="29" data-uid="ent0003" id="entity_source_documents"><rect fill="#F8FBFF" height="237.8594" rx="5" ry="5" style="stroke:#2B5FAB;stroke-width:0.5;" width="196.8438" x="110" y="292.8783"/><ellipse cx="141.8829" cy="308.8783" fill="#ADD1B2" rx="11" ry="11" style="stroke:#181818;stroke-width:1;"/><path d="M144.3561,315.0213 Q143.775,315.3202 143.1358,315.4696 Q142.4967,315.619 141.7911,315.619 Q139.2843,315.619 137.9645,313.9671 Q136.6446,312.3153 136.6446,309.1942 Q136.6446,306.0648 137.9645,304.4129 Q139.2843,302.7611 141.7911,302.7611 Q142.4967,302.7611 143.1441,302.9105 Q143.7916,303.0599 144.3561,303.3588 L144.3561,306.0814 Q143.7252,305.5004 143.1317,305.2306 Q142.5382,304.9608 141.9073,304.9608 Q140.5626,304.9608 139.8778,306.0275 Q139.193,307.0941 139.193,309.1942 Q139.193,311.286 139.8778,312.3526 Q140.5626,313.4193 141.9073,313.4193 Q142.5382,313.4193 143.1317,313.1495 Q143.7252,312.8797 144.3561,312.2987 Z " fill="#000000"/><text fill="#1F2F4A" font-family="sans-serif" font-size="14" lengthAdjust="spacing" textLength="127.3262" x="159.6347" y="314.1693">source_documents</text><line style="stroke:#2B5FAB;stroke-width:0.5;" x1="111" x2="305.8438" y1="324.8783" y2="324.8783"/><text fill="#000000" font-family="sans-serif" font-size="14" lengthAdjust="spacing" textLength="107.1738" x="116" y="342.4134">+id : UUID &#171;PK&#187;</text><text fill="#000000" font-family="sans-serif" font-size="14" lengthAdjust="spacing" textLength="171.8145" x="116" y="358.9017">repository_id : UUID &#171;FK&#187;</text><text fill="#000000" font-family="sans-serif" font-size="14" lengthAdjust="spacing" textLength="91.0342" x="116" y="375.39">git_ref : TEXT</text><text fill="#000000" font-family="sans-serif" font-size="14" lengthAdjust="spacing" textLength="129.0967" x="116" y="391.8783">commit_sha : TEXT</text><text fill="#000000" font-family="sans-serif" font-size="14" lengthAdjust="spacing" textLength="129.9375" x="116" y="408.3666">source_path : TEXT</text><text fill="#000000" font-family="sans-serif" font-size="14" lengthAdjust="spacing" textLength="151.5732" x="116" y="424.8548">document_type : TEXT</text><text fill="#000000" font-family="sans-serif" font-size="14" lengthAdjust="spacing" textLength="135.9189" x="116" y="441.3431">standard_tag : TEXT</text><text fill="#000000" font-family="sans-serif" font-size="14" lengthAdjust="spacing" textLength="125.2891" x="116" y="457.8314">version_tag : TEXT</text><text fill="#000000" font-family="sans-serif" font-size="14" lengthAdjust="spacing" textLength="138.0107" x="116" y="474.3197">content_hash : TEXT</text><text fill="#000000" font-family="sans-serif" font-size="14" lengthAdjust="spacing" textLength="183.4971" x="116" y="490.808">indexed_at : TIMESTAMPTZ</text><text fill="#000000" font-family="sans-serif" font-size="14" lengthAdjust="spacing" textLength="179.2314" x="116" y="507.2963">created_at : TIMESTAMPTZ</text><text fill="#000000" font-family="sans-serif" font-size="14" lengthAdjust="spacing" textLength="184.8438" x="116" y="523.7845">updated_at : TIMESTAMPTZ</text></g><!--class source_chunks--><g class="entity" data-entity="source_chunks" data-source-line="44" data-uid="ent0004" id="entity_source_chunks"><rect fill="#F8FBFF" height="171.9063" rx="5" ry="5" style="stroke:#2B5FAB;stroke-width:0.5;" width="191.2314" x="111.81" y="607.2283"/><ellipse cx="153.1583" cy="623.2283" fill="#ADD1B2" rx="11" ry="11" style="stroke:#181818;stroke-width:1;"/><path d="M155.6314,629.3713 Q155.0504,629.6702 154.4112,629.8196 Q153.7721,629.969 153.0665,629.969 Q150.5597,629.969 149.2398,628.3171 Q147.92,626.6653 147.92,623.5442 Q147.92,620.4148 149.2398,618.7629 Q150.5597,617.1111 153.0665,617.1111 Q153.7721,617.1111 154.4195,617.2605 Q155.067,617.4099 155.6314,617.7088 L155.6314,620.4314 Q155.0006,619.8504 154.4071,619.5806 Q153.8136,619.3108 153.1827,619.3108 Q151.838,619.3108 151.1532,620.3775 Q150.4683,621.4441 150.4683,623.5442 Q150.4683,625.636 151.1532,626.7026 Q151.838,627.7693 153.1827,627.7693 Q153.8136,627.7693 154.4071,627.4995 Q155.0006,627.2297 155.6314,626.6487 Z " fill="#000000"/><text fill="#1F2F4A" font-family="sans-serif" font-size="14" lengthAdjust="spacing" textLength="100.6797" x="173.0135" y="628.5193">source_chunks</text><line style="stroke:#2B5FAB;stroke-width:0.5;" x1="112.81" x2="302.0414" y1="639.2283" y2="639.2283"/><text fill="#000000" font-family="sans-serif" font-size="14" lengthAdjust="spacing" textLength="107.1738" x="117.81" y="656.7634">+id : UUID &#171;PK&#187;</text><text fill="#000000" font-family="sans-serif" font-size="14" lengthAdjust="spacing" textLength="170.8779" x="117.81" y="673.2517">document_id : UUID &#171;FK&#187;</text><text fill="#000000" font-family="sans-serif" font-size="14" lengthAdjust="spacing" textLength="157.0146" x="117.81" y="689.74">chunk_index : INTEGER</text><text fill="#000000" font-family="sans-serif" font-size="14" lengthAdjust="spacing" textLength="157.5205" x="117.81" y="706.2283">section_heading : TEXT</text><text fill="#000000" font-family="sans-serif" font-size="14" lengthAdjust="spacing" textLength="122.623" x="117.81" y="722.7166">chunk_text : TEXT</text><text fill="#000000" font-family="sans-serif" font-size="14" lengthAdjust="spacing" textLength="137.5391" x="117.81" y="739.2048">citation_label : TEXT</text><text fill="#000000" font-family="sans-serif" font-size="14" lengthAdjust="spacing" textLength="117.8037" x="117.81" y="755.6931">metadata : JSONB</text><text fill="#000000" font-family="sans-serif" font-size="14" lengthAdjust="spacing" textLength="179.2314" x="117.81" y="772.1814">created_at : TIMESTAMPTZ</text></g><!--class faq_entries--><g class="entity" data-entity="faq_entries" data-source-line="55" data-uid="ent0005" id="entity_faq_entries"><rect fill="#F8FBFF" height="204.8828" rx="5" ry="5" style="stroke:#2B5FAB;stroke-width:0.5;" width="242.0908" x="625.38" y="309.3683"/><ellipse cx="704.6119" cy="325.3683" fill="#ADD1B2" rx="11" ry="11" style="stroke:#181818;stroke-width:1;"/><path d="M707.0851,331.5113 Q706.504,331.8102 705.8649,331.9596 Q705.2257,332.109 704.5201,332.109 Q702.0133,332.109 700.6935,330.4571 Q699.3737,328.8053 699.3737,325.6842 Q699.3737,322.5548 700.6935,320.9029 Q702.0133,319.2511 704.5201,319.2511 Q705.2257,319.2511 705.8732,319.4005 Q706.5206,319.5499 707.0851,319.8488 L707.0851,322.5714 Q706.4542,321.9904 705.8607,321.7206 Q705.2672,321.4508 704.6363,321.4508 Q703.2916,321.4508 702.6068,322.5175 Q701.922,323.5841 701.922,325.6842 Q701.922,327.776 702.6068,328.8426 Q703.2916,329.9093 704.6363,329.9093 Q705.2672,329.9093 705.8607,329.6395 Q706.4542,329.3697 707.0851,328.7887 Z " fill="#000000"/><text fill="#1F2F4A" font-family="sans-serif" font-size="14" lengthAdjust="spacing" textLength="75.127" x="725.1119" y="330.6593">faq_entries</text><line style="stroke:#2B5FAB;stroke-width:0.5;" x1="626.38" x2="866.4708" y1="341.3683" y2="341.3683"/><text fill="#000000" font-family="sans-serif" font-size="14" lengthAdjust="spacing" textLength="107.1738" x="631.38" y="358.9034">+id : UUID &#171;PK&#187;</text><text fill="#000000" font-family="sans-serif" font-size="14" lengthAdjust="spacing" textLength="177.2285" x="631.38" y="375.3917">canonical_question : TEXT</text><text fill="#000000" font-family="sans-serif" font-size="14" lengthAdjust="spacing" textLength="208.5303" x="631.38" y="391.88">normalized_intent : TEXT &#171;UK&#187;</text><text fill="#000000" font-family="sans-serif" font-size="14" lengthAdjust="spacing" textLength="135.9189" x="631.38" y="408.3683">standard_tag : TEXT</text><text fill="#000000" font-family="sans-serif" font-size="14" lengthAdjust="spacing" textLength="124.3115" x="631.38" y="424.8566">status : faq_status</text><text fill="#000000" font-family="sans-serif" font-size="14" lengthAdjust="spacing" textLength="208.0996" x="631.38" y="441.3448">current_version_id : UUID &#171;FK&#187;</text><text fill="#000000" font-family="sans-serif" font-size="14" lengthAdjust="spacing" textLength="230.0908" x="631.38" y="457.8331">first_published_at : TIMESTAMPTZ</text><text fill="#000000" font-family="sans-serif" font-size="14" lengthAdjust="spacing" textLength="220.124" x="631.38" y="474.3214">last_reviewed_at : TIMESTAMPTZ</text><text fill="#000000" font-family="sans-serif" font-size="14" lengthAdjust="spacing" textLength="179.2314" x="631.38" y="490.8097">created_at : TIMESTAMPTZ</text><text fill="#000000" font-family="sans-serif" font-size="14" lengthAdjust="spacing" textLength="184.8438" x="631.38" y="507.298">updated_at : TIMESTAMPTZ</text></g><!--class faq_versions--><g class="entity" data-entity="faq_versions" data-source-line="68" data-uid="ent0006" id="entity_faq_versions"><rect fill="#F8FBFF" height="188.3945" rx="5" ry="5" style="stroke:#2B5FAB;stroke-width:0.5;" width="257.9092" x="617.47" y="598.9783"/><ellipse cx="699.638" cy="614.9783" fill="#ADD1B2" rx="11" ry="11" style="stroke:#181818;stroke-width:1;"/><path d="M702.1111,621.1213 Q701.5301,621.4202 700.8909,621.5696 Q700.2517,621.719 699.5462,621.719 Q697.0393,621.719 695.7195,620.0671 Q694.3997,618.4153 694.3997,615.2942 Q694.3997,612.1648 695.7195,610.5129 Q697.0393,608.8611 699.5462,608.8611 Q700.2517,608.8611 700.8992,609.0105 Q701.5467,609.1599 702.1111,609.4588 L702.1111,612.1814 Q701.4803,611.6004 700.8867,611.3306 Q700.2932,611.0608 699.6624,611.0608 Q698.3177,611.0608 697.6328,612.1275 Q696.948,613.1941 696.948,615.2942 Q696.948,617.386 697.6328,618.4526 Q698.3177,619.5193 699.6624,619.5193 Q700.2932,619.5193 700.8867,619.2495 Q701.4803,618.9797 702.1111,618.3987 Z " fill="#000000"/><text fill="#1F2F4A" font-family="sans-serif" font-size="14" lengthAdjust="spacing" textLength="85.0732" x="720.138" y="620.2693">faq_versions</text><line style="stroke:#2B5FAB;stroke-width:0.5;" x1="618.47" x2="874.3792" y1="630.9783" y2="630.9783"/><text fill="#000000" font-family="sans-serif" font-size="14" lengthAdjust="spacing" textLength="107.1738" x="623.47" y="648.5134">+id : UUID &#171;PK&#187;</text><text fill="#000000" font-family="sans-serif" font-size="14" lengthAdjust="spacing" textLength="166.2705" x="623.47" y="665.0017">faq_entry_id : UUID &#171;FK&#187;</text><text fill="#000000" font-family="sans-serif" font-size="14" lengthAdjust="spacing" textLength="179.6963" x="623.47" y="681.49">version_number : INTEGER</text><text fill="#000000" font-family="sans-serif" font-size="14" lengthAdjust="spacing" textLength="173.8174" x="623.47" y="697.9783">answer_markdown : TEXT</text><text fill="#000000" font-family="sans-serif" font-size="14" lengthAdjust="spacing" textLength="199.5957" x="623.47" y="714.4666">answer_mode : answer_mode</text><text fill="#000000" font-family="sans-serif" font-size="14" lengthAdjust="spacing" textLength="236.1338" x="623.47" y="730.9548">has_complete_citations : BOOLEAN</text><text fill="#000000" font-family="sans-serif" font-size="14" lengthAdjust="spacing" textLength="245.9092" x="623.47" y="747.4431">has_unsupported_claims : BOOLEAN</text><text fill="#000000" font-family="sans-serif" font-size="14" lengthAdjust="spacing" textLength="120.75" x="623.47" y="763.9314">created_by : TEXT</text><text fill="#000000" font-family="sans-serif" font-size="14" lengthAdjust="spacing" textLength="179.2314" x="623.47" y="780.4197">created_at : TIMESTAMPTZ</text></g><!--class review_events--><g class="entity" data-entity="review_events" data-source-line="81" data-uid="ent0007" id="entity_review_events"><rect fill="#F8FBFF" height="138.9297" rx="5" ry="5" style="stroke:#2B5FAB;stroke-width:0.5;" width="192.749" x="889.05" y="863.8683"/><ellipse cx="934.0168" cy="879.8683" fill="#ADD1B2" rx="11" ry="11" style="stroke:#181818;stroke-width:1;"/><path d="M936.4899,886.0113 Q935.9089,886.3102 935.2697,886.4596 Q934.6306,886.609 933.925,886.609 Q931.4182,886.609 930.0983,884.9571 Q928.7785,883.3053 928.7785,880.1842 Q928.7785,877.0548 930.0983,875.4029 Q931.4182,873.7511 933.925,873.7511 Q934.6306,873.7511 935.278,873.9005 Q935.9255,874.0499 936.4899,874.3488 L936.4899,877.0714 Q935.8591,876.4904 935.2656,876.2206 Q934.6721,875.9508 934.0412,875.9508 Q932.6965,875.9508 932.0117,877.0175 Q931.3269,878.0841 931.3269,880.1842 Q931.3269,882.276 932.0117,883.3426 Q932.6965,884.4093 934.0412,884.4093 Q934.6721,884.4093 935.2656,884.1395 Q935.8591,883.8697 936.4899,883.2887 Z " fill="#000000"/><text fill="#1F2F4A" font-family="sans-serif" font-size="14" lengthAdjust="spacing" textLength="94.3154" x="954.5168" y="885.1593">review_events</text><line style="stroke:#2B5FAB;stroke-width:0.5;" x1="890.05" x2="1080.799" y1="895.8683" y2="895.8683"/><text fill="#000000" font-family="sans-serif" font-size="14" lengthAdjust="spacing" textLength="107.1738" x="895.05" y="913.4034">+id : UUID &#171;PK&#187;</text><text fill="#000000" font-family="sans-serif" font-size="14" lengthAdjust="spacing" textLength="180.749" x="895.05" y="929.8917">faq_version_id : UUID &#171;FK&#187;</text><text fill="#000000" font-family="sans-serif" font-size="14" lengthAdjust="spacing" textLength="124.1406" x="895.05" y="946.38">reviewer_id : TEXT</text><text fill="#000000" font-family="sans-serif" font-size="14" lengthAdjust="spacing" textLength="176.2988" x="895.05" y="962.8683">decision : review_decision</text><text fill="#000000" font-family="sans-serif" font-size="14" lengthAdjust="spacing" textLength="135.2148" x="895.05" y="979.3566">review_notes : TEXT</text><text fill="#000000" font-family="sans-serif" font-size="14" lengthAdjust="spacing" textLength="179.2314" x="895.05" y="995.8448">created_at : TIMESTAMPTZ</text></g><!--class question_events--><g class="entity" data-entity="question_events" data-source-line="90" data-uid="ent0008" id="entity_question_events"><rect fill="#F8FBFF" height="204.8828" rx="5" ry="5" style="stroke:#2B5FAB;stroke-width:0.5;" width="243.7793" x="338.53" y="590.7383"/><ellipse cx="401.2121" cy="606.7383" fill="#ADD1B2" rx="11" ry="11" style="stroke:#181818;stroke-width:1;"/><path d="M403.6853,612.8813 Q403.1042,613.1802 402.4651,613.3296 Q401.8259,613.479 401.1203,613.479 Q398.6135,613.479 397.2937,611.8271 Q395.9738,610.1753 395.9738,607.0542 Q395.9738,603.9248 397.2937,602.2729 Q398.6135,600.6211 401.1203,600.6211 Q401.8259,600.6211 402.4734,600.7705 Q403.1208,600.9199 403.6853,601.2188 L403.6853,603.9414 Q403.0544,603.3604 402.4609,603.0906 Q401.8674,602.8208 401.2365,602.8208 Q399.8918,602.8208 399.207,603.8875 Q398.5222,604.9541 398.5222,607.0542 Q398.5222,609.146 399.207,610.2126 Q399.8918,611.2793 401.2365,611.2793 Q401.8674,611.2793 402.4609,611.0095 Q403.0544,610.7397 403.6853,610.1587 Z " fill="#000000"/><text fill="#1F2F4A" font-family="sans-serif" font-size="14" lengthAdjust="spacing" textLength="109.915" x="421.7121" y="612.0293">question_events</text><line style="stroke:#2B5FAB;stroke-width:0.5;" x1="339.53" x2="581.3093" y1="622.7383" y2="622.7383"/><text fill="#000000" font-family="sans-serif" font-size="14" lengthAdjust="spacing" textLength="107.1738" x="344.53" y="640.2734">+id : UUID &#171;PK&#187;</text><text fill="#000000" font-family="sans-serif" font-size="14" lengthAdjust="spacing" textLength="117.749" x="344.53" y="656.7617">session_id : TEXT</text><text fill="#000000" font-family="sans-serif" font-size="14" lengthAdjust="spacing" textLength="96.5576" x="344.53" y="673.25">user_id : TEXT</text><text fill="#000000" font-family="sans-serif" font-size="14" lengthAdjust="spacing" textLength="137.6006" x="344.53" y="689.7383">raw_question : TEXT</text><text fill="#000000" font-family="sans-serif" font-size="14" lengthAdjust="spacing" textLength="170.5908" x="344.53" y="706.2266">normalized_intent : TEXT</text><text fill="#000000" font-family="sans-serif" font-size="14" lengthAdjust="spacing" textLength="231.7793" x="344.53" y="722.7148">matched_faq_entry_id : UUID &#171;FK&#187;</text><text fill="#000000" font-family="sans-serif" font-size="14" lengthAdjust="spacing" textLength="199.5957" x="344.53" y="739.2031">answer_mode : answer_mode</text><text fill="#000000" font-family="sans-serif" font-size="14" lengthAdjust="spacing" textLength="178.7119" x="344.53" y="755.6914">feedback : feedback_value</text><text fill="#000000" font-family="sans-serif" font-size="14" lengthAdjust="spacing" textLength="172.0059" x="344.53" y="772.1797">abstention_reason : TEXT</text><text fill="#000000" font-family="sans-serif" font-size="14" lengthAdjust="spacing" textLength="179.2314" x="344.53" y="788.668">created_at : TIMESTAMPTZ</text></g><!--class retrieval_events--><g class="entity" data-entity="retrieval_events" data-source-line="104" data-uid="ent0009" id="entity_retrieval_events"><rect fill="#F8FBFF" height="155.418" rx="5" ry="5" style="stroke:#2B5FAB;stroke-width:0.5;" width="219.6211" x="21.61" y="855.6183"/><ellipse cx="74.0348" cy="871.6183" fill="#ADD1B2" rx="11" ry="11" style="stroke:#181818;stroke-width:1;"/><path d="M76.5079,877.7613 Q75.9269,878.0602 75.2877,878.2096 Q74.6486,878.359 73.943,878.359 Q71.4362,878.359 70.1163,876.7071 Q68.7965,875.0553 68.7965,871.9342 Q68.7965,868.8048 70.1163,867.1529 Q71.4362,865.5011 73.943,865.5011 Q74.6486,865.5011 75.296,865.6505 Q75.9435,865.7999 76.5079,866.0988 L76.5079,868.8214 Q75.8771,868.2404 75.2836,867.9706 Q74.6901,867.7008 74.0592,867.7008 Q72.7145,867.7008 72.0297,868.7675 Q71.3449,869.8341 71.3449,871.9342 Q71.3449,874.026 72.0297,875.0926 Q72.7145,876.1593 74.0592,876.1593 Q74.6901,876.1593 75.2836,875.8895 Q75.8771,875.6197 76.5079,875.0387 Z " fill="#000000"/><text fill="#1F2F4A" font-family="sans-serif" font-size="14" lengthAdjust="spacing" textLength="106.2715" x="94.5348" y="876.9093">retrieval_events</text><line style="stroke:#2B5FAB;stroke-width:0.5;" x1="22.61" x2="240.2311" y1="887.6183" y2="887.6183"/><text fill="#000000" font-family="sans-serif" font-size="14" lengthAdjust="spacing" textLength="107.1738" x="27.61" y="905.1534">+id : UUID &#171;PK&#187;</text><text fill="#000000" font-family="sans-serif" font-size="14" lengthAdjust="spacing" textLength="205.5908" x="27.61" y="921.6417">question_event_id : UUID &#171;FK&#187;</text><text fill="#000000" font-family="sans-serif" font-size="14" lengthAdjust="spacing" textLength="171.8145" x="27.61" y="938.13">repository_id : UUID &#171;FK&#187;</text><text fill="#000000" font-family="sans-serif" font-size="14" lengthAdjust="spacing" textLength="148.0527" x="27.61" y="954.6183">retrieval_query : TEXT</text><text fill="#000000" font-family="sans-serif" font-size="14" lengthAdjust="spacing" textLength="108.4932" x="27.61" y="971.1066">top_k : INTEGER</text><text fill="#000000" font-family="sans-serif" font-size="14" lengthAdjust="spacing" textLength="207.6211" x="27.61" y="987.5948">evidence_sufficient : BOOLEAN</text><text fill="#000000" font-family="sans-serif" font-size="14" lengthAdjust="spacing" textLength="179.2314" x="27.61" y="1004.0831">created_at : TIMESTAMPTZ</text></g><!--class answer_evidence_links--><g class="entity" data-entity="answer_evidence_links" data-source-line="115" data-uid="ent0010" id="entity_answer_evidence_links"><rect fill="#F8FBFF" height="138.9297" rx="5" ry="5" style="stroke:#2B5FAB;stroke-width:0.5;" width="217.5908" x="313.63" y="863.8683"/><ellipse cx="343.1443" cy="879.8683" fill="#ADD1B2" rx="11" ry="11" style="stroke:#181818;stroke-width:1;"/><path d="M345.6174,886.0113 Q345.0363,886.3102 344.3972,886.4596 Q343.758,886.609 343.0525,886.609 Q340.5456,886.609 339.2258,884.9571 Q337.906,883.3053 337.906,880.1842 Q337.906,877.0548 339.2258,875.4029 Q340.5456,873.7511 343.0525,873.7511 Q343.758,873.7511 344.4055,873.9005 Q345.0529,874.0499 345.6174,874.3488 L345.6174,877.0714 Q344.9865,876.4904 344.393,876.2206 Q343.7995,875.9508 343.1687,875.9508 Q341.8239,875.9508 341.1391,877.0175 Q340.4543,878.0841 340.4543,880.1842 Q340.4543,882.276 341.1391,883.3426 Q341.8239,884.4093 343.1687,884.4093 Q343.7995,884.4093 344.393,884.1395 Q344.9865,883.8697 345.6174,883.2887 Z " fill="#000000"/><text fill="#1F2F4A" font-family="sans-serif" font-size="14" lengthAdjust="spacing" textLength="153.3369" x="360.3696" y="885.1593">answer_evidence_links</text><line style="stroke:#2B5FAB;stroke-width:0.5;" x1="314.63" x2="530.2208" y1="895.8683" y2="895.8683"/><text fill="#000000" font-family="sans-serif" font-size="14" lengthAdjust="spacing" textLength="107.1738" x="319.63" y="913.4034">+id : UUID &#171;PK&#187;</text><text fill="#000000" font-family="sans-serif" font-size="14" lengthAdjust="spacing" textLength="180.749" x="319.63" y="929.8917">faq_version_id : UUID &#171;FK&#187;</text><text fill="#000000" font-family="sans-serif" font-size="14" lengthAdjust="spacing" textLength="205.5908" x="319.63" y="946.38">question_event_id : UUID &#171;FK&#187;</text><text fill="#000000" font-family="sans-serif" font-size="14" lengthAdjust="spacing" textLength="196.3555" x="319.63" y="962.8683">source_chunk_id : UUID &#171;FK&#187;</text><text fill="#000000" font-family="sans-serif" font-size="14" lengthAdjust="spacing" textLength="122.8486" x="319.63" y="979.3566">claim_label : TEXT</text><text fill="#000000" font-family="sans-serif" font-size="14" lengthAdjust="spacing" textLength="179.2314" x="319.63" y="995.8448">created_at : TIMESTAMPTZ</text></g><g class="entity" data-entity="GMN22" data-source-line="140" data-uid="ent0023" id="entity_GMN22"><path d="M566.61,918.0183 L566.61,929.0383 L531.71,933.0383 L566.61,937.0383 L566.61,948.6394 A5,5 0 0 0 571.61,953.6394 L849.237,953.6394 A5,5 0 0 0 854.237,948.6394 L854.237,923.0183 L844.237,913.0183 L571.61,913.0183 A5,5 0 0 0 566.61,918.0183" fill="#FEFFDD" style="stroke:#181818;stroke-width:0.5;"/><path d="M844.237,913.0183 L844.237,920.5183 A2.5,2.5 0 0 0 846.737,923.0183 L854.237,923.0183 L844.237,913.0183" fill="#FEFFDD" style="stroke:#181818;stroke-width:0.5;"/><text fill="#000000" font-family="sans-serif" font-size="13" lengthAdjust="spacing" textLength="266.627" x="572.61" y="930.5866">Either faq_version_id or question_event_id</text><text fill="#000000" font-family="sans-serif" font-size="13" lengthAdjust="spacing" textLength="230.147" x="572.61" y="945.8972">must be present (CHECK constraint).</text></g><!--link approved_repositories to source_documents--><g class="link" data-entity-1="approved_repositories" data-entity-2="source_documents" data-source-line="124" data-uid="lnk11" id="link_approved_repositories_source_documents"><path codeLine="124" d="M170.42,233.0583 C170.42,252.3283 170.42,272.8483 170.42,292.8583" fill="none" id="approved_repositories-source_documents" style="stroke:#38598A;stroke-width:1;"/><text fill="#000000" font-family="sans-serif" font-size="13" lengthAdjust="spacing" textLength="58.3286" x="171.42" y="259.5266">allowlists</text><text fill="#000000" font-family="sans-serif" font-size="13" lengthAdjust="spacing" textLength="8.2202" x="165.0314" y="253.4382">1</text><text fill="#000000" font-family="sans-serif" font-size="13" lengthAdjust="spacing" textLength="22.7119" x="145.1516" y="281.9412">0..*</text></g><!--link source_documents to source_chunks--><g class="link" data-entity-1="source_documents" data-entity-2="source_chunks" data-source-line="125" data-uid="lnk12" id="link_source_documents_source_chunks"><path codeLine="125" d="M207.42,531.1383 C207.42,556.5983 207.42,583.0183 207.42,606.9483" fill="none" id="source_documents-source_chunks" style="stroke:#38598A;stroke-width:1;"/><text fill="#000000" font-family="sans-serif" font-size="13" lengthAdjust="spacing" textLength="64.9873" x="142.42" y="565.6066">splits_into</text><text fill="#000000" font-family="sans-serif" font-size="13" lengthAdjust="spacing" textLength="8.2202" x="199.1219" y="551.4448">1</text><text fill="#000000" font-family="sans-serif" font-size="13" lengthAdjust="spacing" textLength="22.7119" x="184.5048" y="596.4748">0..*</text></g><!--link faq_entries to faq_versions--><g class="link" data-entity-1="faq_entries" data-entity-2="faq_versions" data-source-line="127" data-uid="lnk13" id="link_faq_entries_faq_versions"><path codeLine="127" d="M746.42,514.5883 C746.42,542.0583 746.42,571.6183 746.42,598.6183" fill="none" id="faq_entries-faq_versions" style="stroke:#38598A;stroke-width:1;"/><text fill="#000000" font-family="sans-serif" font-size="13" lengthAdjust="spacing" textLength="80.7295" x="665.42" y="553.1666">has_versions</text><text fill="#000000" font-family="sans-serif" font-size="13" lengthAdjust="spacing" textLength="8.2202" x="738.1461" y="534.9215">1</text><text fill="#000000" font-family="sans-serif" font-size="13" lengthAdjust="spacing" textLength="22.7119" x="723.6047" y="588.3848">0..*</text></g><!--link faq_entries to faq_versions--><g class="link" data-entity-1="faq_entries" data-entity-2="faq_versions" data-source-line="129" data-uid="lnk15" id="link_faq_entries_faq_versions"><path codeLine="129" d="M806.94,514.5883 C806.94,542.0583 806.94,571.6183 806.94,598.6183" fill="none" id="faq_entries-faq_versions-1" style="stroke:#38598A;stroke-width:1;"/><text fill="#000000" font-family="sans-serif" font-size="13" lengthAdjust="spacing" textLength="97.7666" x="708.94" y="570.1666">current_version</text><text fill="#000000" font-family="sans-serif" font-size="13" lengthAdjust="spacing" textLength="24.667" x="786.3746" y="534.9215">0..1</text><text fill="#000000" font-family="sans-serif" font-size="13" lengthAdjust="spacing" textLength="22.7119" x="788.7583" y="588.3848">0..*</text></g><!--link faq_entries to question_events--><g class="link" data-entity-1="faq_entries" data-entity-2="question_events" data-source-line="128" data-uid="lnk14" id="link_faq_entries_question_events"><path codeLine="128" d="M685.9,514.6683 C685.9,556.4383 685.9,595.0383 685.9,595.0383 C685.9,595.0383 635.73,595.0383 582.73,595.0383" fill="none" id="faq_entries-question_events" style="stroke:#38598A;stroke-width:1;"/><text fill="#000000" font-family="sans-serif" font-size="13" lengthAdjust="spacing" textLength="75.8037" x="598.5" y="591.6066">matched_by</text><text fill="#000000" font-family="sans-serif" font-size="13" lengthAdjust="spacing" textLength="24.667" x="657.0496" y="534.6618">0..1</text><text fill="#000000" font-family="sans-serif" font-size="13" lengthAdjust="spacing" textLength="22.7119" x="590.4576" y="586.5082">0..*</text></g><!--link faq_versions to review_events--><g class="link" data-entity-1="faq_versions" data-entity-2="review_events" data-source-line="131" data-uid="lnk16" id="link_faq_versions_review_events"><path codeLine="131" d="M864.81,787.6483 C864.81,840.9783 864.81,897.0383 864.81,897.0383 C864.81,897.0383 874.61,897.0383 888.64,897.0383" fill="none" id="faq_versions-review_events" style="stroke:#38598A;stroke-width:1;"/><text fill="#000000" font-family="sans-serif" font-size="13" lengthAdjust="spacing" textLength="77.2065" x="786.81" y="850.8266">reviewed_by</text><text fill="#000000" font-family="sans-serif" font-size="13" lengthAdjust="spacing" textLength="8.2202" x="865.5761" y="808.0358">1</text><text fill="#000000" font-family="sans-serif" font-size="13" lengthAdjust="spacing" textLength="22.7119" x="858.415" y="891.2655">0..*</text></g><!--link question_events to retrieval_events--><g class="link" data-entity-1="question_events" data-entity-2="retrieval_events" data-source-line="132" data-uid="lnk17" id="link_question_events_retrieval_events"><path codeLine="132" d="M338.37,787.0383 C261.43,787.0383 176.52,787.0383 176.52,787.0383 C176.52,787.0383 176.52,820.5383 176.52,855.4683" fill="none" id="question_events-retrieval_events" style="stroke:#38598A;stroke-width:1;"/><text fill="#000000" font-family="sans-serif" font-size="13" lengthAdjust="spacing" textLength="49.3403" x="173.23" y="800.6066">triggers</text><text fill="#000000" font-family="sans-serif" font-size="13" lengthAdjust="spacing" textLength="8.2202" x="322.302" y="806.1099">1</text><text fill="#000000" font-family="sans-serif" font-size="13" lengthAdjust="spacing" textLength="22.7119" x="157.804" y="844.9157">0..*</text></g><!--link approved_repositories to retrieval_events--><g class="link" data-entity-1="approved_repositories" data-entity-2="retrieval_events" data-source-line="133" data-uid="lnk18" id="link_approved_repositories_retrieval_events"><path codeLine="133" d="M72,233.3483 C72,391.9983 72,708.5683 72,855.3083" fill="none" id="approved_repositories-retrieval_events" style="stroke:#38598A;stroke-width:1;"/><text fill="#000000" font-family="sans-serif" font-size="13" lengthAdjust="spacing" textLength="64.4922" x="7" y="540.8966">filtered_to</text><text fill="#000000" font-family="sans-serif" font-size="13" lengthAdjust="spacing" textLength="24.667" x="42.706" y="253.4306">0..1</text><text fill="#000000" font-family="sans-serif" font-size="13" lengthAdjust="spacing" textLength="22.7119" x="43.5409" y="845.0072">0..*</text></g><!--link source_chunks to answer_evidence_links--><g class="link" data-entity-1="source_chunks" data-entity-2="answer_evidence_links" data-source-line="135" data-uid="lnk19" id="link_source_chunks_answer_evidence_links"><path codeLine="135" d="M303.48,693.0383 C316.82,693.0383 326.08,693.0383 326.08,693.0383 C326.08,693.0383 326.08,792.5583 326.08,863.5083" fill="none" id="source_chunks-answer_evidence_links" style="stroke:#38598A;stroke-width:1;"/><text fill="#000000" font-family="sans-serif" font-size="13" lengthAdjust="spacing" textLength="55.853" x="284.33" y="780.5366">supports</text><text fill="#000000" font-family="sans-serif" font-size="13" lengthAdjust="spacing" textLength="8.2202" x="311.1488" y="690.0334">1</text><text fill="#000000" font-family="sans-serif" font-size="13" lengthAdjust="spacing" textLength="22.7119" x="293.0467" y="853.1185">0..*</text></g><!--link faq_versions to answer_evidence_links--><g class="link" data-entity-1="faq_versions" data-entity-2="answer_evidence_links" data-source-line="136" data-uid="lnk20" id="link_faq_versions_answer_evidence_links"><path codeLine="136" d="M735.85,787.7083 C735.85,834.0483 735.85,880.0383 735.85,880.0383 C735.85,880.0383 622.06,880.0383 531.6,880.0383" fill="none" id="faq_versions-answer_evidence_links" style="stroke:#38598A;stroke-width:1;"/><text fill="#000000" font-family="sans-serif" font-size="13" lengthAdjust="spacing" textLength="29.1484" x="649.9" y="876.6066">cites</text><text fill="#000000" font-family="sans-serif" font-size="13" lengthAdjust="spacing" textLength="24.667" x="710.1472" y="808.1004">0..1</text><text fill="#000000" font-family="sans-serif" font-size="13" lengthAdjust="spacing" textLength="22.7119" x="539.3215" y="873.7219">0..*</text></g><!--link question_events to answer_evidence_links--><g class="link" data-entity-1="question_events" data-entity-2="answer_evidence_links" data-source-line="137" data-uid="lnk21" id="link_question_events_answer_evidence_links"><path codeLine="137" d="M434.87,796.0683 C434.87,818.8583 434.87,842.4883 434.87,863.5883" fill="none" id="question_events-answer_evidence_links" style="stroke:#38598A;stroke-width:1;"/><text fill="#000000" font-family="sans-serif" font-size="13" lengthAdjust="spacing" textLength="29.1484" x="404.87" y="826.3966">cites</text><text fill="#000000" font-family="sans-serif" font-size="13" lengthAdjust="spacing" textLength="24.667" x="408.3695" y="816.0638">0..1</text><text fill="#000000" font-family="sans-serif" font-size="13" lengthAdjust="spacing" textLength="22.7119" x="413.0557" y="853.2068">0..*</text></g><g class="legend" data-source-line="144"><rect fill="#DDDDDD" height="79.9531" rx="5" ry="5" style="stroke:#000000;stroke-width:1;" width="140.3135" x="922.4855" y="1029.0363"/><text fill="#000000" font-family="sans-serif" font-size="14" font-weight="bold" lengthAdjust="spacing" textLength="27.125" x="932.0998" y="1049.5714">Tag</text><text fill="#000000" font-family="sans-serif" font-size="14" font-weight="bold" lengthAdjust="spacing" textLength="61.3184" x="974.4689" y="1049.5714">Meaning</text><text fill="#000000" font-family="sans-serif" font-size="14" lengthAdjust="spacing" textLength="31.5479" x="931.9152" y="1066.0597">&#171;PK&#187;</text><text fill="#000000" font-family="sans-serif" font-size="14" lengthAdjust="spacing" textLength="79.085" x="974.2844" y="1066.0597">Primary key</text><text fill="#000000" font-family="sans-serif" font-size="14" lengthAdjust="spacing" textLength="31.3154" x="931.9152" y="1082.548">&#171;FK&#187;</text><text fill="#000000" font-family="sans-serif" font-size="14" lengthAdjust="spacing" textLength="78.8252" x="974.2844" y="1082.548">Foreign key</text><text fill="#000000" font-family="sans-serif" font-size="14" lengthAdjust="spacing" textLength="33.5098" x="931.9152" y="1099.0363">&#171;UK&#187;</text><text fill="#000000" font-family="sans-serif" font-size="14" lengthAdjust="spacing" textLength="75.4619" x="974.2844" y="1099.0363">Unique key</text><line style="stroke:#000000;stroke-width:1;" x1="927.4855" x2="1057.799" y1="1036.0363" y2="1036.0363"/><line style="stroke:#000000;stroke-width:1;" x1="927.4855" x2="1057.799" y1="1052.5245" y2="1052.5245"/><line style="stroke:#000000;stroke-width:1;" x1="927.4855" x2="1057.799" y1="1069.0128" y2="1069.0128"/><line style="stroke:#000000;stroke-width:1;" x1="927.4855" x2="1057.799" y1="1085.5011" y2="1085.5011"/><line style="stroke:#000000;stroke-width:1;" x1="927.4855" x2="1057.799" y1="1101.9894" y2="1101.9894"/><line style="stroke:#000000;stroke-width:1;" x1="927.4855" x2="927.4855" y1="1036.0363" y2="1101.9894"/><line style="stroke:#000000;stroke-width:1;" x1="969.8547" x2="969.8547" y1="1036.0363" y2="1101.9894"/><line style="stroke:#000000;stroke-width:1;" x1="1057.799" x2="1057.799" y1="1036.0363" y2="1101.9894"/></g><!--SRC=[jLTRRzis57xNho2obsHhWwPhXipe2jYfjRgj7IEnWM4l0YKTMOGfKYKfkzwo_xv3ITRDifFkyfJeN7XktxdOCCE1p8RpsxlxCVa0F0r1hybxQgXFDP2f386JypcdmYoddoyS9sOXa0HCB4DTV6W32gJPfQ0TlMOYfOec9E1Kww4nYlcPWKaWnGFx0yYhXeYEQIYtJAn8HBc61aV9J8I1L08KkMggS2R0MY9IeGTErnxvqo5aH8FrAd_XLdAfo7VkZJjoNSkHAWHLKb-FhjtX2Ab3fUIs9FvuS_tppH29hXIcf5svhzqtG-Slnobiq3HLSWEXfo2LcXcf61IMVs0X6P3bSlAUl7qx__Jk7T8gePsNAOxinVYt1RAN1sovjU4M0csEe0dKZ10Ycd63vgEQoBH70yCsLcvqT_TvF9mXLKY3hbL2WG9gq75gB6qo7JyiXjFvudTaPMdOpwh2rZ9J0NYX3B84X7bMn4skMt1NhEDv89C4QGY6cbRQIgc96t6NbhqS0BMieIAaAlGCNTNK3IZDf6WJ4OJ6FX1JtNYNYH2-zcVblqXO46TYVJnRLLGzkSfLlTm_v4rcY_6lutiRCc2fCRWOQ6ZRfmumLp3mrJHepD1ScbCVU4t77gOOWitwnuUxsUXKk5LC4VtYeRCd4HzG8GKBAFU-PA2jwTgea2gX70T1Y67PMXmqH7yvaMeoYsJhGF5XBMLAsTJjYzsJmeWfRRmqypdJSNybCJ0BoGs3xV-00kjmwT_nbEtJsjin- -X4blZvWAY1G8NUWl8IgjOuIHjvtZDmV2EnyLLqGOHpMo0sDSvOAp1RJiVtazlpwnTlBb02-yF3jamv6CHlYH_TcYnM91CwIrESn9W039ObRP5zslpTCoPGbQ-Y41viJiwOHbRxKbPMKnMyQcu6J1TeB8tiAPM6zzo1MRcxX_XJ3clGjRFbwvdkUAZezXjwnlOmDO55zKdy_3iiH02XZnlLzbxvhxUXFBFQrDVM7niN9aetdNvEeUqOmQUUIbqxnVtbFhLnQaFuacg0qSZKMxVwgHRjPkFcnKys6uYICbjP5B605TKunFpniClyLm_XHRF-npX_EZND9TIxOcpVTbV3gIZwhv-pgpFoyYKvUtLv-VtPuQc0iEDSRd466xmHkznUvN9j3eXEEJFQGX_llUR-QQkrvkmWdq_xpxOMYhSKknqygBhAtvtMx9ZiRAF2sOhVzhOzvVO3gR3PTQYhsMcR0K72QeLsZjMcwtVF4n7Zzeh7hMkFwbO5skRxuOjLAZQ1xWJTDNrC7PSC_deuYFpRr1qxlGac8pP4Hlt2pfYP6BTefx7mpZ_e9IV9j24-a5I1jer-VljXVFl9panj54L0Nbmw8CByodOS3YlxaPjt7dyX2xnVyCyKgB0tsgFpMBOrUIHpnN1dxyWQTYN3BHWkJXss4Wt6ic0i1KC7IphQAQmvVmC0]--></g></svg>